<svg width="101" height="50" viewBox="0 0 101 50" fill="none" xmlns="http://www.w3.org/2000/svg">
<path d="M48.6426 28.2695C48.6426 27.7161 48.4473 27.293 48.0566 27C47.666 26.7005 46.9629 26.388 45.9473 26.0625C44.9316 25.7305 44.1276 25.4049 43.5352 25.0859C41.9206 24.2135 41.1133 23.0384 41.1133 21.5605C41.1133 20.7923 41.3281 20.1087 41.7578 19.5098C42.194 18.9043 42.8158 18.4323 43.623 18.0938C44.4368 17.7552 45.3483 17.5859 46.3574 17.5859C47.373 17.5859 48.278 17.7715 49.0723 18.1426C49.8665 18.5072 50.4818 19.0247 50.918 19.6953C51.3607 20.3659 51.582 21.1276 51.582 21.9805H48.6523C48.6523 21.3294 48.4473 20.8249 48.0371 20.4668C47.627 20.1022 47.0508 19.9199 46.3086 19.9199C45.5924 19.9199 45.0358 20.0729 44.6387 20.3789C44.2415 20.6784 44.043 21.0755 44.043 21.5703C44.043 22.0326 44.2741 22.4199 44.7363 22.7324C45.2051 23.0449 45.8919 23.3379 46.7969 23.6113C48.4635 24.1126 49.6777 24.7344 50.4395 25.4766C51.2012 26.2188 51.582 27.1432 51.582 28.25C51.582 29.4805 51.1165 30.4473 50.1855 31.1504C49.2546 31.847 48.0013 32.1953 46.4258 32.1953C45.332 32.1953 44.3359 31.9967 43.4375 31.5996C42.5391 31.196 41.8522 30.6458 41.377 29.9492C40.9082 29.2526 40.6738 28.4453 40.6738 27.5273H43.6133C43.6133 29.0964 44.5508 29.8809 46.4258 29.8809C47.1224 29.8809 47.666 29.7409 48.0566 29.4609C48.4473 29.1745 48.6426 28.7773 48.6426 28.2695ZM59.5117 32C59.3815 31.7461 59.2871 31.4303 59.2285 31.0527C58.5449 31.8145 57.6562 32.1953 56.5625 32.1953C55.5273 32.1953 54.668 31.8958 53.9844 31.2969C53.3073 30.6979 52.9688 29.9427 52.9688 29.0312C52.9688 27.9115 53.3822 27.0521 54.209 26.4531C55.0423 25.8542 56.2435 25.5514 57.8125 25.5449H59.1113V24.9395C59.1113 24.4512 58.9844 24.0605 58.7305 23.7676C58.4831 23.4746 58.0892 23.3281 57.5488 23.3281C57.0736 23.3281 56.6992 23.4421 56.4258 23.6699C56.1589 23.8978 56.0254 24.2103 56.0254 24.6074H53.2031C53.2031 23.9954 53.3919 23.429 53.7695 22.9082C54.1471 22.3874 54.681 21.9805 55.3711 21.6875C56.0612 21.388 56.8359 21.2383 57.6953 21.2383C58.9974 21.2383 60.0293 21.5671 60.791 22.2246C61.5592 22.8757 61.9434 23.7936 61.9434 24.9785V29.5586C61.9499 30.5612 62.0898 31.3197 62.3633 31.834V32H59.5117ZM57.1777 30.0371C57.5944 30.0371 57.9785 29.946 58.3301 29.7637C58.6816 29.5749 58.9421 29.3242 59.1113 29.0117V27.1953H58.0566C56.6439 27.1953 55.8919 27.6836 55.8008 28.6602L55.791 28.8262C55.791 29.1777 55.9147 29.4674 56.1621 29.6953C56.4095 29.9232 56.748 30.0371 57.1777 30.0371ZM69.834 29.0801C69.834 28.735 69.6615 28.4648 69.3164 28.2695C68.9779 28.0677 68.431 27.8887 67.6758 27.7324C65.1628 27.2051 63.9062 26.1374 63.9062 24.5293C63.9062 23.5918 64.2936 22.8105 65.0684 22.1855C65.8496 21.554 66.8685 21.2383 68.125 21.2383C69.4661 21.2383 70.5371 21.554 71.3379 22.1855C72.1452 22.8171 72.5488 23.6374 72.5488 24.6465H69.7266C69.7266 24.2428 69.5964 23.9108 69.3359 23.6504C69.0755 23.3835 68.6686 23.25 68.1152 23.25C67.64 23.25 67.2721 23.3574 67.0117 23.5723C66.7513 23.7871 66.6211 24.0605 66.6211 24.3926C66.6211 24.7051 66.7676 24.959 67.0605 25.1543C67.36 25.3431 67.8613 25.5091 68.5645 25.6523C69.2676 25.7891 69.86 25.9453 70.3418 26.1211C71.8327 26.668 72.5781 27.6152 72.5781 28.9629C72.5781 29.9264 72.1647 30.7077 71.3379 31.3066C70.5111 31.8991 69.4434 32.1953 68.1348 32.1953C67.2493 32.1953 66.4616 32.0391 65.7715 31.7266C65.0879 31.4076 64.5508 30.9746 64.1602 30.4277C63.7695 29.8743 63.5742 29.2786 63.5742 28.6406H66.25C66.276 29.1419 66.4616 29.526 66.8066 29.793C67.1517 30.0599 67.6139 30.1934 68.1934 30.1934C68.7337 30.1934 69.1406 30.0924 69.4141 29.8906C69.694 29.6823 69.834 29.4121 69.834 29.0801ZM80.127 29.0801C80.127 28.735 79.9544 28.4648 79.6094 28.2695C79.2708 28.0677 78.724 27.8887 77.9688 27.7324C75.4557 27.2051 74.1992 26.1374 74.1992 24.5293C74.1992 23.5918 74.5866 22.8105 75.3613 22.1855C76.1426 21.554 77.1615 21.2383 78.418 21.2383C79.7591 21.2383 80.8301 21.554 81.6309 22.1855C82.4382 22.8171 82.8418 23.6374 82.8418 24.6465H80.0195C80.0195 24.2428 79.8893 23.9108 79.6289 23.6504C79.3685 23.3835 78.9616 23.25 78.4082 23.25C77.9329 23.25 77.5651 23.3574 77.3047 23.5723C77.0443 23.7871 76.9141 24.0605 76.9141 24.3926C76.9141 24.7051 77.0605 24.959 77.3535 25.1543C77.653 25.3431 78.1543 25.5091 78.8574 25.6523C79.5605 25.7891 80.153 25.9453 80.6348 26.1211C82.1257 26.668 82.8711 27.6152 82.8711 28.9629C82.8711 29.9264 82.4577 30.7077 81.6309 31.3066C80.804 31.8991 79.7363 32.1953 78.4277 32.1953C77.5423 32.1953 76.7546 32.0391 76.0645 31.7266C75.3809 31.4076 74.8438 30.9746 74.4531 30.4277C74.0625 29.8743 73.8672 29.2786 73.8672 28.6406H76.543C76.569 29.1419 76.7546 29.526 77.0996 29.793C77.4447 30.0599 77.9069 30.1934 78.4863 30.1934C79.0267 30.1934 79.4336 30.0924 79.707 29.8906C79.987 29.6823 80.127 29.4121 80.127 29.0801ZM87.6758 32H84.8438V21.4336H87.6758V32ZM84.6777 18.6992C84.6777 18.276 84.8177 17.9277 85.0977 17.6543C85.3841 17.3809 85.7715 17.2441 86.2598 17.2441C86.7415 17.2441 87.1257 17.3809 87.4121 17.6543C87.6986 17.9277 87.8418 18.276 87.8418 18.6992C87.8418 19.1289 87.6953 19.4805 87.4023 19.7539C87.1159 20.0273 86.735 20.1641 86.2598 20.1641C85.7845 20.1641 85.4004 20.0273 85.1074 19.7539C84.821 19.4805 84.6777 19.1289 84.6777 18.6992ZM89.5703 26.6191C89.5703 25.571 89.7721 24.6367 90.1758 23.8164C90.5794 22.9961 91.1589 22.3613 91.9141 21.9121C92.6758 21.4629 93.5579 21.2383 94.5605 21.2383C95.9863 21.2383 97.1484 21.6745 98.0469 22.5469C98.9518 23.4193 99.4564 24.6042 99.5605 26.1016L99.5801 26.8242C99.5801 28.4453 99.1276 29.7474 98.2227 30.7305C97.3177 31.707 96.1035 32.1953 94.5801 32.1953C93.0566 32.1953 91.8392 31.707 90.9277 30.7305C90.0228 29.7539 89.5703 28.4258 89.5703 26.7461V26.6191ZM92.3926 26.8242C92.3926 27.8268 92.5814 28.5951 92.959 29.1289C93.3366 29.6562 93.877 29.9199 94.5801 29.9199C95.2637 29.9199 95.7975 29.6595 96.1816 29.1387C96.5658 28.6113 96.7578 27.7715 96.7578 26.6191C96.7578 25.6361 96.5658 24.8743 96.1816 24.334C95.7975 23.7936 95.2572 23.5234 94.5605 23.5234C93.8704 23.5234 93.3366 23.7936 92.959 24.334C92.5814 24.8678 92.3926 25.6979 92.3926 26.8242Z" fill="white"/>
<path fill-rule="evenodd" clip-rule="evenodd" d="M23.3275 38.2379C23.0265 38.3941 22.7227 38.5503 22.4217 38.7065C14.2499 42.9132 14.5373 42.1157 6.20128 37.9858C-1.61747 33.9216 0.177801 32.6363 0.177801 24.7245C2.77767 26.0153 5.38027 27.3033 7.98287 28.5941C7.98287 30.7043 7.89529 30.5864 10.0217 31.6415C14.4552 33.8394 18.8914 36.0373 23.3275 38.2379Z" fill="white"/>
<path fill-rule="evenodd" clip-rule="evenodd" d="M29.8381 28.5364C29.8381 33.1295 30.7002 34.4038 25.9082 36.895C24.0965 35.9961 22.2821 35.0999 20.4704 34.1983C20.4704 31.984 20.4895 32.1374 18.2509 31.0275C12.2274 28.0431 6.20123 25.0587 0.177751 22.0716C0.177751 17.4291 -0.637785 16.1767 4.10765 13.713C5.91935 14.6119 7.73104 15.508 9.54547 16.4069C9.54547 18.4623 9.38127 18.3965 11.4475 19.4187C17.5749 22.458 23.7079 25.4972 29.8381 28.5364Z" fill="white"/>
<path fill-rule="evenodd" clip-rule="evenodd" d="M23.8119 12.6224C31.554 16.6454 29.8381 18.0321 29.8381 25.8837C27.2355 24.5929 24.6329 23.3049 22.033 22.0141C22.033 20.0354 22.2246 20.0711 20.235 19.0872C15.7195 16.8482 11.2039 14.6092 6.68835 12.3702C15.7824 7.64286 14.5646 8.03749 23.8119 12.6224Z" fill="white"/>
</svg>
