<svg width="50" height="51" viewBox="0 0 50 51" fill="none" xmlns="http://www.w3.org/2000/svg">
<g clip-path="url(#clip0_27:65)">
<path d="M34.1069 15.2356C33.3724 18.6731 30.7355 21.4071 27.3494 22.286V25.0786H22.6506V22.286C19.2645 21.4071 16.6277 18.6731 15.8932 15.2356H7.54456V36.2299H42.4556V15.2356H34.1069Z" fill="#B2F0FB"/>
<path d="M49.0234 39.5502H47.729V12.9042C47.729 10.7435 45.9711 8.98545 43.8103 8.98545H34.3435C32.7108 5.46152 29.1366 3.01074 25 3.01074C20.8634 3.01074 17.2893 5.46143 15.6565 8.98545H6.18975C4.029 8.98545 2.27109 10.7434 2.27109 12.9042V39.5502H0.976562C0.437207 39.5502 0 39.9874 0 40.5268V43.4614C0 45.4325 1.60361 47.036 3.57461 47.036H46.4253C48.3964 47.036 49.9999 45.4324 49.9999 43.4614V40.5268C50 39.9874 49.5627 39.5502 49.0234 39.5502ZM25 4.96387C29.5961 4.96387 33.3354 8.69717 33.3354 13.2858C33.3354 17.0761 30.773 20.3883 27.104 21.3406C26.6734 21.4524 26.3729 21.841 26.3729 22.2858V24.1019H23.6271V22.2858C23.6271 21.841 23.3264 21.4523 22.8959 21.3406C19.227 20.3883 16.6646 17.0761 16.6646 13.2858C16.6646 8.69717 20.4039 4.96387 25 4.96387ZM4.22412 12.9042C4.22412 11.8203 5.10586 10.9386 6.18965 10.9386H14.9823C14.8052 11.6927 14.7114 12.4786 14.7114 13.2859C14.7114 17.7095 17.5385 21.6059 21.6739 23.0123V25.0785C21.6739 25.6179 22.1111 26.0551 22.6505 26.0551H27.3494C27.8887 26.0551 28.326 25.6179 28.326 25.0785V23.0123C32.4614 21.6059 35.2885 17.7095 35.2885 13.2859C35.2885 12.4786 35.1947 11.6928 35.0176 10.9386H43.8103C44.8941 10.9386 45.7759 11.8203 45.7759 12.9042V39.5502H4.22412V12.9042ZM1.95312 43.4614V41.5033H17.8399V45.083H3.57461C2.68057 45.083 1.95312 44.3556 1.95312 43.4614ZM19.7931 45.083V41.5033H30.207V45.083H19.7931ZM48.0469 43.4614C48.0469 44.3556 47.3195 45.0829 46.4254 45.0829H32.1601V41.5032H48.0469V43.4614Z" fill="#020288"/>
<path d="M24.31 19.551C24.5006 19.7413 24.7503 19.8365 25 19.8365C25.2497 19.8365 25.4994 19.7413 25.69 19.551L27.8821 17.3619C28.2638 16.9809 28.2643 16.3625 27.8832 15.9809C27.5022 15.5991 26.8839 15.5988 26.5022 15.9799L25 17.4799L23.4979 15.9799C23.1161 15.5987 22.4979 15.5993 22.1168 15.9809C21.7358 16.3625 21.7362 16.9809 22.1178 17.3619L24.31 19.551Z" fill="#020288"/>
</g>
<defs>
<clipPath id="clip0_27:65">
<rect width="50" height="50" fill="white" transform="translate(0 0.0234375)"/>
</clipPath>
</defs>
</svg>
