<svg width="50" height="51" viewBox="0 0 50 51" fill="none" xmlns="http://www.w3.org/2000/svg">
<g clip-path="url(#clip0_27:77)">
<path d="M25 7.23975C17.2929 7.23975 11.045 13.4876 11.045 21.1947C11.045 27.3098 14.9782 32.5062 20.4528 34.3921V23.6105L21.9074 21.5468L25.0077 17.0752L28.108 21.5468L29.5627 23.6105V34.3867C35.0292 32.4963 38.955 27.304 38.955 21.1947C38.955 13.4876 32.7071 7.23975 25 7.23975Z" fill="#B2F0FB"/>
<path d="M25 3.81309C25.5393 3.81309 25.9766 3.37588 25.9766 2.83652V1C25.9766 0.460645 25.5393 0.0234375 25 0.0234375C24.4607 0.0234375 24.0234 0.460645 24.0234 1V2.83652C24.0234 3.37588 24.4607 3.81309 25 3.81309Z" fill="#020288"/>
<path d="M45.1948 20.2183H43.3582C42.8189 20.2183 42.3816 20.6555 42.3816 21.1948C42.3816 21.7342 42.8189 22.1714 43.3582 22.1714H45.1948C45.7341 22.1714 46.1714 21.7342 46.1714 21.1948C46.1714 20.6555 45.7341 20.2183 45.1948 20.2183Z" fill="#020288"/>
<path d="M6.6418 20.2183H4.80518C4.26592 20.2183 3.82861 20.6555 3.82861 21.1948C3.82861 21.7342 4.26592 22.1714 4.80518 22.1714H6.6418C7.18105 22.1714 7.61836 21.7342 7.61836 21.1948C7.61836 20.6555 7.18105 20.2183 6.6418 20.2183Z" fill="#020288"/>
<path d="M38.5893 6.22432L37.2906 7.52295C36.9093 7.90429 36.9093 8.52265 37.2906 8.9041C37.4813 9.09482 37.7312 9.19013 37.9812 9.19013C38.2311 9.19013 38.481 9.09482 38.6717 8.9041L39.9703 7.60547C40.3517 7.22412 40.3517 6.60576 39.9703 6.22432C39.589 5.84287 38.9708 5.84287 38.5893 6.22432Z" fill="#020288"/>
<path d="M11.3282 33.4855L10.0296 34.7841C9.64825 35.1655 9.64825 35.7838 10.0296 36.1653C10.2203 36.356 10.4702 36.4513 10.7201 36.4513C10.97 36.4513 11.2199 36.356 11.4107 36.1653L12.7093 34.8666C13.0906 34.4853 13.0906 33.8669 12.7093 33.4855C12.3278 33.1041 11.7097 33.1041 11.3282 33.4855Z" fill="#020288"/>
<path d="M38.6718 33.4855C38.2903 33.1041 37.6722 33.1041 37.2906 33.4855C36.9093 33.8668 36.9093 34.4852 37.2906 34.8666L38.5893 36.1653C38.78 36.356 39.0299 36.4513 39.2798 36.4513C39.5297 36.4513 39.7796 36.356 39.9703 36.1653C40.3517 35.7839 40.3517 35.1656 39.9703 34.7841L38.6718 33.4855Z" fill="#020288"/>
<path d="M11.4108 6.22424C11.0293 5.8429 10.4111 5.8429 10.0296 6.22424C9.64825 6.60559 9.64825 7.22395 10.0296 7.60539L11.3282 8.90403C11.519 9.09475 11.7689 9.19006 12.0188 9.19006C12.2687 9.19006 12.5186 9.09475 12.7093 8.90403C13.0906 8.52268 13.0906 7.90432 12.7093 7.52288L11.4108 6.22424Z" fill="#020288"/>
<path d="M28.8985 20.9842C28.8984 20.9841 28.8984 20.984 28.8983 20.9839L25.8025 16.5187C25.6201 16.2556 25.3203 16.0986 25 16.0986C24.6797 16.0986 24.3799 16.2556 24.1974 16.5187L21.1016 20.9839C21.1016 20.984 21.1016 20.9841 21.1015 20.9842L19.6468 23.0479C19.5307 23.2126 19.4684 23.4091 19.4684 23.6105V49.0467C19.4684 49.5861 19.9057 50.0233 20.445 50.0233H29.5551C30.0943 50.0233 30.5316 49.5861 30.5316 49.0467V23.6105C30.5316 23.4091 30.4693 23.2126 30.3533 23.0479L28.8985 20.9842ZM21.4215 23.9201L22.406 22.5233H27.5938L28.5784 23.9201V25.4669C28.3485 25.4052 28.099 25.3678 27.832 25.3678C26.3636 25.3678 25.6088 25.9351 24.9999 26.6592C24.391 25.9351 23.6362 25.3678 22.1678 25.3678C21.9008 25.3678 21.6514 25.4052 21.4214 25.4669V23.9201H21.4215ZM21.4215 27.6226C21.601 27.4818 21.8711 27.3209 22.1679 27.3209C23.0868 27.3209 23.2693 27.5699 23.9486 28.4966C24.0345 28.6136 24.124 28.7357 24.2193 28.8627C24.4038 29.1081 24.693 29.2524 24.9999 29.2524C25.3068 29.2524 25.596 29.1081 25.7805 28.8627C25.8759 28.7358 25.9654 28.6137 26.0512 28.4966C26.7305 27.57 26.913 27.3209 27.8319 27.3209C28.1287 27.3209 28.3988 27.4818 28.5783 27.6226V43.0691H21.4214V27.6226H21.4215ZM25 18.7891L26.2349 20.5702H23.7651L25 18.7891ZM21.4215 48.0702V45.0222H28.5784V48.0702H21.4215Z" fill="#020288"/>
</g>
<defs>
<clipPath id="clip0_27:77">
<rect width="50" height="50" fill="white" transform="translate(0 0.0234375)"/>
</clipPath>
</defs>
</svg>
