<svg width="50" height="51" viewBox="0 0 50 51" fill="none" xmlns="http://www.w3.org/2000/svg">
<g clip-path="url(#clip0_27:94)">
<path d="M17.1854 25.6059H0.976562C0.437207 25.6059 0 25.1686 0 24.6293V1C0 0.460742 0.437207 0.0234375 0.976562 0.0234375H24.6058C25.1451 0.0234375 25.5823 0.460742 25.5823 1V15.8832C25.5823 16.4225 25.145 16.8598 24.6058 16.8598C24.0665 16.8598 23.6292 16.4225 23.6292 15.8832V1.97656H1.95312V23.6527H17.1854C17.7248 23.6527 18.162 24.09 18.162 24.6293C18.162 25.1686 17.7247 25.6059 17.1854 25.6059Z" fill="#020288"/>
<path d="M36.8147 25.4241V16.3795C36.8147 14.6284 35.395 13.2087 33.6439 13.2087H16.3562C14.605 13.2087 13.1854 14.6284 13.1854 16.3795V33.6672C13.1854 35.4184 14.605 36.838 16.3562 36.838H25.4007C25.6043 30.6263 30.6029 25.6277 36.8147 25.4241Z" fill="#E2C4FF"/>
<path d="M37.2189 50.0233H37.1986C30.1512 50.0233 24.4176 44.2897 24.4176 37.2423V37.222C24.4176 30.1745 30.1512 24.4409 37.1986 24.4409H37.2189C44.2664 24.4409 50 30.1745 50 37.222V37.2423C50 44.2897 44.2664 50.0233 37.2189 50.0233ZM37.1986 26.394C31.228 26.394 26.3707 31.2514 26.3707 37.222V37.2423C26.3707 43.2129 31.228 48.0702 37.1986 48.0702H37.2189C43.1895 48.0702 48.0469 43.2129 48.0469 37.2423V37.222C48.0469 31.2514 43.1895 26.394 37.2189 26.394H37.1986Z" fill="#020288"/>
</g>
<defs>
<clipPath id="clip0_27:94">
<rect width="50" height="50" fill="white" transform="translate(0 0.0234375)"/>
</clipPath>
</defs>
</svg>
