<svg width="60" height="60" viewBox="0 0 60 60" fill="none" xmlns="http://www.w3.org/2000/svg">
<g clip-path="url(#clip0_166_2190)">
<path d="M22.8741 18.1726C22.9937 18.8121 23.6266 19.2259 24.2466 19.1016C24.8821 18.979 25.298 18.3646 25.1755 17.7291L25.0989 17.3334C24.9053 16.337 24.8169 15.8822 24.842 15.4784C24.9078 14.4217 25.7883 13.552 26.8464 13.4985C27.5066 13.4658 28.1333 13.7321 28.5644 14.2314C28.9264 14.6505 29.4497 14.8911 30 14.8911C30.5503 14.8911 31.0735 14.6507 31.4358 14.2312C31.8669 13.7321 32.4921 13.4638 33.1539 13.4985C34.2121 13.5521 35.0924 14.4219 35.1582 15.4785C35.1833 15.8821 35.095 16.3369 34.9014 17.3332L34.8247 17.7289C34.7023 18.3644 35.1182 18.979 35.7537 19.1014C36.3892 19.224 37.0037 18.808 37.1262 18.1725L37.2021 17.7802C37.4208 16.6549 37.5412 16.0351 37.4974 15.3328C37.3564 13.0677 35.5403 11.2727 33.2727 11.1575C32.0498 11.096 30.8809 11.5252 30.0001 12.3476C29.1194 11.5252 27.9524 11.0967 26.728 11.1575C24.4603 11.2723 22.6439 13.0672 22.5029 15.3325C22.4591 16.0351 22.5796 16.6549 22.7982 17.7803L22.8741 18.1726Z" fill="#020288"/>
<path d="M58.8281 43.909H58.3395V7.71199C58.3395 5.94457 56.9016 4.50668 55.1343 4.50668H4.86574C3.09832 4.50668 1.66055 5.94457 1.66055 7.71199V43.909H1.17188C0.524648 43.909 0 44.4338 0 45.0809V51.7581C0 53.8177 1.67555 55.4932 3.73512 55.4932H56.265C58.3245 55.4932 60 53.8177 60 51.7581V45.0809C60 44.4338 59.4754 43.909 58.8281 43.909ZM4.0043 7.71199C4.0043 7.23691 4.39078 6.85043 4.86574 6.85043H55.1343C55.6092 6.85043 55.9957 7.23691 55.9957 7.71199V43.909H4.0043V7.71199ZM22.6746 46.2527H37.3255V48.5292H22.6746V46.2527ZM57.6562 51.7582C57.6562 52.5254 57.0321 53.1496 56.265 53.1496H3.73512C2.96801 53.1496 2.34375 52.5254 2.34375 51.7582V46.2527H20.3309V49.7011C20.3309 50.3482 20.8555 50.873 21.5027 50.873H38.4974C39.1446 50.873 39.6693 50.3482 39.6693 49.7011V46.2527H57.6562V51.7582Z" fill="#020288"/>
<path d="M46.8931 40.2962C46.8931 39.6491 46.3684 39.1243 45.7212 39.1243H14.2788C12.724 39.1862 12.7252 41.4067 14.2788 41.4681H45.7213C46.3684 41.4681 46.8931 40.9434 46.8931 40.2962Z" fill="#020288"/>
<path d="M47.9715 28.7119C48.4291 29.1695 49.1712 29.1695 49.6288 28.7119L52.1323 26.2085C52.5862 25.772 52.5861 24.9877 52.1323 24.5511L49.6289 22.0477C49.1713 21.5903 48.4292 21.5902 47.9716 22.0477C47.514 22.5053 47.5139 23.2473 47.9716 23.705L49.6465 25.3799L47.9716 27.0546C47.514 27.5122 47.5139 28.2543 47.9715 28.7119Z" fill="#020288"/>
<path d="M12.0285 22.0477C11.5709 21.5902 10.8288 21.5902 10.3712 22.0477L7.86774 24.5511C7.41388 24.9877 7.41388 25.772 7.86774 26.2085L10.3712 28.7119C10.8288 29.1695 11.5709 29.1695 12.0285 28.7119C12.4861 28.2543 12.4861 27.5122 12.0285 27.0545L10.3536 25.3798L12.0285 23.7049C12.4861 23.2473 12.4861 22.5053 12.0285 22.0477Z" fill="#020288"/>
<path d="M18.3237 16.4992H41.6764V21.0363H18.3237V16.4992Z" fill="#E2C4FF"/>
<path d="M20.0593 21.0363H39.9408V34.5763H20.0593V21.0363Z" fill="#E2C4FF"/>
</g>
<defs>
<clipPath id="clip0_166_2190">
<rect width="60" height="60" fill="white"/>
</clipPath>
</defs>
</svg>
