<svg width="60" height="60" viewBox="0 0 60 60" fill="none" xmlns="http://www.w3.org/2000/svg">
<g clip-path="url(#clip0_166_2204)">
<path d="M51.6797 18.75V49.4531H8.32031V18.75H14.1797V19.8984H16.7531C17.1 21.4887 17.7258 22.9758 18.5777 24.3048L16.759 26.1246L20.8677 30.2333L22.6875 28.4145C24.0164 29.2665 25.5035 29.8922 27.0939 30.2391V32.8125H32.9064V30.2391C34.4966 29.8922 35.9837 29.2664 37.3127 28.4145L39.1325 30.2333L43.2412 26.1246L41.4223 24.3047C42.2743 22.9757 42.9 21.4887 43.2469 19.8983H45.8203V18.75H51.6797Z" fill="#91EFFB"/>
<path d="M58.7109 48.2812H57.5391V17.5781C57.5391 14.9934 55.4362 12.8906 52.8516 12.8906H44.152C43.8485 11.8376 43.4283 10.8245 42.8957 9.86309L44.07 8.68828C44.5274 8.23055 44.5273 7.48875 44.0698 7.03113L39.9612 2.92242C39.5037 2.46504 38.7619 2.46492 38.304 2.92219L37.1292 4.09652C36.1614 3.56039 35.1404 3.13746 34.0782 2.83289V1.17188C34.0782 0.524648 33.5535 0 32.9064 0H27.0939C26.4468 0 25.922 0.524648 25.922 1.17188V2.83289C24.8596 3.13758 23.8389 3.56039 22.871 4.09652L21.6961 2.9223C21.2382 2.46492 20.4967 2.46516 20.0389 2.92254L15.9304 7.03125C15.4729 7.48875 15.4727 8.23055 15.9301 8.6884L17.1045 9.8632C16.5718 10.8246 16.1516 11.8377 15.8481 12.8907H7.14844C4.56375 12.8907 2.46094 14.9936 2.46094 17.5782V48.2814H1.28906C0.641836 48.2814 0.117188 48.8061 0.117188 49.4532V55.3126C0.117188 57.8973 2.22 60.0001 4.80469 60.0001H55.1953C57.78 60.0001 59.8828 57.8973 59.8828 55.3126V49.4532C59.8828 48.806 59.358 48.2812 58.7109 48.2812ZM20.8678 5.40809L21.859 6.39879C22.2485 6.78809 22.8566 6.85395 23.32 6.55641C24.557 5.76328 25.9106 5.20277 27.3435 4.89023C27.8818 4.77281 28.2656 4.29621 28.2656 3.7452V2.34375H31.7344V3.74531C31.7344 4.29621 32.1182 4.77293 32.6565 4.89035C34.0893 5.20277 35.4429 5.7634 36.68 6.55664C37.1434 6.85359 37.7514 6.78832 38.141 6.39891L39.1322 5.4082L41.5841 7.86012L40.5934 8.85129C40.2042 9.2407 40.1386 9.84867 40.4357 10.3121C41.2257 11.5447 41.7845 12.891 42.0964 14.3136C42.2211 14.8939 42.7131 15.258 43.2469 15.258H44.6484V18.7268H43.2469C42.696 18.7268 42.2194 19.1106 42.1018 19.6489C41.7894 21.0817 41.2288 22.4353 40.4355 23.6725C40.1385 24.1361 40.204 24.744 40.5933 25.1334L41.584 26.1246L39.1321 28.5765L38.1409 27.5858C37.7516 27.1966 37.1438 27.131 36.6799 27.4281C35.4428 28.2213 34.0891 28.782 32.6564 29.0944C32.118 29.2118 31.7343 29.6884 31.7343 30.2394V31.6406H28.2655V30.2391C28.2655 29.6882 27.8817 29.2114 27.3434 29.094C25.9105 28.7815 24.5569 28.221 23.3198 27.4279C22.8566 27.1307 22.2484 27.1962 21.8589 27.5855L20.8677 28.5762L18.4158 26.1243L19.4065 25.1331C19.7957 24.7437 19.8613 24.1357 19.5642 23.6721C18.771 22.435 18.2104 21.0813 17.8979 19.6486C17.7805 19.1102 17.3039 18.7264 16.753 18.7264H15.3516V15.2577H16.7531C17.2902 15.2577 17.7796 14.8905 17.9036 14.3133C18.2155 12.8906 18.7743 11.5444 19.5643 10.3118C19.8614 9.84832 19.7959 9.24035 19.4066 8.85094L18.4159 7.85977L20.8678 5.40809ZM4.80469 17.5781C4.80469 16.2858 5.85609 15.2344 7.14844 15.2344H13.0078V19.8984C13.0078 20.5455 13.5326 21.0703 14.1797 21.0703H15.8407C16.1454 22.1325 16.5682 23.1534 17.1043 24.1213L15.93 25.2961C15.4726 25.7538 15.4727 26.4956 15.9302 26.9532L20.0388 31.0618C20.4966 31.5193 21.2384 31.5195 21.696 31.0621L22.8708 29.8877C23.8386 30.4239 24.8593 30.8468 25.9218 31.1514V32.8125C25.9218 33.4596 26.4465 33.9844 27.0936 33.9844H32.9061C33.5532 33.9844 34.078 33.4596 34.078 32.8125V31.1515C35.1402 30.8468 36.1611 30.424 37.129 29.8879L38.3038 31.0622C38.7615 31.5196 39.5031 31.5193 39.9609 31.062L44.0695 26.9534C44.527 26.4959 44.5271 25.7541 44.0698 25.2962L42.8954 24.1214C43.4316 23.1536 43.8545 22.1326 44.1591 21.0704H45.8203C46.4674 21.0704 46.9922 20.5457 46.9922 19.8986V15.2344H52.8516C54.1439 15.2344 55.1953 16.2858 55.1953 17.5781V48.2812H4.80469V17.5781ZM57.5391 55.3125C57.5391 56.6048 56.4877 57.6562 55.1953 57.6562H4.80469C3.51234 57.6562 2.46094 56.6048 2.46094 55.3125V50.625H57.5391V55.3125Z" fill="#00008B"/>
<path d="M30 25.9127C34.9188 25.9127 38.9205 21.911 38.9205 16.9922C38.9205 12.0734 34.9188 8.07165 30 8.07165C25.0812 8.07165 21.0795 12.0734 21.0795 16.9922C21.0795 21.911 25.0812 25.9127 30 25.9127ZM30 10.4154C33.6265 10.4154 36.5768 13.3657 36.5768 16.9922C36.5768 20.6187 33.6265 23.569 30 23.569C26.3735 23.569 23.4232 20.6187 23.4232 16.9922C23.4232 13.3657 26.3735 10.4154 30 10.4154Z" fill="#00008B"/>
<path d="M35.2734 43.5938H13.0078C12.3607 43.5938 11.8359 44.1185 11.8359 44.7656C11.8359 45.4127 12.3607 45.9375 13.0078 45.9375H35.2734C35.9205 45.9375 36.4453 45.4127 36.4453 44.7656C36.4453 44.1185 35.9205 43.5938 35.2734 43.5938Z" fill="#00008B"/>
<path d="M13.0078 41.25H25.8984C26.5457 41.25 27.0703 40.7252 27.0703 40.0781C27.0703 39.431 26.5457 38.9062 25.8984 38.9062H13.0078C12.3607 38.9062 11.8359 39.431 11.8359 40.0781C11.8359 40.7252 12.3607 41.25 13.0078 41.25Z" fill="#00008B"/>
</g>
<defs>
<clipPath id="clip0_166_2204">
<rect width="60" height="60" fill="white"/>
</clipPath>
</defs>
</svg>
