<svg width="60" height="60" viewBox="0 0 60 60" fill="none" xmlns="http://www.w3.org/2000/svg">
<g clip-path="url(#clip0_166_2106)">
<path d="M23.1341 1.74768H47.2709C48.4424 1.74768 49.392 2.69737 49.392 3.86877V23.3273C49.392 24.4995 48.4417 25.4498 47.2695 25.4498H30.9421L28.4005 28.049L26.2552 25.4498H23.1328C21.9613 25.4498 21.0117 24.5001 21.0117 23.3287V3.87006C21.0116 2.69795 21.9619 1.74768 23.1341 1.74768Z" fill="#A4FCC4"/>
<path d="M28.3396 14.5731C28.5247 15.0172 28.9766 15.3132 29.4593 15.2966C29.9412 15.2799 30.3755 14.958 30.5308 14.5017C30.6885 14.039 30.5335 13.5096 30.1494 13.2068C29.7643 12.9033 29.2199 12.8722 28.8027 13.1299C28.3219 13.4268 28.1221 14.0513 28.3396 14.5731Z" fill="#020288"/>
<path d="M34.1188 14.5729C34.3042 15.0175 34.7566 15.3132 35.2398 15.2964C35.7224 15.2797 36.1549 14.9583 36.3102 14.5016C36.4672 14.0398 36.3137 13.5089 35.9295 13.2071C35.5437 12.9042 35.0007 12.8711 34.5827 13.1298C34.1018 13.4272 33.9011 14.0506 34.1188 14.5729Z" fill="#020288"/>
<path d="M40.7522 15.2736C41.2241 15.3686 41.7238 15.1536 41.9762 14.7431C42.2371 14.319 42.2019 13.7676 41.8874 13.3811C41.5784 13.0013 41.0466 12.8585 40.5871 13.0221C40.1394 13.1813 39.8254 13.6115 39.8106 14.0867C39.7929 14.6547 40.1976 15.1592 40.7522 15.2736Z" fill="#020288"/>
<path d="M57.5383 28.1884H42.8588C41.5008 28.1884 40.396 29.2932 40.396 30.6512V42.4856C40.396 43.8431 41.5005 44.9475 42.858 44.9475H44.2047L45.158 46.1023C45.3697 46.3587 45.6803 46.5132 46.0124 46.5271C46.029 46.5278 46.0454 46.5282 46.0619 46.5282C46.3765 46.5282 46.6788 46.4015 46.8995 46.1756L48.1006 44.9475H57.5375C58.8954 44.9475 60.0003 43.8427 60.0003 42.4848V30.6503C60.0003 29.2928 58.8958 28.1884 57.5383 28.1884ZM57.6565 42.4848C57.6565 42.5504 57.6031 42.6037 57.5375 42.6037H47.6075C47.2921 42.6037 46.99 42.7309 46.7697 42.9563L46.1355 43.6048L45.6606 43.0296C45.4381 42.7599 45.1066 42.6037 44.7569 42.6037H42.858C42.7927 42.6037 42.7397 42.5507 42.7397 42.4856V30.6512C42.7397 30.5855 42.7932 30.5321 42.8588 30.5321H57.5384C57.6037 30.5321 57.6566 30.5851 57.6566 30.6503V42.4848H57.6565Z" fill="#020288"/>
<path d="M35.1777 41.5368C32.0502 38.4095 26.9617 38.4095 23.8342 41.5368L23.742 41.629L16.627 34.5141L16.7193 34.4218C19.8466 31.2943 19.8466 26.2059 16.7193 23.0784L14.4368 20.7959C13.0059 19.3651 11.1036 18.577 9.08016 18.577C7.05656 18.577 5.15426 19.3651 3.7234 20.7959L2.30941 22.2098C0.820195 23.6993 0 25.6793 0 27.7854C0 29.8915 0.820195 31.8715 2.30941 33.3608L24.8951 55.9466C26.4322 57.4836 28.4514 58.2523 30.4705 58.2523C32.4895 58.2523 34.5088 57.4836 36.0459 55.9466L37.4599 54.5326C38.8907 53.1018 39.6787 51.1995 39.6787 49.176C39.6787 47.1524 38.8907 45.2501 37.4599 43.8192L35.1777 41.5368ZM35.8028 52.8752L34.3888 54.2892C33.3084 55.3696 31.8898 55.9097 30.4706 55.9095C29.0518 55.9093 27.6326 55.3693 26.5525 54.2892L3.9668 31.7034C1.80621 29.543 1.80621 26.0276 3.9668 23.8672L5.38078 22.4532C6.36891 21.465 7.68269 20.9209 9.08016 20.9209C10.4776 20.9209 11.7914 21.4651 12.7794 22.4532L15.0619 24.7358C16.1341 25.808 16.7246 27.2337 16.7246 28.7502C16.7246 30.2667 16.1341 31.6923 15.0619 32.7646L14.141 33.6854C13.6834 34.143 13.6834 34.8851 14.141 35.3428L22.9132 44.115C23.3709 44.5725 24.1127 44.5725 24.5706 44.115L25.4914 43.1941C27.7049 40.9806 31.3066 40.9805 33.5203 43.1941L35.8028 45.4767C37.8427 47.5164 37.8427 50.8355 35.8028 52.8752Z" fill="#020288"/>
</g>
<defs>
<clipPath id="clip0_166_2106">
<rect width="60" height="60" fill="white"/>
</clipPath>
</defs>
</svg>
