<svg width="60" height="60" viewBox="0 0 60 60" fill="none" xmlns="http://www.w3.org/2000/svg">
<g clip-path="url(#clip0_166_2116)">
<path d="M50.3933 16.6235C49.7462 16.6235 49.2214 17.1481 49.2214 17.7953V50.3386C49.2214 51.2267 48.499 51.949 47.611 51.949H29.4016C29.0909 51.949 28.7928 52.0726 28.573 52.2923L25.7827 55.0826L22.9924 52.2924C22.7726 52.0727 22.4746 51.9492 22.1638 51.9492H3.95414C3.06621 51.9492 2.34375 51.2267 2.34375 50.3388V17.7953C2.34375 16.9073 3.06621 16.1849 3.95414 16.1849H35.1737C35.8208 16.1849 36.3456 15.6603 36.3456 15.0131C36.3456 14.3658 35.8208 13.8412 35.1737 13.8412H3.95414C1.77387 13.8412 0 15.6151 0 17.7953V50.3386C0 52.5189 1.77387 54.2928 3.95414 54.2928H21.6783L24.9539 57.5684C25.1737 57.7881 25.4718 57.9117 25.7825 57.9117C26.0933 57.9117 26.3913 57.7881 26.6112 57.5684L29.8868 54.2927H47.6109C49.7912 54.2927 51.5651 52.5188 51.5651 50.3385V17.7953C51.5652 17.1481 51.0405 16.6235 50.3933 16.6235Z" fill="#020288"/>
<path d="M34.8782 45.7417H16.6868C16.0397 45.7417 15.5149 46.2663 15.5149 46.9136C15.5149 47.5608 16.0397 48.0854 16.6868 48.0854H34.8782C35.5253 48.0854 36.0501 47.5608 36.0501 46.9136C36.0501 46.2663 35.5253 45.7417 34.8782 45.7417Z" fill="#020288"/>
<path d="M25.5731 23.2296C20.9852 23.3376 17.2331 27.0613 17.0926 31.6484C16.9807 35.3002 19.1216 38.4655 22.2297 39.8589C23.7435 40.5375 24.9969 41.6875 25.743 43.1691L25.7826 43.2477L25.8226 43.1684C26.5632 41.6977 27.7983 40.5407 29.3036 39.8731C32.3511 38.5217 34.4769 35.4698 34.4769 31.9213C34.4769 27.0501 30.4706 23.1144 25.5731 23.2296ZM25.7826 35.6015C23.7501 35.6015 22.1024 33.9538 22.1024 31.9213C22.1024 29.8888 23.7501 28.2412 25.7826 28.2412C27.8151 28.2412 29.4626 29.8888 29.4626 31.9213C29.4626 33.9538 27.815 35.6015 25.7826 35.6015Z" fill="#E2C4FF"/>
<path d="M57.6936 2.08826H33.8105C32.5376 2.08826 31.5056 3.12021 31.5056 4.3931V20.4637C31.5056 21.7374 32.5382 22.77 33.8119 22.77H49.2095L52.0676 25.5943L54.3023 22.77H57.695C58.9679 22.77 59.9999 21.738 59.9999 20.4651V4.39451C59.9999 3.1208 58.9673 2.08826 57.6936 2.08826Z" fill="#E2C4FF"/>
<path d="M39.9728 13.8809C39.476 13.8809 39.0241 13.5545 38.8643 13.0853C38.7045 12.6165 38.8659 12.0804 39.2596 11.779C39.6382 11.4892 40.1657 11.4612 40.5751 11.7039C40.9951 11.9531 41.2187 12.4591 41.1226 12.9376C41.0139 13.4783 40.5248 13.8809 39.9728 13.8809Z" fill="#020288"/>
<path d="M45.7524 13.8809C45.249 13.8809 44.7917 13.5453 44.638 13.0671C44.4908 12.6094 44.6456 12.0886 45.0246 11.7909C45.4206 11.4798 45.9838 11.4536 46.404 11.734C46.8054 12.0019 47.0038 12.5055 46.8938 12.9749C46.7712 13.4985 46.2906 13.8809 45.7524 13.8809Z" fill="#020288"/>
<path d="M51.5336 13.8809C51.0441 13.8809 50.5954 13.5632 50.4303 13.1032C50.2677 12.6504 50.4065 12.1253 50.7755 11.815C51.1609 11.4908 51.7231 11.4471 52.152 11.7134C52.5612 11.9674 52.7772 12.4651 52.682 12.9375C52.5732 13.478 52.0863 13.8809 51.5336 13.8809Z" fill="#020288"/>
</g>
<defs>
<clipPath id="clip0_166_2116">
<rect width="60" height="60" fill="white"/>
</clipPath>
</defs>
</svg>
