<svg width="50" height="50" viewBox="0 0 50 50" fill="none" xmlns="http://www.w3.org/2000/svg">
<g clip-path="url(#clip0_166_2153)">
<path d="M32.4524 32.8075L30.633 34.6682L29.0972 32.8075H26.8619C26.0232 32.8075 25.3435 32.1276 25.3435 31.2891V17.3592C25.3435 16.52 26.0237 15.8397 26.8629 15.8397H33.9976V12.061H8.63623V37.9388H33.9975V32.8074H32.4524V32.8075Z" fill="#B2F0FB"/>
<path d="M44.1418 14.8632H39.271V9.58867C39.271 8.04414 38.0145 6.7876 36.4699 6.7876H33.5798L30.5676 0.551758C30.4046 0.214355 30.0629 0 29.6882 0H12.9455C12.5708 0 12.2291 0.214355 12.0661 0.551758L9.054 6.78769H6.16387C4.61943 6.78769 3.36279 8.04424 3.36279 9.58877V40.4113C3.36279 41.9559 4.61934 43.2124 6.16387 43.2124H9.054L12.0662 49.4482C12.2292 49.7856 12.5709 50 12.9456 50H29.6882C30.0629 50 30.4046 49.7856 30.5676 49.4482L33.5799 43.2124H36.47C38.0145 43.2124 39.2711 41.9559 39.2711 40.4113V33.7842H44.1409C45.5172 33.7842 46.6369 32.6646 46.6369 31.2882V17.3583C46.6368 15.9825 45.5176 14.8632 44.1418 14.8632ZM13.5584 1.95312H29.0754L31.4107 6.78769H11.223L13.5584 1.95312ZM29.0753 48.0469H13.5584L11.223 43.2123H31.4107L29.0753 48.0469ZM37.3179 40.4113C37.3179 40.8789 36.9375 41.2593 36.4699 41.2593H6.16387C5.69629 41.2593 5.31592 40.8789 5.31592 40.4113V9.58867C5.31592 9.12109 5.69629 8.74072 6.16387 8.74072H36.4699C36.9375 8.74072 37.3179 9.12109 37.3179 9.58867V14.8632H26.8629C25.4865 14.8632 24.3668 15.9829 24.3668 17.3592V31.2891C24.3668 32.6648 25.4861 33.7841 26.8619 33.7841H28.6369L29.8799 35.2898C30.0562 35.5035 30.315 35.6322 30.5919 35.6438C30.6057 35.6444 30.6193 35.6447 30.6331 35.6447C30.8953 35.6447 31.1472 35.5392 31.3313 35.3509L32.8633 33.784H37.3178V40.4113H37.3179ZM44.6837 31.2882C44.6837 31.5875 44.4402 31.8311 44.1408 31.8311H32.4523C32.1896 31.8311 31.9378 31.9369 31.7541 32.1249L30.6943 33.2087L29.8502 32.186C29.6647 31.9613 29.3885 31.8312 29.0971 31.8312H26.8618C26.5629 31.8312 26.3198 31.5881 26.3198 31.2893V17.3592C26.3198 17.0599 26.5634 16.8163 26.8628 16.8163H44.1417C44.4405 16.8163 44.6836 17.0594 44.6836 17.3582V31.2882H44.6837Z" fill="#020288"/>
<path d="M31.587 24.2363C31.4293 23.8516 31.0297 23.606 30.6154 23.636C30.2106 23.6653 29.8583 23.9515 29.7467 24.3416C29.6347 24.733 29.7848 25.1668 30.1171 25.4029C30.4462 25.6367 30.8909 25.6434 31.2275 25.421C31.6106 25.1677 31.7633 24.6594 31.587 24.2363Z" fill="#020288"/>
<path d="M36.4031 24.2363C36.2457 23.8521 35.8465 23.6059 35.4323 23.636C35.0197 23.6659 34.6683 23.9593 34.5586 24.3569C34.4523 24.7427 34.6077 25.1717 34.9332 25.4029C35.2641 25.6379 35.7138 25.6443 36.0501 25.417C36.429 25.1606 36.5788 24.6581 36.4031 24.2363Z" fill="#020288"/>
<path d="M41.2208 24.2363C41.0634 23.8522 40.6628 23.6061 40.2493 23.636C39.838 23.6657 39.4835 23.9589 39.3761 24.3569C39.2744 24.7336 39.414 25.147 39.7245 25.3839C40.0635 25.6424 40.54 25.6507 40.887 25.4029C41.2519 25.1422 41.3934 24.6504 41.2208 24.2363Z" fill="#020288"/>
</g>
<defs>
<clipPath id="clip0_166_2153">
<rect width="50" height="50" fill="white"/>
</clipPath>
</defs>
</svg>
