<svg width="50" height="50" viewBox="0 0 50 50" fill="none" xmlns="http://www.w3.org/2000/svg">
<g clip-path="url(#clip0_11:129)">
<path fill-rule="evenodd" clip-rule="evenodd" d="M4.88293 11.8949V37.2855H45.1173V11.8949H37.3178C37.3152 14.0439 35.5562 15.8012 33.4066 15.8012H15.5023C13.5363 15.843 12.1049 13.6844 12.9013 11.8949H4.88293Z" fill="#E2C4FF"/>
<path d="M47.0703 7.01214H34.6421C33.6431 -0.951619 22.7581 -2.63863 19.4104 4.69085C17.8023 4.872 16.4018 5.74876 15.5176 7.01214H2.92968C1.31426 7.01214 0 8.32639 0 9.94182V39.2387C0 40.8542 1.31426 42.1684 2.92968 42.1684H19.9615L18.3915 48.0281H17.1876C15.8981 48.0738 15.8898 49.932 17.1876 49.9812H32.8124C34.102 49.9354 34.1102 48.0773 32.8124 48.0281H31.6086L30.0386 42.1684H47.0704C48.6858 42.1684 50.0001 40.8542 50.0001 39.2387V9.94182C50 8.32639 48.6857 7.01214 47.0703 7.01214ZM20.0311 6.60921C20.4614 6.63098 20.8603 6.36721 21.0036 5.9596C23.3399 -0.37037 32.6522 1.21654 32.747 7.97395C32.7369 8.4887 33.1312 8.92414 33.6444 8.96526C35.1565 9.08811 36.3409 10.3729 36.3409 11.8901C36.3409 13.5082 35.0244 14.8247 33.4063 14.8247H15.5023C13.0641 14.7333 13.0571 11.2321 15.5023 11.138C16.0417 11.138 16.4789 10.7007 16.4789 10.1614C16.4789 8.20266 18.0724 6.60921 20.0311 6.60921ZM25 28.4965C25.8078 28.4965 26.4649 29.1536 26.4649 29.9613C26.3913 31.9019 23.6085 31.9014 23.5352 29.9613C23.5352 29.1535 24.1923 28.4965 25 28.4965ZM2.92968 8.96526H14.6566C14.6325 9.07395 14.6115 9.18381 14.5938 9.29475C10.3005 10.4438 11.0129 16.6725 15.5023 16.7778C15.5022 16.7778 19.1406 16.7778 19.1406 16.7778V20.4057L16.8154 22.0467C14.6695 20.0477 11.078 21.6009 11.088 24.5641C11.088 26.4487 12.6213 27.982 14.5059 27.982C16.6972 28.013 18.3819 25.8398 17.8204 23.7279L20.6802 21.7095C20.9395 21.5265 21.0937 21.2289 21.0937 20.9116V16.7777H24.0234V26.6854C20.3025 27.8647 21.0509 33.2956 25 33.3793C28.9496 33.2952 29.6967 27.864 25.9765 26.6854V16.7778H28.9062V20.9117C28.9062 21.229 29.0604 21.5266 29.3197 21.7096L32.1795 23.728C31.6184 25.8399 33.3024 28.0131 35.494 27.982C37.3786 27.982 38.9119 26.4488 38.9119 24.5641C38.9215 21.6008 35.3304 20.0477 33.1845 22.0467L30.8593 20.4057V16.7778H33.4064C37.393 16.8138 39.735 12.1028 37.3111 8.96526H47.0703C47.6088 8.96526 48.0469 9.40334 48.0469 9.94182V36.3091H1.95312V9.94182C1.95312 9.40334 2.39121 8.96526 2.92968 8.96526ZM15.9709 24.5641C15.9709 25.3719 15.3137 26.0289 14.506 26.0289C12.5653 25.9553 12.566 23.1726 14.506 23.0993C15.3136 23.0993 15.9709 23.7564 15.9709 24.5641ZM35.4941 23.0993C36.3018 23.0993 36.9589 23.7564 36.9589 24.5641C36.8853 26.5047 34.1026 26.5041 34.0292 24.5641C34.0292 23.7564 34.6864 23.0993 35.4941 23.0993ZM29.5867 48.0281H20.4134L21.9834 42.1684H28.0166L29.5867 48.0281ZM47.0703 40.2153H2.92968C2.39121 40.2153 1.95312 39.7772 1.95312 39.2387V38.2622H48.0469V39.2387C48.0469 39.7771 47.6089 40.2153 47.0703 40.2153Z" fill="#020288"/>
</g>
<defs>
<clipPath id="clip0_11:129">
<rect width="50" height="50" fill="white"/>
</clipPath>
</defs>
</svg>
