<svg width="50" height="50" viewBox="0 0 50 50" fill="none" xmlns="http://www.w3.org/2000/svg">
<path d="M27.0275 12.9592C26.844 12.7039 26.5489 12.5526 26.2346 12.5526H23.7655C23.4512 12.5526 23.156 12.7039 22.9725 12.9592L12.6513 27.3183C11.6413 28.7234 11.6472 30.6071 12.6657 32.0059L18.6139 40.1741H18.3216C17.7822 40.1741 17.345 40.6113 17.345 41.1507C17.345 41.6901 17.7822 42.1273 18.3216 42.1273H18.8706L17.0397 47.0982C16.9294 47.3978 16.9725 47.7324 17.1551 47.9943C17.3377 48.2561 17.6368 48.4122 17.9561 48.4122H32.044C32.3634 48.4122 32.6625 48.2562 32.8451 47.9943C33.0277 47.7323 33.0708 47.3978 32.9604 47.0982L31.1296 42.1273H31.6786C32.218 42.1273 32.6552 41.6901 32.6552 41.1507C32.6552 40.6113 32.218 40.1741 31.6786 40.1741H31.3863L37.3344 32.0059C38.353 30.6071 38.3589 28.7234 37.3489 27.3183L27.0275 12.9592ZM19.3564 46.4591L20.9518 42.1273H29.048L30.6434 46.4591H19.3564ZM35.7554 30.8562L28.97 40.1741H21.0299L14.2445 30.8562C13.7235 30.1406 13.7205 29.1771 14.2371 28.4582L24.2661 14.5057H25.7337L35.7627 28.4582C36.2795 29.177 36.2765 30.1406 35.7554 30.8562Z" fill="#020288"/>
<path d="M22.2085 5.76466C22.7422 5.68702 23.1119 5.19142 23.0344 4.65773C23.0091 4.4839 22.9394 4.32745 22.8385 4.19816C22.6929 3.84181 22.3429 3.59064 21.9342 3.59064H5.07744C4.53809 3.59064 4.10088 4.02784 4.10088 4.5672C4.10088 5.10656 4.53809 5.54376 5.07744 5.54376H16.1534C13.4315 6.79679 10.9781 8.62609 8.97519 10.9319C5.65723 14.7517 3.80439 19.6318 3.7416 24.7008C2.12939 25.1332 0.938477 26.6117 0.938477 28.3641C0.938477 30.4546 2.6332 32.1554 4.7165 32.1554C6.7998 32.1554 8.49453 30.4546 8.49453 28.3641C8.49453 26.613 7.30547 25.1354 5.69502 24.7017C5.82461 15.2376 12.8802 7.12169 22.2085 5.76466ZM6.54131 28.3641C6.54131 29.3776 5.72266 30.2023 4.71641 30.2023C3.71016 30.2023 2.8915 29.3776 2.8915 28.3641C2.8915 27.3505 3.71016 26.5259 4.71641 26.5259C5.72266 26.5259 6.54131 27.3505 6.54131 28.3641Z" fill="#020288"/>
<path d="M46.2584 24.7008C46.1958 19.6506 44.355 14.7843 41.0587 10.9709C39.0504 8.64757 36.5841 6.80421 33.8462 5.54376H44.9226C45.4619 5.54376 45.8991 5.10656 45.8991 4.5672C45.8991 4.02784 45.4619 3.59064 44.9226 3.59064H28.123C27.6546 3.59064 27.2633 3.92042 27.1684 4.36046C27.1193 4.45411 27.0848 4.55743 27.0681 4.66779C26.9877 5.20109 27.3549 5.69864 27.8882 5.77892C37.1614 7.17638 44.1754 15.2858 44.305 24.7017C42.6945 25.1354 41.5055 26.6129 41.5055 28.3641C41.5055 30.4546 43.2002 32.1554 45.2835 32.1554C47.3668 32.1554 49.0615 30.4546 49.0615 28.3641C49.0615 26.6117 47.8706 25.1332 46.2584 24.7008ZM45.2835 30.2023C44.2772 30.2023 43.4586 29.3776 43.4586 28.3641C43.4586 27.3505 44.2772 26.5259 45.2835 26.5259C46.2897 26.5259 47.1084 27.3505 47.1084 28.3641C47.1084 29.3776 46.2897 30.2023 45.2835 30.2023Z" fill="#020288"/>
<path d="M5.93047 7.54651H4.29153e-06V1.58782H5.93047V7.54651Z" fill="#B2F0FB"/>
<path d="M50 7.54651H44.0695V1.58782H50V7.54651Z" fill="#B2F0FB"/>
<path d="M27.9652 7.54651H22.0348V1.58782H27.9652V7.54651Z" fill="#B2F0FB"/>
<path d="M25 32.2811C26.9255 32.2811 28.4864 30.7128 28.4864 28.7781C28.4864 26.8434 26.9255 25.2751 25 25.2751C23.0745 25.2751 21.5136 26.8434 21.5136 28.7781C21.5136 30.7128 23.0745 32.2811 25 32.2811Z" fill="#B2F0FB"/>
</svg>
