<svg width="50" height="50" viewBox="0 0 50 50" fill="none" xmlns="http://www.w3.org/2000/svg">
<g clip-path="url(#clip0_11:142)">
<path d="M38.3224 34.9547C39.2067 33.0672 39.7009 30.9608 39.7009 28.7393C39.7009 20.6308 33.119 14.0575 25 14.0575V28.7393L38.3224 34.9547Z" fill="#B2F0FB"/>
<path d="M42.4869 16.6054L44.3264 14.6382L44.5492 14.8447C44.7372 15.0189 44.9753 15.1051 45.213 15.1051C45.4753 15.1051 45.7368 15.0001 45.9293 14.7925C46.296 14.397 46.2726 13.7792 45.8771 13.4125L39.8639 7.83698C39.4685 7.47048 38.8508 7.49352 38.4839 7.88913C38.1172 8.28464 38.1405 8.90251 38.536 9.26921L38.6185 9.34577L36.946 11.1345C34.4317 9.42497 31.592 8.28376 28.5877 7.77741C29.2936 6.953 29.7207 5.88327 29.7207 4.71579C29.7207 2.1155 27.6029 -3.05176e-05 25 -3.05176e-05C22.397 -3.05176e-05 20.2793 2.1155 20.2793 4.71579C20.2793 5.88327 20.7062 6.9529 21.4123 7.77741C18.408 8.28376 15.5682 9.42497 13.054 11.1345L11.3814 9.34577L11.4639 9.26921C11.8594 8.90251 11.8828 8.28464 11.5161 7.88913C11.1493 7.49343 10.5312 7.47038 10.136 7.83698L4.12283 13.4125C3.72732 13.7792 3.70398 14.397 4.07068 14.7925C4.26316 15.0002 4.52468 15.1051 4.78699 15.1051C5.02459 15.1051 5.26287 15.0189 5.45076 14.8447L5.67351 14.6382L7.51306 16.6054C5.04285 20.1406 3.71277 24.3378 3.71277 28.7392C3.71277 34.4184 5.92722 39.7576 9.94812 43.7732C13.9686 47.7885 19.3141 50 25 50C30.6858 50 36.0313 47.7885 40.0519 43.7732C44.0728 39.7576 46.2873 34.4184 46.2873 28.7392C46.2872 24.3378 44.9571 20.1406 42.4869 16.6054ZM43.5445 29.7158H44.3095C44.0795 34.3053 42.2371 38.4777 39.338 41.6785L38.803 41.1442C38.4215 40.7631 37.8032 40.7633 37.4219 41.1451C37.0408 41.5266 37.0412 42.145 37.4228 42.5261L37.9559 43.0586C34.7507 45.9536 30.5723 47.7931 25.9764 48.0225V47.2596C25.9764 46.7204 25.5391 46.2831 24.9999 46.2831C24.4606 46.2831 24.0233 46.7204 24.0233 47.2596V48.0225C19.4274 47.7931 15.2491 45.9535 12.0438 43.0586L12.5769 42.5261C12.9586 42.1451 12.959 41.5267 12.5778 41.1451C12.1968 40.7633 11.5785 40.7631 11.1968 41.1442L10.6618 41.6785C7.76267 38.4778 5.92029 34.3053 5.69021 29.7158H6.45525C6.99451 29.7158 7.43181 29.2785 7.43181 28.7392C7.43181 28.2 6.99451 27.7627 6.45525 27.7627H5.69021C5.92029 23.1731 7.76267 19.0008 10.6618 15.8L11.1968 16.3342C11.3874 16.5247 11.6371 16.6199 11.8868 16.6199C12.137 16.6199 12.387 16.5244 12.5777 16.3334C12.9589 15.9518 12.9585 15.3335 12.5768 14.9523L12.0437 14.4199C15.2492 11.525 19.4275 9.68542 24.0234 9.45602V10.2189C24.0234 10.7582 24.4607 11.1955 25 11.1955C25.5392 11.1955 25.9765 10.7582 25.9765 10.2189V9.45602C30.5724 9.68542 34.7508 11.5251 37.956 14.42L37.4229 14.9524C37.0413 15.3335 37.0409 15.9518 37.422 16.3335C37.6128 16.5245 37.8629 16.62 38.113 16.62C38.3627 16.62 38.6124 16.5248 38.803 16.3343L39.338 15.8001C42.2372 19.0008 44.0795 23.1732 44.3095 27.7628H43.5445C43.0052 27.7628 42.5679 28.2001 42.5679 28.7393C42.5679 29.2786 43.0052 29.7158 43.5445 29.7158ZM40.0456 10.6793L42.8813 13.3239L41.2791 15.0374C40.891 14.579 40.4818 14.1345 40.0519 13.7051C39.5599 13.2137 39.048 12.7495 38.5181 12.3129L40.0456 10.6793ZM22.2324 4.71579C22.2324 3.19235 23.4739 1.95309 25 1.95309C26.5261 1.95309 27.7676 3.19235 27.7676 4.71579C27.7676 6.23923 26.5261 7.47849 25 7.47849C23.4739 7.47849 22.2324 6.23923 22.2324 4.71579ZM7.11863 13.324L9.95437 10.6794L11.4819 12.3131C10.952 12.7497 10.4401 13.2139 9.94812 13.7053C9.51824 14.1346 9.10896 14.5792 8.72087 15.0376L7.11863 13.324Z" fill="#020288"/>
<path d="M38.7352 34.0696L25.9765 28.1173V14.0575C25.9765 13.5183 25.5392 13.081 25 13.081C16.3553 13.081 9.32251 20.1053 9.32251 28.7393C9.32251 37.3732 16.3553 44.3976 25 44.3976C28.0383 44.3976 30.986 43.528 33.524 41.8829C35.9956 40.2809 37.9606 38.0283 39.2067 35.369C39.3166 35.1343 39.3288 34.8653 39.2404 34.6217C39.152 34.3778 38.9703 34.1793 38.7352 34.0696ZM25 42.4444C17.4324 42.4444 11.2756 36.2963 11.2756 28.7393C11.2756 21.5102 16.9098 15.5703 24.0234 15.0685V28.7393C24.0234 29.1188 24.2432 29.4639 24.5871 29.6242L36.9911 35.4111C34.5829 39.7137 29.978 42.4444 25 42.4444Z" fill="#020288"/>
</g>
<defs>
<clipPath id="clip0_11:142">
<rect width="50" height="50" fill="white"/>
</clipPath>
</defs>
</svg>
