<svg width="50" height="50" viewBox="0 0 50 50" fill="none" xmlns="http://www.w3.org/2000/svg">
<g clip-path="url(#clip0_11:133)">
<path d="M38.0652 14.5437C37.7926 14.5437 37.5273 14.5758 37.273 14.6364L36.2352 12.8388C36.0608 12.5367 35.7383 12.3505 35.3895 12.3505H27.8376C26.5457 12.3974 26.542 14.2552 27.8376 14.3036H34.8256L35.5826 15.6148C33.5358 17.7488 35.077 21.3883 38.0653 21.3796C42.5931 21.2078 42.5922 14.7149 38.0652 14.5437ZM38.0652 19.4264C37.2575 19.4264 36.6004 18.7693 36.6004 17.9616C36.6739 16.021 39.4568 16.0215 39.5301 17.9616C39.5301 18.7693 38.8729 19.4264 38.0652 19.4264Z" fill="#020288"/>
<path d="M45.6571 1.4847e-05C42.668 -0.00848118 41.1279 3.63133 43.1745 5.76472L42.4175 7.07603H28.9841C28.4448 7.07603 28.0075 7.51333 28.0075 8.05259C28.0075 8.59184 28.4448 9.02914 28.9841 9.02914H42.9812C43.3302 9.02914 43.6525 8.84301 43.8269 8.54086L44.8648 6.74303C46.9684 7.27076 49.104 5.59226 49.0749 3.41786C49.075 1.5333 47.5417 1.4847e-05 45.6571 1.4847e-05ZM45.6571 4.88269C44.8494 4.88269 44.1923 4.22557 44.1923 3.41796C44.2659 1.47735 47.0486 1.47784 47.1219 3.41796C47.1219 4.22567 46.4648 4.88269 45.6571 4.88269Z" fill="#020288"/>
<path d="M4.3203 6.8358C4.59295 6.8358 4.85818 6.80367 5.11248 6.74313L6.15036 8.54087C6.32477 8.84301 6.64714 9.02914 6.99606 9.02914H14.0597C15.3517 8.98217 15.3551 7.12437 14.0597 7.07603H7.55992L6.8029 5.76481C8.84985 3.63085 7.30865 -0.0087731 4.3203 1.58885e-05C-0.207498 0.171792 -0.206717 6.66471 4.3203 6.8358ZM4.3203 1.95313C5.12801 1.95313 5.78513 2.61025 5.78513 3.41796C5.7115 5.35847 2.92881 5.35798 2.85547 3.41796C2.85556 2.61035 3.51259 1.95313 4.3203 1.95313Z" fill="#020288"/>
<path d="M14.5239 12.3506H7.46033C7.11141 12.3506 6.78905 12.5367 6.61463 12.8389L5.57675 14.6365C3.47335 14.1089 1.33743 15.7873 1.36663 17.9618C1.36663 19.8464 2.89982 21.3797 4.78447 21.3797C7.77293 21.3883 9.31403 17.7486 7.26707 15.6149L8.0241 14.3038H14.5239C15.0632 14.3038 15.5004 13.8665 15.5004 13.3272C15.5004 12.788 15.0633 12.3506 14.5239 12.3506ZM4.78457 19.4265C3.97686 19.4265 3.31974 18.7694 3.31974 17.9617C3.39337 16.0211 6.17606 16.0215 6.2494 17.9617C6.2494 18.7694 5.59228 19.4265 4.78457 19.4265Z" fill="#020288"/>
<path fill-rule="evenodd" clip-rule="evenodd" d="M12.6925 9.76556C12.6925 13.7464 15.3589 17.1856 19.1199 18.2318V9.76556C19.1199 8.46654 20.1827 7.40405 21.4815 7.40405C22.7804 7.40405 23.843 8.46664 23.8431 9.76556V18.2326C33.5638 15.3353 31.711 1.18564 21.4814 0.976562C16.6275 0.976562 12.6925 4.91159 12.6925 9.76556Z" fill="#E2C4FF"/>
<path d="M38.9889 27.5557C39.0142 24.8986 35.9297 23.2854 33.7707 24.7985C32.8069 23.1807 30.5419 22.7127 29.0299 23.8011C28.1832 22.4076 26.2867 21.837 24.8197 22.5394V9.76565C24.8197 7.92494 23.3222 6.42749 21.4816 6.42749C19.6409 6.42749 18.1434 7.92494 18.1434 9.76565L18.1435 32.9153L16.2354 31.9518L15.8337 28.5002C15.4551 24.1036 9.32825 24.2621 9.16125 28.5901V34.9376C9.16125 36.4495 9.72141 37.5859 10.9776 38.6221C11.0508 38.7008 18.0668 43.5488 18.1433 43.6178V49.0235C18.1336 49.548 18.5948 50.0105 19.1199 50H38.0124C38.2714 50 38.5197 49.8971 38.7029 49.714C38.886 49.5308 38.989 49.2825 38.989 49.0235C38.989 49.0234 38.9889 27.5557 38.9889 27.5557ZM20.0965 48.0468V43.108C20.0965 42.7886 19.9403 42.4892 19.6782 42.3067L12.1911 37.091C11.4169 36.4438 11.1145 35.837 11.1145 34.9376V28.5901C11.2191 26.7451 13.7496 26.7379 13.8865 28.6534C13.8876 28.67 13.8891 28.6866 13.891 28.7031L14.3562 32.6997C14.3942 33.0255 14.5932 33.3106 14.8861 33.4585L18.6799 35.3743C19.3 35.7097 20.1177 35.2086 20.0966 34.5025L20.0965 9.76585C20.0965 9.00218 20.7178 8.3808 21.4816 8.3808C22.2452 8.3808 22.8666 9.00208 22.8666 9.76585V25.5769C22.9139 26.8706 24.7724 26.8705 24.8197 25.5769C24.8096 24.3648 26.3302 23.7234 27.182 24.6C27.445 24.863 27.5898 25.21 27.5898 25.5769L27.5897 26.5461C27.5897 27.0854 28.0269 27.5227 28.5663 27.5227C29.1055 27.5227 29.5427 27.0854 29.5428 26.5462C29.5427 25.7824 30.1641 25.161 30.9279 25.161C31.666 25.1451 32.329 25.8079 32.3129 26.546L32.3128 27.556C32.3128 28.0952 32.75 28.5325 33.2894 28.5325C33.8287 28.5325 34.266 28.0953 34.2659 27.556C34.3349 25.7218 36.9666 25.7211 37.0358 27.556L37.036 48.0471H20.0965V48.0468Z" fill="#020288"/>
</g>
<defs>
<clipPath id="clip0_11:133">
<rect width="50" height="50" fill="white"/>
</clipPath>
</defs>
</svg>
