<svg width="25" height="25" viewBox="0 0 25 25" fill="none" xmlns="http://www.w3.org/2000/svg">
<path d="M12.5001 0C7.90518 0 4.16675 3.73843 4.16675 8.33335C4.16675 9.71274 4.51162 11.0804 5.16724 12.2935L12.0444 24.7314C12.1359 24.8973 12.3104 25 12.5001 25C12.6898 25 12.8643 24.8973 12.9558 24.7314L19.8355 12.2894C20.4886 11.0804 20.8334 9.7127 20.8334 8.3333C20.8334 3.73843 17.095 0 12.5001 0ZM12.5001 12.5C10.2026 12.5 8.33345 10.6308 8.33345 8.33335C8.33345 6.03589 10.2026 4.1667 12.5001 4.1667C14.7976 4.1667 16.6667 6.03589 16.6667 8.33335C16.6667 10.6308 14.7976 12.5 12.5001 12.5Z" fill="#A3A3A3"/>
</svg>
