<svg width="50" height="51" viewBox="0 0 50 51" fill="none" xmlns="http://www.w3.org/2000/svg">
<g clip-path="url(#clip0_153_5021)">
<path fill-rule="evenodd" clip-rule="evenodd" d="M4.88281 11.995V37.3856H45.1172V11.995H37.3177C37.315 14.1439 35.5561 15.9012 33.4064 15.9012H15.5021C13.5361 15.943 12.1048 13.7844 12.9012 11.995H4.88281Z" fill="#E2C4FF"/>
<path d="M47.0703 7.11217H34.6421C33.6431 -0.851582 22.7581 -2.53859 19.4104 4.79089C17.8023 4.97204 16.4018 5.8488 15.5176 7.11217H2.92968C1.31426 7.11217 0 8.42643 0 10.0419V39.3388C0 40.9542 1.31426 42.2685 2.92968 42.2685H19.9615L18.3915 48.1281H17.1876C15.8981 48.1738 15.8898 50.032 17.1876 50.0812H32.8124C34.102 50.0354 34.1102 48.1773 32.8124 48.1281H31.6086L30.0386 42.2685H47.0704C48.6858 42.2685 50.0001 40.9542 50.0001 39.3388V10.0419C50 8.42643 48.6857 7.11217 47.0703 7.11217ZM20.0311 6.70924C20.4614 6.73102 20.8603 6.46725 21.0036 6.05964C23.3399 -0.270333 32.6522 1.31658 32.747 8.07399C32.7369 8.58873 33.1312 9.02418 33.6444 9.06529C35.1565 9.18814 36.3409 10.4729 36.3409 11.9901C36.3409 13.6083 35.0244 14.9248 33.4063 14.9248H15.5023C13.0641 14.8333 13.0571 11.3322 15.5023 11.238C16.0417 11.238 16.4789 10.8007 16.4789 10.2615C16.4789 8.3027 18.0724 6.70924 20.0311 6.70924ZM25 28.5965C25.8078 28.5965 26.4649 29.2536 26.4649 30.0613C26.3913 32.002 23.6085 32.0015 23.5352 30.0613C23.5352 29.2535 24.1923 28.5965 25 28.5965ZM2.92968 9.06529H14.6566C14.6325 9.17398 14.6115 9.28385 14.5938 9.39478C10.3005 10.5438 11.0129 16.7725 15.5023 16.8779C15.5022 16.8779 19.1406 16.8779 19.1406 16.8779V20.5057L16.8154 22.1467C14.6695 20.1477 11.078 21.7009 11.088 24.6642C11.088 26.5488 12.6213 28.0821 14.5059 28.0821C16.6972 28.113 18.3819 25.9399 17.8204 23.828L20.6802 21.8095C20.9395 21.6265 21.0937 21.3289 21.0937 21.0117V16.8778H24.0234V26.7855C20.3025 27.9648 21.0509 33.3956 25 33.4793C28.9496 33.3952 29.6967 27.9641 25.9765 26.7855V16.8779H28.9062V21.0118C28.9062 21.329 29.0604 21.6266 29.3197 21.8096L32.1795 23.8281C31.6184 25.94 33.3024 28.1131 35.494 28.0821C37.3786 28.0821 38.9119 26.5489 38.9119 24.6642C38.9215 21.7008 35.3304 20.1477 33.1845 22.1467L30.8593 20.5057V16.8779H33.4064C37.393 16.9138 39.735 12.2029 37.3111 9.06529H47.0703C47.6088 9.06529 48.0469 9.50338 48.0469 10.0419V36.4091H1.95312V10.0419C1.95312 9.50338 2.39121 9.06529 2.92968 9.06529ZM15.9709 24.6642C15.9709 25.4719 15.3137 26.1289 14.506 26.1289C12.5653 26.0553 12.566 23.2727 14.506 23.1993C15.3136 23.1993 15.9709 23.8565 15.9709 24.6642ZM35.4941 23.1993C36.3018 23.1993 36.9589 23.8565 36.9589 24.6642C36.8853 26.6047 34.1026 26.6041 34.0292 24.6642C34.0292 23.8565 34.6864 23.1993 35.4941 23.1993ZM29.5867 48.1281H20.4134L21.9834 42.2685H28.0166L29.5867 48.1281ZM47.0703 40.3153H2.92968C2.39121 40.3153 1.95312 39.8772 1.95312 39.3388V38.3622H48.0469V39.3388C48.0469 39.8771 47.6089 40.3153 47.0703 40.3153Z" fill="#020288"/>
</g>
<defs>
<clipPath id="clip0_153_5021">
<rect width="50" height="50" fill="white" transform="translate(0 0.0999756)"/>
</clipPath>
</defs>
</svg>
