<svg width="50" height="50" viewBox="0 0 50 50" fill="none" xmlns="http://www.w3.org/2000/svg">
<path d="M27.0277 12.9592C26.8442 12.7039 26.5491 12.5526 26.2347 12.5526H23.7657C23.4513 12.5526 23.1562 12.7039 22.9727 12.9592L12.6514 27.3183C11.6415 28.7234 11.6473 30.6071 12.6659 32.0059L18.614 40.1741H18.3217C17.7824 40.1741 17.3452 40.6113 17.3452 41.1507C17.3452 41.6901 17.7824 42.1273 18.3217 42.1273H18.8708L17.0399 47.0982C16.9296 47.3978 16.9726 47.7324 17.1552 47.9943C17.3379 48.2561 17.637 48.4122 17.9563 48.4122H32.0442C32.3635 48.4122 32.6627 48.2562 32.8453 47.9943C33.0279 47.7323 33.071 47.3978 32.9606 47.0982L31.1298 42.1273H31.6788C32.2181 42.1273 32.6553 41.6901 32.6553 41.1507C32.6553 40.6113 32.2181 40.1741 31.6788 40.1741H31.3865L37.3345 32.0059C38.3532 30.6071 38.3591 28.7234 37.3491 27.3183L27.0277 12.9592ZM19.3566 46.4591L20.952 42.1273H29.0482L30.6436 46.4591H19.3566ZM35.7555 30.8562L28.9702 40.1741H21.03L14.2447 30.8562C13.7237 30.1406 13.7207 29.1771 14.2373 28.4582L24.2663 14.5057H25.7339L35.7629 28.4582C36.2797 29.177 36.2766 30.1406 35.7555 30.8562Z" fill="#020288"/>
<path d="M22.2085 5.76466C22.7422 5.68702 23.1119 5.19142 23.0344 4.65773C23.0091 4.4839 22.9394 4.32745 22.8385 4.19816C22.6929 3.84181 22.3429 3.59064 21.9342 3.59064H5.07744C4.53809 3.59064 4.10088 4.02784 4.10088 4.5672C4.10088 5.10656 4.53809 5.54376 5.07744 5.54376H16.1534C13.4315 6.79679 10.9781 8.62609 8.97519 10.9319C5.65723 14.7517 3.80439 19.6318 3.7416 24.7008C2.12939 25.1332 0.938477 26.6117 0.938477 28.3641C0.938477 30.4546 2.6332 32.1554 4.7165 32.1554C6.7998 32.1554 8.49453 30.4546 8.49453 28.3641C8.49453 26.613 7.30547 25.1354 5.69502 24.7017C5.82461 15.2376 12.8802 7.12169 22.2085 5.76466ZM6.54131 28.3641C6.54131 29.3776 5.72266 30.2023 4.71641 30.2023C3.71016 30.2023 2.8915 29.3776 2.8915 28.3641C2.8915 27.3505 3.71016 26.5259 4.71641 26.5259C5.72266 26.5259 6.54131 27.3505 6.54131 28.3641Z" fill="#020288"/>
<path d="M46.2585 24.7008C46.1959 19.6506 44.3551 14.7843 41.0588 10.9709C39.0505 8.64757 36.5842 6.80421 33.8463 5.54376H44.9226C45.462 5.54376 45.8992 5.10656 45.8992 4.5672C45.8992 4.02784 45.462 3.59064 44.9226 3.59064H28.123C27.6547 3.59064 27.2634 3.92042 27.1685 4.36046C27.1194 4.45411 27.0849 4.55743 27.0682 4.66779C26.9878 5.20109 27.355 5.69864 27.8883 5.77892C37.1615 7.17638 44.1755 15.2858 44.3051 24.7017C42.6946 25.1354 41.5056 26.6129 41.5056 28.3641C41.5056 30.4546 43.2003 32.1554 45.2836 32.1554C47.3669 32.1554 49.0616 30.4546 49.0616 28.3641C49.0616 26.6117 47.8707 25.1332 46.2585 24.7008ZM45.2836 30.2023C44.2773 30.2023 43.4587 29.3776 43.4587 28.3641C43.4587 27.3505 44.2773 26.5259 45.2836 26.5259C46.2898 26.5259 47.1085 27.3505 47.1085 28.3641C47.1085 29.3776 46.2898 30.2023 45.2836 30.2023Z" fill="#020288"/>
<path d="M5.93066 7.54651H0.000195026V1.58782H5.93066V7.54651Z" fill="#B2F0FB"/>
<path d="M50 7.54651H44.0695V1.58782H50V7.54651Z" fill="#B2F0FB"/>
<path d="M27.9653 7.54651H22.0349V1.58782H27.9653V7.54651Z" fill="#B2F0FB"/>
<path d="M25.0001 32.2811C26.9256 32.2811 28.4865 30.7128 28.4865 28.7781C28.4865 26.8434 26.9256 25.2751 25.0001 25.2751C23.0746 25.2751 21.5137 26.8434 21.5137 28.7781C21.5137 30.7128 23.0746 32.2811 25.0001 32.2811Z" fill="#B2F0FB"/>
</svg>
