<svg width="50" height="50" viewBox="0 0 50 50" fill="none" xmlns="http://www.w3.org/2000/svg">
<g clip-path="url(#clip0_153_5057)">
<path d="M19.2784 1.45642H39.3924C40.3687 1.45642 41.16 2.24783 41.16 3.224V19.4394C41.16 20.4163 40.3681 21.2082 39.3912 21.2082H25.7851L23.6671 23.3742L21.8793 21.2082H19.2773C18.3011 21.2082 17.5098 20.4168 17.5098 19.4406V3.22507C17.5097 2.24832 18.3016 1.45642 19.2784 1.45642Z" fill="#A4FCC4"/>
<path d="M23.616 12.1441C23.7703 12.5142 24.1468 12.7608 24.5491 12.747C24.9506 12.7331 25.3126 12.4649 25.4421 12.0846C25.5734 11.699 25.4443 11.2578 25.1242 11.0055C24.8033 10.7525 24.3496 10.7267 24.0019 10.9414C23.6012 11.1889 23.4347 11.7093 23.616 12.1441Z" fill="#020288"/>
<path d="M28.4324 12.144C28.5868 12.5145 28.9638 12.7609 29.3665 12.747C29.7687 12.733 30.1291 12.4652 30.2585 12.0846C30.3894 11.6998 30.2614 11.2573 29.9412 11.0059C29.6197 10.7534 29.1672 10.7259 28.8189 10.9414C28.4182 11.1893 28.2509 11.7088 28.4324 12.144Z" fill="#020288"/>
<path d="M33.9599 12.728C34.3532 12.8072 34.7696 12.628 34.98 12.2859C35.1973 11.9325 35.168 11.473 34.9059 11.1509C34.6484 10.8344 34.2053 10.7154 33.8223 10.8517C33.4493 10.9844 33.1876 11.3429 33.1753 11.7389C33.1605 12.2122 33.4977 12.6326 33.9599 12.728Z" fill="#020288"/>
<path d="M47.9483 23.4903H35.7154C34.5838 23.4903 33.6631 24.411 33.6631 25.5426V35.4046C33.6631 36.5359 34.5835 37.4562 35.7147 37.4562H36.837L37.6314 38.4186C37.8078 38.6323 38.0667 38.761 38.3435 38.7726C38.3572 38.7732 38.3709 38.7735 38.3847 38.7735C38.6469 38.7735 38.8987 38.6679 39.0827 38.4796L40.0836 37.4562H47.9477C49.0793 37.4562 50 36.5356 50 35.404V25.542C50 24.4107 49.0796 23.4903 47.9483 23.4903ZM48.0469 35.404C48.0469 35.4586 48.0023 35.5031 47.9477 35.5031H39.6727C39.4099 35.5031 39.1581 35.609 38.9745 35.7969L38.446 36.3374L38.0503 35.858C37.8648 35.6333 37.5886 35.5031 37.2972 35.5031H35.7147C35.6604 35.5031 35.6162 35.4589 35.6162 35.4046V25.5426C35.6162 25.488 35.6607 25.4434 35.7154 25.4434H47.9484C48.0028 25.4434 48.047 25.4876 48.047 25.542V35.404H48.0469Z" fill="#020288"/>
<path d="M29.3147 34.6139C26.7085 32.0078 22.4681 32.0078 19.8618 34.6139L19.785 34.6907L13.8559 28.7616L13.9327 28.6848C16.5389 26.0785 16.5389 21.8382 13.9327 19.2319L12.0307 17.3298C10.8383 16.1375 9.25303 15.4808 7.5668 15.4808C5.88047 15.4808 4.29521 16.1375 3.10283 17.3298L1.92451 18.5081C0.683496 19.7493 0 21.3993 0 23.1544C0 24.9095 0.683496 26.5595 1.92451 27.8006L20.7459 46.6221C22.0269 47.9029 23.7095 48.5435 25.3921 48.5435C27.0746 48.5435 28.7573 47.9029 30.0383 46.6221L31.2166 45.4438C32.4089 44.2514 33.0656 42.6661 33.0656 40.9799C33.0656 39.2936 32.4089 37.7083 31.2166 36.5159L29.3147 34.6139ZM29.8356 44.0626L28.6573 45.2409C27.757 46.1412 26.5748 46.5913 25.3922 46.5911C24.2099 46.591 23.0271 46.141 22.127 45.2409L3.30566 26.4194C1.50518 24.6191 1.50518 21.6896 3.30566 19.8893L4.48398 18.7109C5.30742 17.8874 6.40225 17.434 7.5668 17.434C8.73135 17.434 9.82617 17.8875 10.6495 18.7109L12.5516 20.6131C13.4451 21.5066 13.9372 22.6946 13.9372 23.9584C13.9372 25.2222 13.4451 26.4102 12.5516 27.3037L11.7842 28.0711C11.4028 28.4525 11.4028 29.0708 11.7842 29.4523L19.0943 36.7624C19.4758 37.1437 20.0939 37.1437 20.4755 36.7624L21.2429 35.995C23.0874 34.1504 26.0889 34.1503 27.9336 35.995L29.8356 37.8972C31.5355 39.5969 31.5355 42.3628 29.8356 44.0626Z" fill="#020288"/>
</g>
<defs>
<clipPath id="clip0_153_5057">
<rect width="50" height="50" fill="white"/>
</clipPath>
</defs>
</svg>
