<svg width="50" height="51" viewBox="0 0 50 51" fill="none" xmlns="http://www.w3.org/2000/svg">
<g clip-path="url(#clip0_153_5011)">
<path d="M38.3224 35.0547C39.2067 33.1672 39.7009 31.0609 39.7009 28.8393C39.7009 20.7308 33.119 14.1575 25 14.1575V28.8393L38.3224 35.0547Z" fill="#B2F0FB"/>
<path d="M42.487 16.7054L44.3266 14.7382L44.5493 14.9447C44.7373 15.1189 44.9754 15.2052 45.2131 15.2052C45.4754 15.2052 45.7369 15.1001 45.9294 14.8926C46.2961 14.497 46.2728 13.8792 45.8772 13.5125L39.8641 7.93699C39.4687 7.57048 38.8509 7.59353 38.484 7.98914C38.1173 8.38464 38.1406 9.00251 38.5361 9.36921L38.6187 9.44578L36.9461 11.2345C34.4318 9.52498 31.5921 8.38376 28.5878 7.87742C29.2938 7.053 29.7208 5.98328 29.7208 4.8158C29.7208 2.2155 27.603 0.0999756 25.0001 0.0999756C22.3972 0.0999756 20.2794 2.2155 20.2794 4.8158C20.2794 5.98328 20.7063 7.05291 21.4124 7.87742C18.4081 8.38376 15.5684 9.52498 13.0541 11.2345L11.3815 9.44578L11.4641 9.36921C11.8596 9.00251 11.8829 8.38464 11.5162 7.98914C11.1494 7.59343 10.5313 7.57039 10.1361 7.93699L4.12295 13.5125C3.72744 13.8792 3.7041 14.497 4.0708 14.8926C4.26328 15.1002 4.5248 15.2052 4.78711 15.2052C5.02471 15.2052 5.26299 15.1189 5.45088 14.9447L5.67363 14.7382L7.51318 16.7054C5.04297 20.2406 3.71289 24.4378 3.71289 28.8392C3.71289 34.5184 5.92734 39.8576 9.94824 43.8732C13.9688 47.8885 19.3143 50.1 25.0001 50.1C30.6859 50.1 36.0314 47.8885 40.052 43.8732C44.0729 39.8576 46.2874 34.5184 46.2874 28.8392C46.2873 24.4378 44.9572 20.2406 42.487 16.7054ZM43.5446 29.8158H44.3097C44.0796 34.4053 42.2372 38.5777 39.3381 41.7785L38.8031 41.2442C38.4216 40.8631 37.8033 40.8634 37.4221 41.2451C37.0409 41.6266 37.0413 42.245 37.4229 42.6261L37.9561 43.1586C34.7508 46.0536 30.5725 47.8931 25.9766 48.1225V47.3596C25.9766 46.8204 25.5393 46.3831 25 46.3831C24.4607 46.3831 24.0234 46.8204 24.0234 47.3596V48.1225C19.4275 47.8931 15.2492 46.0535 12.0439 43.1586L12.5771 42.6261C12.9587 42.2451 12.9591 41.6267 12.5779 41.2451C12.1969 40.8634 11.5786 40.8631 11.1969 41.2442L10.6619 41.7785C7.76279 38.5778 5.92041 34.4053 5.69033 29.8158H6.45537C6.99463 29.8158 7.43193 29.3785 7.43193 28.8392C7.43193 28.3 6.99463 27.8627 6.45537 27.8627H5.69033C5.92041 23.2731 7.76279 19.1008 10.6619 15.9L11.1969 16.4343C11.3875 16.6247 11.6372 16.7199 11.8869 16.7199C12.1371 16.7199 12.3871 16.6244 12.5778 16.4334C12.959 16.0518 12.9586 15.4335 12.577 15.0523L12.0438 14.5199C15.2493 11.625 19.4276 9.78543 24.0235 9.55603V10.3189C24.0235 10.8582 24.4608 11.2955 25.0001 11.2955C25.5394 11.2955 25.9767 10.8582 25.9767 10.3189V9.55603C30.5726 9.78543 34.7509 11.6251 37.9562 14.52L37.423 15.0524C37.0414 15.4335 37.041 16.0518 37.4222 16.4335C37.6129 16.6245 37.863 16.72 38.1131 16.72C38.3628 16.72 38.6125 16.6248 38.8031 16.4344L39.3381 15.9001C42.2373 19.1008 44.0796 23.2732 44.3097 27.8628H43.5446C43.0054 27.8628 42.5681 28.3001 42.5681 28.8393C42.5681 29.3786 43.0054 29.8158 43.5446 29.8158ZM40.0457 10.7793L42.8814 13.4239L41.2792 15.1374C40.8911 14.679 40.4819 14.2345 40.052 13.8052C39.5601 13.3137 39.0481 12.8495 38.5183 12.4129L40.0457 10.7793ZM22.2325 4.8158C22.2325 3.29236 23.474 2.0531 25.0001 2.0531C26.5262 2.0531 27.7677 3.29236 27.7677 4.8158C27.7677 6.33923 26.5262 7.57849 25.0001 7.57849C23.474 7.57849 22.2325 6.33923 22.2325 4.8158ZM7.11875 13.424L9.95449 10.7794L11.482 12.4131C10.9521 12.8497 10.4402 13.3139 9.94824 13.8053C9.51836 14.2346 9.10908 14.6792 8.721 15.1376L7.11875 13.424Z" fill="#020288"/>
<path d="M38.7354 34.1696L25.9768 28.2173V14.1575C25.9768 13.6183 25.5395 13.181 25.0002 13.181C16.3556 13.181 9.32275 20.2053 9.32275 28.8393C9.32275 37.4733 16.3556 44.4976 25.0002 44.4976C28.0386 44.4976 30.9862 43.628 33.5242 41.9829C35.9958 40.3809 37.9608 38.1283 39.2069 35.4691C39.3169 35.2343 39.329 34.9653 39.2406 34.7217C39.1522 34.4778 38.9705 34.2793 38.7354 34.1696ZM25.0002 42.5444C17.4326 42.5444 11.2759 36.3963 11.2759 28.8393C11.2759 21.6102 16.9101 15.6703 24.0236 15.1685V28.8393C24.0236 29.2188 24.2435 29.5639 24.5873 29.7242L36.9913 35.5111C34.5831 39.8137 29.9782 42.5444 25.0002 42.5444Z" fill="#020288"/>
</g>
<defs>
<clipPath id="clip0_153_5011">
<rect width="50" height="50" fill="white" transform="translate(0 0.0999756)"/>
</clipPath>
</defs>
</svg>
