<svg width="50" height="50" viewBox="0 0 50 50" fill="none" xmlns="http://www.w3.org/2000/svg">
<g clip-path="url(#clip0_153_5027)">
<path d="M38.0651 14.5437C37.7925 14.5437 37.5272 14.5758 37.273 14.6364L36.2351 12.8388C36.0607 12.5367 35.7382 12.3505 35.3894 12.3505H27.8375C26.5456 12.3974 26.5419 14.2552 27.8375 14.3036H34.8255L35.5825 15.6148C33.5357 17.7488 35.0769 21.3883 38.0652 21.3796C42.593 21.2078 42.5921 14.7149 38.0651 14.5437ZM38.0651 19.4264C37.2574 19.4264 36.6003 18.7693 36.6003 17.9616C36.6738 16.021 39.4567 16.0215 39.53 17.9616C39.53 18.7693 38.8728 19.4264 38.0651 19.4264Z" fill="#020288"/>
<path d="M45.6574 1.4847e-05C42.6683 -0.00848118 41.1282 3.63133 43.1748 5.76472L42.4178 7.07603H28.9844C28.4451 7.07603 28.0078 7.51333 28.0078 8.05259C28.0078 8.59184 28.4451 9.02914 28.9844 9.02914H42.9815C43.3305 9.02914 43.6528 8.84301 43.8272 8.54086L44.8651 6.74303C46.9687 7.27076 49.1043 5.59226 49.0752 3.41786C49.0753 1.5333 47.542 1.4847e-05 45.6574 1.4847e-05ZM45.6574 4.88269C44.8497 4.88269 44.1926 4.22557 44.1926 3.41796C44.2662 1.47735 47.0489 1.47784 47.1222 3.41796C47.1222 4.22567 46.4651 4.88269 45.6574 4.88269Z" fill="#020288"/>
<path d="M4.32036 6.8358C4.59301 6.8358 4.85825 6.80367 5.11254 6.74313L6.15042 8.54087C6.32484 8.84301 6.6472 9.02914 6.99612 9.02914H14.0597C15.3517 8.98217 15.3551 7.12437 14.0597 7.07603H7.55998L6.80296 5.76481C8.84991 3.63085 7.30872 -0.0087731 4.32036 1.58885e-05C-0.207437 0.171792 -0.206656 6.66471 4.32036 6.8358ZM4.32036 1.95313C5.12807 1.95313 5.78519 2.61025 5.78519 3.41796C5.71156 5.35847 2.92887 5.35798 2.85553 3.41796C2.85562 2.61035 3.51265 1.95313 4.32036 1.95313Z" fill="#020288"/>
<path d="M14.5238 12.3506H7.46021C7.11129 12.3506 6.78893 12.5367 6.61451 12.8389L5.57663 14.6365C3.47323 14.1089 1.33731 15.7873 1.36651 17.9618C1.36651 19.8464 2.8997 21.3797 4.78435 21.3797C7.7728 21.3883 9.31391 17.7486 7.26695 15.6149L8.02397 14.3038H14.5237C15.0631 14.3038 15.5003 13.8665 15.5003 13.3272C15.5003 12.788 15.0632 12.3506 14.5238 12.3506ZM4.78445 19.4265C3.97674 19.4265 3.31962 18.7694 3.31962 17.9617C3.39325 16.0211 6.17594 16.0215 6.24928 17.9617C6.24928 18.7694 5.59216 19.4265 4.78445 19.4265Z" fill="#020288"/>
<path fill-rule="evenodd" clip-rule="evenodd" d="M12.6924 9.76556C12.6924 13.7464 15.3588 17.1856 19.1198 18.2318V9.76556C19.1198 8.46654 20.1826 7.40405 21.4814 7.40405C22.7803 7.40405 23.8429 8.46664 23.843 9.76556V18.2326C33.5637 15.3353 31.7109 1.18564 21.4813 0.976562C16.6274 0.976562 12.6924 4.91159 12.6924 9.76556Z" fill="#E2C4FF"/>
<path d="M38.9887 27.5557C39.0141 24.8986 35.9296 23.2854 33.7706 24.7985C32.8067 23.1807 30.5418 22.7127 29.0297 23.8011C28.1831 22.4076 26.2866 21.837 24.8196 22.5394V9.76565C24.8196 7.92494 23.3221 6.42749 21.4814 6.42749C19.6407 6.42749 18.1433 7.92494 18.1433 9.76565L18.1434 32.9153L16.2353 31.9518L15.8335 28.5002C15.4549 24.1036 9.32812 24.2621 9.16113 28.5901V34.9376C9.16113 36.4495 9.72129 37.5859 10.9774 38.6221C11.0507 38.7008 18.0666 43.5488 18.1432 43.6178V49.0235C18.1335 49.548 18.5947 50.0105 19.1197 50H38.0123C38.2713 50 38.5196 49.8971 38.7028 49.714C38.8859 49.5308 38.9888 49.2825 38.9888 49.0235C38.9889 49.0234 38.9887 27.5557 38.9887 27.5557ZM20.0964 48.0468V43.108C20.0964 42.7886 19.9402 42.4892 19.678 42.3067L12.191 37.091C11.4168 36.4438 11.1143 35.837 11.1143 34.9376V28.5901C11.2189 26.7451 13.7495 26.7379 13.8864 28.6534C13.8875 28.67 13.889 28.6866 13.8909 28.7031L14.3561 32.6997C14.3941 33.0255 14.5931 33.3106 14.886 33.4585L18.6798 35.3743C19.2999 35.7097 20.1176 35.2086 20.0965 34.5025L20.0964 9.76585C20.0964 9.00218 20.7177 8.3808 21.4814 8.3808C22.2451 8.3808 22.8665 9.00208 22.8665 9.76585V25.5769C22.9138 26.8706 24.7722 26.8705 24.8196 25.5769C24.8094 24.3648 26.33 23.7234 27.1819 24.6C27.4449 24.863 27.5897 25.21 27.5897 25.5769L27.5896 26.5461C27.5896 27.0854 28.0268 27.5227 28.5662 27.5227C29.1054 27.5227 29.5426 27.0854 29.5427 26.5462C29.5426 25.7824 30.164 25.161 30.9278 25.161C31.6658 25.1451 32.3289 25.8079 32.3128 26.546L32.3127 27.556C32.3127 28.0952 32.7499 28.5325 33.2893 28.5325C33.8286 28.5325 34.2659 28.0953 34.2658 27.556C34.3348 25.7218 36.9665 25.7211 37.0357 27.556L37.0359 48.0471H20.0964V48.0468Z" fill="#020288"/>
</g>
<defs>
<clipPath id="clip0_153_5027">
<rect width="50" height="50" fill="white"/>
</clipPath>
</defs>
</svg>
