<svg width="40" height="41" viewBox="0 0 40 41" fill="none" xmlns="http://www.w3.org/2000/svg">
<g clip-path="url(#clip0_27:16)">
<path d="M10.0357 19.0823H16.7768V26.6047H10.0357V19.0823Z" fill="#FFBDBC"/>
<path d="M29.9643 36.771H20.098V29.2486H29.9643V36.771Z" fill="#FFBDBC"/>
<path d="M32.1643 0.921621L7.84032 0.899902H7.8379C7.13556 0.899902 6.47509 1.17326 5.97814 1.66975C5.48056 2.16686 5.20657 2.82795 5.20657 3.53131V38.2684C5.20657 39.7194 6.38704 40.8999 7.83806 40.8999H32.162C33.613 40.8999 34.7934 39.7194 34.7934 38.2684V3.55311C34.7934 2.10342 33.614 0.922949 32.1643 0.921621ZM33.2309 38.2684C33.2309 38.8579 32.7514 39.3374 32.162 39.3374H7.83806C7.24868 39.3374 6.76907 38.8579 6.76907 38.2684V3.53139C6.76907 3.24568 6.8804 2.97709 7.08251 2.77514C7.28439 2.57342 7.55267 2.4624 7.83798 2.4624H7.839L32.163 2.48412C32.7518 2.48467 33.2309 2.9642 33.2309 3.55311V38.2684Z" fill="#020288"/>
<path d="M29.9644 4.61279H10.0357C9.60422 4.61279 9.25446 4.96264 9.25446 5.39404V14.5401C9.25446 14.9715 9.60422 15.3213 10.0357 15.3213H29.9644C30.3958 15.3213 30.7456 14.9715 30.7456 14.5401V5.39404C30.7456 4.96264 30.3959 4.61279 29.9644 4.61279ZM29.1831 13.284L13.5479 6.17529H29.1831V13.284ZM10.817 6.65014L26.4523 13.7589H10.817V6.65014Z" fill="#020288"/>
<path d="M29.9644 20.0845H20.4273C19.9958 20.0845 19.646 20.4343 19.646 20.8657C19.646 21.2971 19.9958 21.647 20.4273 21.647H29.9644C30.3958 21.647 30.7456 21.2971 30.7456 20.8657C30.7456 20.4343 30.3959 20.0845 29.9644 20.0845Z" fill="#020288"/>
<path d="M29.9644 24.0405H20.4273C19.9958 24.0405 19.646 24.3904 19.646 24.8218C19.646 25.2532 19.9958 25.603 20.4273 25.603H29.9644C30.3958 25.603 30.7456 25.2532 30.7456 24.8218C30.7456 24.3904 30.3959 24.0405 29.9644 24.0405Z" fill="#020288"/>
<path d="M16.4477 34.2063H10.0357C9.60422 34.2063 9.25446 34.5561 9.25446 34.9875C9.25446 35.419 9.60422 35.7688 10.0357 35.7688H16.4477C16.8791 35.7688 17.2289 35.419 17.2289 34.9875C17.2289 34.5561 16.8791 34.2063 16.4477 34.2063Z" fill="#020288"/>
<path d="M16.4477 30.2505H10.0357C9.60422 30.2505 9.25446 30.6003 9.25446 31.0317C9.25446 31.4631 9.60422 31.813 10.0357 31.813H16.4477C16.8791 31.813 17.2289 31.4631 17.2289 31.0317C17.2289 30.6003 16.8791 30.2505 16.4477 30.2505Z" fill="#020288"/>
</g>
<defs>
<clipPath id="clip0_27:16">
<rect width="40" height="40" fill="white" transform="translate(0 0.899902)"/>
</clipPath>
</defs>
</svg>
