<svg width="40" height="41" viewBox="0 0 40 41" fill="none" xmlns="http://www.w3.org/2000/svg">
<g clip-path="url(#clip0_27:30)">
<path d="M35.522 16.3472C35.3395 16.3472 35.1563 16.2837 35.0081 16.1541C34.6223 15.8167 34.1252 15.6309 33.6087 15.6309H28.0436C27.6122 15.6309 27.2623 15.281 27.2623 14.8496C27.2623 14.4182 27.6122 14.0684 28.0436 14.0684H33.6087C34.5036 14.0684 35.3658 14.3913 36.0366 14.9778C36.3614 15.2618 36.3945 15.7553 36.1105 16.0802C35.956 16.2567 35.7395 16.3472 35.522 16.3472Z" fill="#020288"/>
<path d="M4.47797 16.3472C4.26039 16.3472 4.0439 16.2569 3.88953 16.0802C3.60547 15.7553 3.63859 15.2617 3.96344 14.9778C4.63422 14.3913 5.4964 14.0684 6.39125 14.0684H11.1287C11.5601 14.0684 11.9099 14.4182 11.9099 14.8496C11.9099 15.281 11.5601 15.6309 11.1287 15.6309H6.39133C5.87484 15.6309 5.37781 15.8167 4.99195 16.1541C4.84375 16.2836 4.66047 16.3472 4.47797 16.3472Z" fill="#020288"/>
<path d="M29.5233 0.900024H8.0275V19.0221L18.2279 28.9534C19.2303 29.8727 20.7697 29.8727 21.772 28.9534L31.9724 19.0221V3.34471L29.5233 0.900024Z" fill="#B2F0FB"/>
<path d="M36.0352 14.9765C36.0331 14.9746 36.0309 14.9728 36.0287 14.9709C36.0263 14.9688 36.0238 14.9668 36.0213 14.9647C36.0197 14.9633 36.018 14.962 36.0163 14.9605C36.0124 14.9573 36.0085 14.9542 36.0046 14.9512C36.0042 14.9509 36.0038 14.9505 36.0034 14.9502C35.7002 14.7127 35.2608 14.73 34.9773 15.0061L21.2362 28.3848C20.5295 29.0258 19.4704 29.0258 18.7638 28.3848L5.02266 15.0061C4.73898 14.7298 4.29914 14.7127 3.99609 14.9506C3.99594 14.9507 3.99578 14.9509 3.9957 14.9509C3.99125 14.9545 3.98687 14.958 3.9825 14.9616C3.98141 14.9624 3.98031 14.9633 3.9793 14.9642C3.97633 14.9667 3.97336 14.9692 3.97039 14.9717C3.96852 14.9733 3.96664 14.9748 3.96484 14.9764C3.15891 15.6773 2.69664 16.6916 2.69664 17.7594V37.2084C2.69664 38.2745 3.15742 39.2873 3.96094 39.988C3.9618 39.9888 3.96266 39.9895 3.96352 39.9903C4.63492 40.577 5.49711 40.9 6.39133 40.9H33.6088C34.5029 40.9 35.3651 40.577 36.0366 39.9903C36.0375 39.9895 36.0383 39.9888 36.0391 39.9881C36.8427 39.2873 37.3035 38.2745 37.3035 37.2084V17.7595C37.3034 16.6916 36.8412 15.6773 36.0352 14.9765ZM23.2725 28.5829L35.4649 16.712C35.6439 17.028 35.7409 17.3881 35.7409 17.7594V37.2084C35.7409 37.6063 35.6295 37.9912 35.4253 38.3228L23.2725 28.5829ZM4.57461 38.3228C4.37039 37.9913 4.25906 37.6063 4.25906 37.2085V17.7595C4.25906 17.3881 4.35609 17.028 4.53508 16.7121L16.7266 28.582L4.57461 38.3228ZM33.6087 39.3375H6.39133C6.21875 39.3375 6.0482 39.3166 5.88328 39.2763L17.8655 29.6718C18.4912 30.178 19.2456 30.4311 20 30.4311C20.7541 30.4311 21.5081 30.1781 22.1337 29.6725L34.1167 39.2764C33.9517 39.3166 33.7813 39.3375 33.6087 39.3375Z" fill="#020288"/>
<path d="M13.5123 7.29028H26.4877C26.9191 7.29028 27.269 6.94044 27.269 6.50903C27.269 6.07763 26.9191 5.72778 26.4877 5.72778H13.5123C13.0809 5.72778 12.731 6.07763 12.731 6.50903C12.731 6.94044 13.0809 7.29028 13.5123 7.29028Z" fill="#020288"/>
<path d="M13.5123 11.0352H26.4877C26.9191 11.0352 27.269 10.6853 27.269 10.2539C27.269 9.8225 26.9191 9.47266 26.4877 9.47266H13.5123C13.0809 9.47266 12.731 9.8225 12.731 10.2539C12.731 10.6853 13.0809 11.0352 13.5123 11.0352Z" fill="#020288"/>
<path d="M13.5123 14.7799H26.4877C26.9191 14.7799 27.269 14.4301 27.269 13.9987C27.269 13.5673 26.9191 13.2174 26.4877 13.2174H13.5123C13.0809 13.2174 12.731 13.5673 12.731 13.9987C12.731 14.4301 13.0809 14.7799 13.5123 14.7799Z" fill="#020288"/>
<path d="M26.4877 16.9623H20.8627C20.4313 16.9623 20.0815 17.3121 20.0815 17.7435C20.0815 18.1749 20.4313 18.5248 20.8627 18.5248H26.4877C26.9191 18.5248 27.269 18.1749 27.269 17.7435C27.269 17.3121 26.9191 16.9623 26.4877 16.9623Z" fill="#020288"/>
</g>
<defs>
<clipPath id="clip0_27:30">
<rect width="40" height="40" fill="white" transform="translate(0 0.900024)"/>
</clipPath>
</defs>
</svg>
