<svg width="40" height="41" viewBox="0 0 40 41" fill="none" xmlns="http://www.w3.org/2000/svg">
<g clip-path="url(#clip0_27:55)">
<path fill-rule="evenodd" clip-rule="evenodd" d="M11.0902 25.5881H23.5917V31.8389H11.0902V25.5881Z" fill="#E2C4FF"/>
<path d="M39.2187 6.05444H11.0902C10.6587 6.05444 10.3089 6.40425 10.3089 6.83579V34.9642C10.3089 35.3957 10.6587 35.7455 11.0902 35.7455H39.2187C39.6502 35.7455 40 35.3957 40 34.9642V6.83579C40 6.40425 39.6502 6.05444 39.2187 6.05444ZM38.4373 34.1828H11.8716V7.61713H38.4373V34.1828Z" fill="#020288"/>
<path d="M14.2156 29.4947H20.4664C21.502 29.4563 21.5012 27.9701 20.4664 27.932H14.2156C13.18 27.9704 13.1808 29.4567 14.2156 29.4947Z" fill="#020288"/>
<path d="M7.57419 15.4305H4.37067C3.33508 15.469 3.33586 16.9552 4.37067 16.9932H7.57419C8.60978 16.9548 8.609 15.4686 7.57419 15.4305Z" fill="#020288"/>
<path d="M7.5742 20.1187H2.57438C1.53878 20.1571 1.53956 21.6433 2.57438 21.6813H7.5742C8.60979 21.6429 8.60901 20.1567 7.5742 20.1187Z" fill="#020288"/>
<path d="M7.57419 24.8066H0.776418C-0.259176 24.8451 -0.258395 26.3313 0.776418 26.3693H7.57419C8.60979 26.3309 8.60901 24.8447 7.57419 24.8066Z" fill="#020288"/>
<path fill-rule="evenodd" clip-rule="evenodd" d="M21.2477 6.05444V16.2119L25.1545 14.5073L29.0612 16.2119V6.05444H21.2477Z" fill="#E2C4FF"/>
</g>
<defs>
<clipPath id="clip0_27:55">
<rect width="40" height="40" fill="white" transform="translate(0 0.900024)"/>
</clipPath>
</defs>
</svg>
