<?xml version="1.0" encoding="UTF-8"?>
<svg xmlns="http://www.w3.org/2000/svg" xmlns:xlink="http://www.w3.org/1999/xlink" width="30px" height="px" viewBox="0 0 30 30" version="1.1">
<g id="surface1">
<path style=" stroke:none;fill-rule:nonzero;fill:rgb(0%,0%,0%);fill-opacity:1;" d="M 14.996094 -0.0234375 C 15.175781 0 15.175781 0 15.273438 0.0859375 C 15.351562 0.234375 15.351562 0.234375 15.378906 0.34375 C 15.675781 1.46875 17.066406 2.0625 17.980469 2.613281 C 18.828125 3.125 19.628906 3.632812 20.332031 4.335938 C 20.375 4.378906 20.421875 4.421875 20.46875 4.46875 C 21.027344 5.046875 21.234375 5.726562 21.226562 6.519531 C 21.179688 7.199219 20.859375 7.753906 20.507812 8.320312 C 20.550781 8.320312 20.59375 8.320312 20.640625 8.324219 C 20.835938 8.328125 21.03125 8.332031 21.230469 8.339844 C 21.332031 8.339844 21.332031 8.339844 21.4375 8.34375 C 21.503906 8.34375 21.566406 8.347656 21.636719 8.347656 C 21.695312 8.351562 21.757812 8.351562 21.816406 8.355469 C 21.972656 8.378906 21.972656 8.378906 22.082031 8.457031 C 22.183594 8.605469 22.152344 8.734375 22.128906 8.90625 C 21.820312 10.355469 21.820312 10.355469 21.257812 10.75 C 20.996094 10.890625 20.804688 10.902344 20.507812 10.898438 C 20.515625 10.9375 20.523438 10.976562 20.53125 11.019531 C 20.617188 11.519531 20.675781 12.023438 20.722656 12.527344 C 20.734375 12.621094 20.742188 12.710938 20.753906 12.800781 C 20.777344 13.046875 20.800781 13.292969 20.828125 13.535156 C 20.851562 13.792969 20.878906 14.050781 20.902344 14.308594 C 20.949219 14.738281 20.992188 15.167969 21.035156 15.601562 C 21.085938 16.097656 21.132812 16.597656 21.183594 17.09375 C 21.238281 17.625 21.292969 18.15625 21.347656 18.6875 C 21.363281 18.84375 21.378906 18.996094 21.390625 19.148438 C 21.417969 19.386719 21.441406 19.628906 21.464844 19.867188 C 21.472656 19.957031 21.484375 20.042969 21.492188 20.132812 C 21.503906 20.25 21.515625 20.371094 21.527344 20.492188 C 21.535156 20.558594 21.542969 20.625 21.546875 20.695312 C 21.5625 20.859375 21.5625 20.859375 21.5625 21.035156 C 21.605469 21.035156 21.648438 21.035156 21.695312 21.035156 C 21.890625 21.03125 22.085938 21.03125 22.285156 21.027344 C 22.351562 21.027344 22.421875 21.027344 22.492188 21.023438 C 22.558594 21.023438 22.621094 21.023438 22.691406 21.023438 C 22.75 21.023438 22.8125 21.023438 22.871094 21.023438 C 23.027344 21.035156 23.027344 21.035156 23.203125 21.152344 C 23.261719 21.316406 23.273438 21.410156 23.214844 21.578125 C 23.191406 21.621094 23.167969 21.664062 23.140625 21.710938 C 23.113281 21.761719 23.085938 21.8125 23.054688 21.863281 C 23.023438 21.917969 22.992188 21.972656 22.960938 22.027344 C 22.929688 22.082031 22.898438 22.140625 22.867188 22.195312 C 22.765625 22.375 22.660156 22.554688 22.558594 22.734375 C 22.523438 22.796875 22.488281 22.855469 22.453125 22.917969 C 22.351562 23.097656 22.25 23.273438 22.148438 23.453125 C 22.117188 23.507812 22.085938 23.5625 22.054688 23.621094 C 22.023438 23.671875 21.992188 23.722656 21.960938 23.773438 C 21.933594 23.820312 21.910156 23.867188 21.882812 23.914062 C 21.785156 24.039062 21.714844 24.085938 21.5625 24.140625 C 21.445312 24.152344 21.445312 24.152344 21.320312 24.152344 C 21.28125 24.152344 21.242188 24.152344 21.199219 24.152344 C 21.152344 24.148438 21.101562 24.148438 21.050781 24.148438 C 20.890625 24.144531 20.730469 24.144531 20.566406 24.140625 C 20.566406 24.71875 20.566406 25.300781 20.566406 25.898438 C 20.984375 25.890625 20.984375 25.890625 21.398438 25.882812 C 21.476562 25.882812 21.476562 25.882812 21.554688 25.882812 C 21.609375 25.878906 21.664062 25.878906 21.71875 25.878906 C 21.855469 25.898438 21.855469 25.898438 21.960938 25.964844 C 22.0625 26.125 22.042969 26.242188 22.03125 26.425781 C 21.980469 26.585938 21.980469 26.585938 21.910156 26.75 C 21.882812 26.8125 21.859375 26.875 21.832031 26.9375 C 21.800781 27.003906 21.773438 27.070312 21.742188 27.140625 C 21.714844 27.207031 21.683594 27.277344 21.652344 27.347656 C 21.574219 27.53125 21.496094 27.714844 21.417969 27.894531 C 21.351562 28.042969 21.289062 28.191406 21.226562 28.339844 C 20.5625 29.886719 20.5625 29.886719 20.449219 30 C 20.308594 30.007812 20.171875 30.007812 20.03125 30.007812 C 19.984375 30.007812 19.941406 30.007812 19.894531 30.011719 C 19.746094 30.011719 19.59375 30.011719 19.445312 30.011719 C 19.335938 30.011719 19.230469 30.011719 19.125 30.011719 C 18.769531 30.015625 18.417969 30.015625 18.066406 30.015625 C 17.945312 30.015625 17.824219 30.015625 17.703125 30.015625 C 17.199219 30.019531 16.695312 30.019531 16.191406 30.019531 C 15.46875 30.019531 14.742188 30.023438 14.019531 30.027344 C 13.511719 30.027344 13.003906 30.03125 12.496094 30.03125 C 12.191406 30.03125 11.890625 30.03125 11.585938 30.03125 C 11.300781 30.035156 11.015625 30.035156 10.730469 30.035156 C 10.625 30.035156 10.519531 30.035156 10.414062 30.035156 C 10.269531 30.035156 10.128906 30.035156 9.984375 30.035156 C 9.945312 30.035156 9.902344 30.039062 9.859375 30.039062 C 9.742188 30.035156 9.742188 30.035156 9.550781 30 C 9.4375 29.859375 9.4375 29.859375 9.375 29.707031 C 9.355469 29.671875 9.339844 29.632812 9.320312 29.597656 C 9.304688 29.5625 9.292969 29.527344 9.277344 29.492188 C 9.257812 29.453125 9.242188 29.414062 9.222656 29.371094 C 9.207031 29.328125 9.1875 29.285156 9.167969 29.242188 C 9.148438 29.199219 9.128906 29.152344 9.109375 29.109375 C 9.046875 28.964844 8.988281 28.820312 8.925781 28.675781 C 8.882812 28.574219 8.839844 28.476562 8.796875 28.378906 C 8.734375 28.230469 8.671875 28.085938 8.609375 27.9375 C 8.496094 27.679688 8.386719 27.417969 8.273438 27.160156 C 8.230469 27.0625 8.1875 26.964844 8.144531 26.867188 C 8.117188 26.804688 8.117188 26.804688 8.085938 26.742188 C 7.988281 26.511719 7.933594 26.324219 7.96875 26.074219 C 8.039062 25.976562 8.039062 25.976562 8.144531 25.898438 C 8.28125 25.878906 8.28125 25.878906 8.445312 25.882812 C 8.496094 25.882812 8.546875 25.882812 8.601562 25.882812 C 8.667969 25.882812 8.730469 25.886719 8.800781 25.886719 C 9.007812 25.890625 9.21875 25.894531 9.433594 25.898438 C 9.433594 25.316406 9.433594 24.738281 9.433594 24.140625 C 9.117188 24.148438 9.117188 24.148438 8.804688 24.15625 C 8.746094 24.15625 8.746094 24.15625 8.683594 24.15625 C 8.644531 24.160156 8.605469 24.160156 8.5625 24.160156 C 8.386719 24.132812 8.285156 24.070312 8.144531 23.964844 C 8.039062 23.816406 8.039062 23.816406 7.941406 23.632812 C 7.886719 23.535156 7.886719 23.535156 7.832031 23.433594 C 7.796875 23.363281 7.757812 23.292969 7.71875 23.222656 C 7.660156 23.113281 7.601562 23.003906 7.542969 22.898438 C 7.507812 22.824219 7.46875 22.753906 7.429688 22.683594 C 7.320312 22.480469 7.207031 22.28125 7.085938 22.082031 C 7.0625 22.039062 7.035156 21.996094 7.011719 21.953125 C 6.964844 21.878906 6.917969 21.804688 6.871094 21.730469 C 6.761719 21.542969 6.734375 21.464844 6.777344 21.25 C 6.855469 21.09375 6.855469 21.09375 6.972656 21.035156 C 7.082031 21.03125 7.195312 21.027344 7.304688 21.03125 C 7.394531 21.03125 7.394531 21.03125 7.484375 21.03125 C 7.558594 21.03125 7.632812 21.03125 7.710938 21.03125 C 7.839844 21.03125 7.972656 21.03125 8.101562 21.035156 C 8.164062 21.035156 8.226562 21.035156 8.292969 21.035156 C 8.339844 21.035156 8.386719 21.035156 8.4375 21.035156 C 8.445312 20.953125 8.445312 20.953125 8.453125 20.867188 C 8.628906 18.910156 8.828125 16.953125 9.023438 15 C 9.058594 14.652344 9.09375 14.304688 9.128906 13.960938 C 9.164062 13.621094 9.199219 13.28125 9.234375 12.941406 C 9.253906 12.742188 9.273438 12.539062 9.292969 12.339844 C 9.316406 12.117188 9.339844 11.898438 9.359375 11.675781 C 9.367188 11.613281 9.375 11.546875 9.378906 11.476562 C 9.386719 11.417969 9.394531 11.359375 9.398438 11.296875 C 9.40625 11.21875 9.40625 11.21875 9.414062 11.140625 C 9.433594 11.015625 9.433594 11.015625 9.492188 10.898438 C 9.433594 10.902344 9.375 10.90625 9.316406 10.914062 C 8.996094 10.910156 8.75 10.789062 8.515625 10.574219 C 8.210938 10.214844 8.097656 9.761719 7.96875 9.316406 C 7.953125 9.269531 7.9375 9.21875 7.921875 9.171875 C 7.847656 8.910156 7.847656 8.699219 7.910156 8.4375 C 8.0625 8.359375 8.1875 8.367188 8.359375 8.359375 C 8.457031 8.355469 8.457031 8.355469 8.558594 8.351562 C 8.628906 8.351562 8.695312 8.347656 8.765625 8.347656 C 8.835938 8.34375 8.90625 8.339844 8.976562 8.339844 C 9.148438 8.332031 9.320312 8.324219 9.492188 8.320312 C 9.460938 8.269531 9.429688 8.21875 9.398438 8.167969 C 8.9375 7.40625 8.652344 6.664062 8.820312 5.753906 C 8.988281 5.128906 9.335938 4.675781 9.785156 4.21875 C 9.832031 4.171875 9.875 4.125 9.921875 4.078125 C 10.5625 3.457031 11.355469 3.019531 12.113281 2.5625 C 13.699219 1.691406 13.699219 1.691406 14.664062 0.25 C 14.730469 0.046875 14.785156 0.00390625 14.996094 -0.0234375 Z M 14.941406 1.230469 C 14.867188 1.3125 14.796875 1.398438 14.726562 1.484375 C 14.03125 2.265625 13.066406 2.757812 12.183594 3.292969 C 10.53125 4.28125 10.53125 4.28125 9.46875 5.828125 C 9.316406 6.699219 9.652344 7.378906 10.136719 8.085938 C 10.171875 8.136719 10.203125 8.1875 10.238281 8.242188 C 10.359375 8.394531 10.359375 8.394531 10.542969 8.417969 C 10.609375 8.417969 10.679688 8.417969 10.746094 8.417969 C 10.785156 8.417969 10.824219 8.417969 10.863281 8.421875 C 10.988281 8.421875 11.113281 8.421875 11.238281 8.421875 C 11.332031 8.421875 11.421875 8.425781 11.511719 8.425781 C 11.757812 8.429688 12.003906 8.429688 12.25 8.429688 C 12.402344 8.429688 12.554688 8.429688 12.710938 8.433594 C 13.246094 8.433594 13.78125 8.4375 14.320312 8.4375 C 14.816406 8.4375 15.316406 8.441406 15.816406 8.445312 C 16.246094 8.449219 16.675781 8.453125 17.105469 8.453125 C 17.359375 8.453125 17.617188 8.453125 17.871094 8.457031 C 18.113281 8.460938 18.355469 8.460938 18.59375 8.457031 C 18.683594 8.457031 18.773438 8.457031 18.859375 8.460938 C 19.359375 8.476562 19.359375 8.476562 19.785156 8.238281 C 19.90625 8.074219 20.003906 7.914062 20.097656 7.734375 C 20.121094 7.699219 20.140625 7.660156 20.164062 7.621094 C 20.480469 7.074219 20.675781 6.503906 20.527344 5.871094 C 20.398438 5.472656 20.203125 5.175781 19.921875 4.863281 C 19.886719 4.820312 19.847656 4.777344 19.8125 4.734375 C 19.066406 3.9375 18.015625 3.410156 17.09375 2.847656 C 16.378906 2.414062 15.675781 1.980469 15.144531 1.324219 C 15.101562 1.277344 15.101562 1.277344 15.058594 1.230469 C 15.019531 1.230469 14.980469 1.230469 14.941406 1.230469 Z M 8.613281 9.023438 C 8.722656 9.652344 8.722656 9.652344 9.058594 10.171875 C 9.257812 10.289062 9.441406 10.277344 9.664062 10.277344 C 9.714844 10.277344 9.761719 10.277344 9.808594 10.277344 C 9.96875 10.277344 10.128906 10.277344 10.285156 10.277344 C 10.398438 10.277344 10.515625 10.28125 10.628906 10.28125 C 10.9375 10.28125 11.246094 10.28125 11.554688 10.28125 C 11.8125 10.28125 12.074219 10.28125 12.332031 10.28125 C 12.941406 10.285156 13.546875 10.285156 14.15625 10.285156 C 14.785156 10.28125 15.414062 10.285156 16.042969 10.285156 C 16.582031 10.289062 17.121094 10.289062 17.660156 10.289062 C 17.984375 10.289062 18.304688 10.289062 18.628906 10.289062 C 18.929688 10.292969 19.234375 10.292969 19.539062 10.289062 C 19.648438 10.289062 19.761719 10.289062 19.871094 10.292969 C 20.023438 10.292969 20.175781 10.292969 20.328125 10.289062 C 20.371094 10.292969 20.414062 10.292969 20.460938 10.292969 C 20.691406 10.289062 20.789062 10.261719 20.972656 10.113281 C 21.082031 9.976562 21.15625 9.863281 21.226562 9.703125 C 21.242188 9.664062 21.261719 9.621094 21.28125 9.578125 C 21.34375 9.394531 21.34375 9.394531 21.386719 9.023438 C 17.171875 9.023438 12.957031 9.023438 8.613281 9.023438 Z M 10.136719 10.898438 C 10.042969 11.5 10.042969 11.5 9.96875 12.101562 C 9.964844 12.140625 9.960938 12.179688 9.957031 12.21875 C 9.945312 12.34375 9.933594 12.46875 9.921875 12.59375 C 9.910156 12.6875 9.902344 12.777344 9.890625 12.867188 C 9.867188 13.113281 9.84375 13.359375 9.816406 13.601562 C 9.792969 13.859375 9.765625 14.117188 9.742188 14.375 C 9.695312 14.804688 9.652344 15.234375 9.609375 15.667969 C 9.554688 16.21875 9.5 16.773438 9.441406 17.328125 C 9.394531 17.804688 9.347656 18.277344 9.296875 18.753906 C 9.28125 18.910156 9.265625 19.0625 9.253906 19.214844 C 9.226562 19.453125 9.203125 19.695312 9.179688 19.933594 C 9.171875 20.023438 9.160156 20.109375 9.152344 20.199219 C 9.140625 20.316406 9.128906 20.4375 9.117188 20.558594 C 9.109375 20.625 9.101562 20.691406 9.097656 20.761719 C 9.082031 20.910156 9.082031 20.910156 9.082031 21.035156 C 10.242188 21.035156 11.402344 21.035156 12.597656 21.035156 C 12.601562 20.625 12.601562 20.214844 12.605469 19.796875 C 12.605469 19.535156 12.609375 19.273438 12.609375 19.011719 C 12.613281 18.601562 12.617188 18.1875 12.617188 17.773438 C 12.621094 17.441406 12.621094 17.109375 12.625 16.773438 C 12.625 16.648438 12.625 16.523438 12.625 16.394531 C 12.632812 14.441406 12.632812 14.441406 13.339844 13.660156 C 13.898438 13.140625 14.527344 13.039062 15.261719 13.050781 C 15.832031 13.074219 16.292969 13.308594 16.699219 13.710938 C 17.242188 14.347656 17.351562 15 17.355469 15.8125 C 17.355469 15.871094 17.355469 15.925781 17.359375 15.984375 C 17.359375 16.171875 17.359375 16.355469 17.363281 16.542969 C 17.363281 16.671875 17.363281 16.800781 17.367188 16.933594 C 17.371094 17.273438 17.371094 17.613281 17.375 17.953125 C 17.378906 18.359375 17.382812 18.769531 17.386719 19.175781 C 17.390625 19.796875 17.398438 20.414062 17.402344 21.035156 C 18.5625 21.035156 19.722656 21.035156 20.917969 21.035156 C 20.519531 16.964844 20.519531 16.964844 20.105469 12.898438 C 20.09375 12.769531 20.082031 12.644531 20.066406 12.515625 C 20.042969 12.285156 20.019531 12.050781 19.996094 11.820312 C 19.988281 11.753906 19.984375 11.683594 19.976562 11.617188 C 19.96875 11.554688 19.964844 11.492188 19.957031 11.429688 C 19.953125 11.378906 19.945312 11.328125 19.941406 11.273438 C 19.921875 11.117188 19.921875 11.117188 19.863281 10.898438 C 16.652344 10.898438 13.445312 10.898438 10.136719 10.898438 Z M 13.652344 14.210938 C 13.136719 14.90625 13.210938 15.757812 13.21875 16.578125 C 13.21875 16.707031 13.21875 16.835938 13.21875 16.964844 C 13.222656 17.300781 13.222656 17.636719 13.226562 17.976562 C 13.230469 18.382812 13.230469 18.785156 13.230469 19.191406 C 13.234375 19.808594 13.238281 20.421875 13.242188 21.035156 C 14.402344 21.035156 15.5625 21.035156 16.757812 21.035156 C 16.761719 20.03125 16.761719 20.03125 16.765625 19.027344 C 16.765625 18.617188 16.769531 18.210938 16.769531 17.800781 C 16.773438 17.46875 16.773438 17.136719 16.773438 16.808594 C 16.773438 16.683594 16.777344 16.554688 16.777344 16.429688 C 16.8125 15.226562 16.8125 15.226562 16.296875 14.179688 C 15.851562 13.761719 15.410156 13.625 14.8125 13.628906 C 14.355469 13.675781 13.972656 13.890625 13.652344 14.210938 Z M 7.675781 21.679688 C 7.765625 21.910156 7.863281 22.105469 7.980469 22.320312 C 8.035156 22.417969 8.035156 22.417969 8.09375 22.515625 C 8.148438 22.617188 8.148438 22.617188 8.207031 22.71875 C 8.246094 22.789062 8.285156 22.855469 8.320312 22.925781 C 8.472656 23.226562 8.472656 23.226562 8.671875 23.496094 C 8.832031 23.503906 8.992188 23.507812 9.15625 23.511719 C 9.207031 23.511719 9.257812 23.511719 9.3125 23.511719 C 9.484375 23.515625 9.65625 23.515625 9.832031 23.519531 C 9.953125 23.519531 10.078125 23.523438 10.203125 23.523438 C 11.332031 23.539062 12.464844 23.546875 13.597656 23.550781 C 14.359375 23.558594 15.117188 23.5625 15.878906 23.574219 C 16.542969 23.585938 17.207031 23.589844 17.871094 23.59375 C 18.222656 23.59375 18.574219 23.597656 18.925781 23.601562 C 19.253906 23.609375 19.585938 23.613281 19.917969 23.609375 C 20.039062 23.609375 20.160156 23.613281 20.28125 23.617188 C 20.898438 23.652344 20.898438 23.652344 21.433594 23.398438 C 21.617188 23.160156 21.742188 22.902344 21.859375 22.625 C 21.941406 22.4375 22.046875 22.269531 22.15625 22.09375 C 22.285156 21.898438 22.285156 21.898438 22.324219 21.679688 C 17.492188 21.679688 12.65625 21.679688 7.675781 21.679688 Z M 10.078125 24.140625 C 10.078125 24.71875 10.078125 25.300781 10.078125 25.898438 C 13.328125 25.898438 16.574219 25.898438 19.921875 25.898438 C 19.921875 25.316406 19.921875 24.738281 19.921875 24.140625 C 16.671875 24.140625 13.425781 24.140625 10.078125 24.140625 Z M 8.789062 26.542969 C 9.117188 27.523438 9.554688 28.460938 9.960938 29.414062 C 13.285156 29.414062 16.613281 29.414062 20.039062 29.414062 C 20.714844 28.15625 20.714844 28.15625 21.210938 26.542969 C 17.113281 26.542969 13.011719 26.542969 8.789062 26.542969 Z M 8.789062 26.542969 "/>
<path style=" stroke:none;fill-rule:nonzero;fill:rgb(0%,0%,0%);fill-opacity:1;" d="M 3.75 10.664062 C 3.859375 10.757812 3.859375 10.757812 3.925781 10.898438 C 3.90625 11.214844 3.777344 11.433594 3.621094 11.699219 C 2.75 13.289062 2.585938 15.21875 3.074219 16.957031 C 3.246094 17.519531 3.460938 18.039062 3.765625 18.542969 C 3.871094 18.730469 3.925781 18.847656 3.921875 19.0625 C 3.867188 19.21875 3.867188 19.21875 3.691406 19.335938 C 3.519531 19.335938 3.519531 19.335938 3.339844 19.277344 C 2.53125 18.324219 2.148438 16.695312 2.109375 15.46875 C 2.105469 15.398438 2.105469 15.328125 2.101562 15.257812 C 2.070312 13.734375 2.398438 11.960938 3.339844 10.722656 C 3.492188 10.648438 3.582031 10.644531 3.75 10.664062 Z M 3.75 10.664062 "/>
<path style=" stroke:none;fill-rule:nonzero;fill:rgb(0%,0%,0%);fill-opacity:1;" d="M 26.445312 10.660156 C 26.679688 10.730469 26.746094 10.792969 26.863281 11.003906 C 26.882812 11.042969 26.902344 11.085938 26.921875 11.125 C 26.945312 11.167969 26.96875 11.210938 26.992188 11.253906 C 27.957031 13.140625 28.171875 15.367188 27.546875 17.398438 C 27.339844 18.019531 27.085938 18.773438 26.660156 19.277344 C 26.476562 19.359375 26.476562 19.359375 26.308594 19.335938 C 26.164062 19.246094 26.164062 19.246094 26.074219 19.101562 C 26.089844 18.78125 26.226562 18.554688 26.382812 18.285156 C 26.867188 17.398438 27.136719 16.421875 27.1875 15.410156 C 27.191406 15.351562 27.195312 15.292969 27.195312 15.234375 C 27.234375 13.816406 26.867188 12.320312 26.074219 11.132812 C 26.097656 10.835938 26.113281 10.667969 26.445312 10.660156 Z M 26.445312 10.660156 "/>
<path style=" stroke:none;fill-rule:nonzero;fill:rgb(0%,0%,0%);fill-opacity:1;" d="M 5.15625 11.425781 C 5.363281 11.441406 5.363281 11.441406 5.566406 11.484375 C 5.652344 11.652344 5.640625 11.765625 5.625 11.953125 C 5.558594 12.101562 5.488281 12.242188 5.410156 12.386719 C 4.71875 13.707031 4.554688 15.214844 4.988281 16.652344 C 5.109375 17.03125 5.28125 17.382812 5.472656 17.730469 C 5.597656 17.964844 5.65625 18.132812 5.625 18.398438 C 5.554688 18.507812 5.554688 18.507812 5.449219 18.574219 C 5.304688 18.601562 5.304688 18.601562 5.15625 18.574219 C 4.941406 18.347656 4.816406 18.09375 4.6875 17.8125 C 4.667969 17.769531 4.648438 17.726562 4.625 17.679688 C 4.453125 17.304688 4.320312 16.925781 4.21875 16.523438 C 4.207031 16.476562 4.195312 16.429688 4.179688 16.382812 C 3.789062 14.730469 4.175781 12.976562 5.039062 11.542969 C 5.078125 11.503906 5.117188 11.464844 5.15625 11.425781 Z M 5.15625 11.425781 "/>
<path style=" stroke:none;fill-rule:nonzero;fill:rgb(0%,0%,0%);fill-opacity:1;" d="M 24.84375 11.425781 C 25.058594 11.652344 25.183594 11.90625 25.3125 12.1875 C 25.332031 12.230469 25.351562 12.277344 25.375 12.320312 C 26.09375 13.902344 26.125 15.671875 25.539062 17.296875 C 25.148438 18.269531 25.148438 18.269531 24.84375 18.574219 C 24.636719 18.558594 24.636719 18.558594 24.433594 18.515625 C 24.347656 18.347656 24.359375 18.234375 24.375 18.046875 C 24.441406 17.898438 24.511719 17.757812 24.589844 17.613281 C 25.28125 16.292969 25.445312 14.785156 25.011719 13.347656 C 24.890625 12.96875 24.71875 12.617188 24.527344 12.269531 C 24.402344 12.035156 24.34375 11.867188 24.375 11.601562 C 24.496094 11.410156 24.625 11.382812 24.84375 11.425781 Z M 24.84375 11.425781 "/>
<path style=" stroke:none;fill-rule:nonzero;fill:rgb(0%,0%,0%);fill-opacity:1;" d="M 23.011719 12.617188 C 23.230469 12.664062 23.257812 12.691406 23.382812 12.863281 C 23.917969 13.75 24.054688 14.890625 23.867188 15.898438 C 23.742188 16.390625 23.570312 16.976562 23.203125 17.34375 C 23.03125 17.367188 23.03125 17.367188 22.851562 17.34375 C 22.738281 17.246094 22.738281 17.246094 22.675781 17.109375 C 22.703125 16.863281 22.796875 16.667969 22.90625 16.449219 C 23.273438 15.664062 23.332031 14.773438 23.089844 13.933594 C 22.996094 13.6875 22.871094 13.453125 22.742188 13.222656 C 22.664062 13.039062 22.667969 12.957031 22.734375 12.773438 C 22.851562 12.65625 22.851562 12.65625 23.011719 12.617188 Z M 23.011719 12.617188 "/>
<path style=" stroke:none;fill-rule:nonzero;fill:rgb(0%,0%,0%);fill-opacity:1;" d="M 6.96875 12.632812 C 7.148438 12.65625 7.148438 12.65625 7.261719 12.753906 C 7.34375 12.929688 7.316406 13 7.265625 13.183594 C 7.210938 13.308594 7.152344 13.429688 7.09375 13.550781 C 6.726562 14.335938 6.667969 15.226562 6.910156 16.066406 C 7.003906 16.3125 7.128906 16.546875 7.257812 16.777344 C 7.335938 16.960938 7.332031 17.042969 7.265625 17.226562 C 7.148438 17.34375 7.148438 17.34375 6.988281 17.382812 C 6.769531 17.335938 6.742188 17.308594 6.617188 17.136719 C 6.082031 16.25 5.945312 15.109375 6.132812 14.101562 C 6.484375 12.695312 6.484375 12.695312 6.96875 12.632812 Z M 6.96875 12.632812 "/>
</g>
</svg>
