<?xml version="1.0" encoding="UTF-8"?>
<svg xmlns="http://www.w3.org/2000/svg" xmlns:xlink="http://www.w3.org/1999/xlink" width="30px" height="px" viewBox="0 0 30 30" version="1.1">
<g id="surface1">
<path style=" stroke:none;fill-rule:nonzero;fill:rgb(0%,0%,0%);fill-opacity:1;" d="M 14.886719 0.277344 C 14.957031 0.277344 15.03125 0.273438 15.105469 0.273438 C 15.292969 0.292969 15.292969 0.292969 15.40625 0.371094 C 15.46875 0.46875 15.46875 0.46875 15.46875 0.644531 C 15.394531 0.871094 15.328125 0.890625 15.117188 0.996094 C 14.773438 1.199219 14.578125 1.398438 14.445312 1.78125 C 14.371094 2.132812 14.425781 2.40625 14.601562 2.714844 C 14.78125 2.972656 14.992188 3.121094 15.292969 3.222656 C 15.699219 3.265625 16.007812 3.21875 16.347656 2.988281 C 16.40625 2.929688 16.40625 2.929688 16.464844 2.871094 C 16.671875 2.851562 16.671875 2.851562 16.875 2.871094 C 16.992188 3.046875 16.992188 3.046875 16.984375 3.242188 C 16.871094 3.71875 16.503906 4.058594 16.113281 4.335938 C 15.828125 4.484375 15.558594 4.597656 15.234375 4.628906 C 15.234375 4.804688 15.234375 4.976562 15.234375 5.15625 C 15.28125 5.160156 15.332031 5.160156 15.382812 5.164062 C 15.714844 5.246094 15.9375 5.417969 16.148438 5.6875 C 16.34375 6.015625 16.339844 6.21875 16.28125 6.589844 C 16.269531 6.828125 16.28125 7.011719 16.4375 7.199219 C 16.757812 7.480469 17.132812 7.691406 17.5 7.90625 C 17.617188 7.980469 17.734375 8.050781 17.851562 8.125 C 18.089844 8.273438 18.332031 8.421875 18.574219 8.570312 C 19.054688 8.867188 19.527344 9.183594 19.996094 9.503906 C 20.128906 9.597656 20.265625 9.6875 20.402344 9.777344 C 21.605469 10.585938 22.550781 11.4375 22.882812 12.910156 C 23.089844 14.078125 22.828125 15.183594 22.207031 16.171875 C 22.109375 16.289062 22.015625 16.402344 21.914062 16.523438 C 22.628906 16.542969 23.34375 16.5625 24.082031 16.582031 C 24.082031 15.46875 24.082031 14.355469 24.078125 13.242188 C 24.074219 12.722656 24.074219 12.207031 24.074219 11.6875 C 24.074219 11.238281 24.074219 10.785156 24.074219 10.335938 C 24.070312 10.097656 24.070312 9.859375 24.070312 9.621094 C 24.074219 9.394531 24.070312 9.167969 24.070312 8.945312 C 24.070312 8.863281 24.070312 8.78125 24.070312 8.699219 C 24.074219 8.167969 24.011719 7.851562 23.671875 7.441406 C 23.589844 7.3125 23.515625 7.183594 23.441406 7.050781 C 23.40625 6.988281 23.371094 6.925781 23.332031 6.863281 C 23.25 6.648438 23.246094 6.546875 23.320312 6.328125 C 23.449219 6.191406 23.519531 6.15625 23.707031 6.136719 C 23.808594 6.140625 23.910156 6.144531 24.011719 6.148438 C 24.074219 6.148438 24.074219 6.148438 24.140625 6.152344 C 24.148438 6.117188 24.15625 6.078125 24.164062 6.042969 C 24.300781 5.476562 24.46875 4.917969 24.640625 4.359375 C 24.671875 4.246094 24.707031 4.132812 24.742188 4.019531 C 24.789062 3.855469 24.839844 3.6875 24.890625 3.523438 C 24.902344 3.472656 24.917969 3.425781 24.933594 3.371094 C 25.023438 3.085938 25.097656 2.914062 25.371094 2.753906 C 25.566406 2.726562 25.671875 2.722656 25.84375 2.828125 C 25.972656 2.941406 26.007812 3.015625 26.054688 3.175781 C 26.070312 3.226562 26.085938 3.277344 26.105469 3.328125 C 26.121094 3.382812 26.136719 3.433594 26.152344 3.488281 C 26.171875 3.546875 26.1875 3.601562 26.207031 3.660156 C 26.261719 3.835938 26.316406 4.015625 26.371094 4.191406 C 26.40625 4.3125 26.445312 4.429688 26.480469 4.546875 C 26.640625 5.0625 26.800781 5.578125 26.953125 6.09375 C 26.996094 6.097656 27.039062 6.097656 27.082031 6.101562 C 27.492188 6.121094 27.492188 6.121094 27.691406 6.246094 C 27.808594 6.445312 27.796875 6.566406 27.773438 6.796875 C 27.695312 6.980469 27.59375 7.144531 27.488281 7.3125 C 27.460938 7.359375 27.433594 7.402344 27.40625 7.449219 C 27.210938 7.769531 27.210938 7.769531 27.070312 7.910156 C 27.050781 8.066406 27.050781 8.066406 27.054688 8.253906 C 27.054688 8.328125 27.050781 8.398438 27.050781 8.476562 C 27.050781 8.554688 27.050781 8.636719 27.050781 8.71875 C 27.050781 8.804688 27.050781 8.890625 27.050781 8.976562 C 27.046875 9.207031 27.046875 9.441406 27.046875 9.671875 C 27.046875 9.914062 27.042969 10.160156 27.042969 10.402344 C 27.039062 10.859375 27.039062 11.320312 27.035156 11.78125 C 27.035156 12.304688 27.03125 12.828125 27.027344 13.351562 C 27.023438 14.429688 27.015625 15.503906 27.011719 16.582031 C 27.082031 16.582031 27.082031 16.582031 27.15625 16.578125 C 27.21875 16.578125 27.28125 16.578125 27.347656 16.574219 C 27.441406 16.574219 27.441406 16.574219 27.535156 16.574219 C 27.792969 16.585938 27.980469 16.65625 28.183594 16.816406 C 28.480469 17.1875 28.488281 17.488281 28.492188 17.945312 C 28.492188 18.027344 28.492188 18.027344 28.496094 18.109375 C 28.496094 18.488281 28.464844 18.78125 28.21875 19.085938 C 28.011719 19.253906 27.859375 19.300781 27.597656 19.335938 C 27.597656 19.386719 27.597656 19.433594 27.597656 19.484375 C 27.601562 20.6875 27.605469 21.894531 27.605469 23.097656 C 27.609375 23.679688 27.609375 24.261719 27.609375 24.84375 C 27.613281 25.351562 27.613281 25.855469 27.613281 26.363281 C 27.613281 26.632812 27.613281 26.902344 27.617188 27.171875 C 27.617188 27.421875 27.617188 27.675781 27.617188 27.929688 C 27.617188 28.023438 27.617188 28.113281 27.617188 28.207031 C 27.621094 28.332031 27.621094 28.460938 27.617188 28.585938 C 27.617188 28.660156 27.617188 28.730469 27.621094 28.800781 C 27.585938 29.125 27.484375 29.347656 27.265625 29.582031 C 27.039062 29.726562 26.871094 29.75 26.613281 29.742188 C 26.570312 29.742188 26.527344 29.746094 26.484375 29.746094 C 26.390625 29.746094 26.300781 29.742188 26.210938 29.742188 C 26.074219 29.738281 25.9375 29.742188 25.800781 29.742188 C 25.710938 29.742188 25.625 29.742188 25.535156 29.738281 C 25.476562 29.742188 25.476562 29.742188 25.414062 29.742188 C 25.117188 29.734375 24.949219 29.664062 24.726562 29.472656 C 24.519531 29.222656 24.464844 29.050781 24.460938 28.726562 C 24.460938 28.652344 24.460938 28.578125 24.460938 28.503906 C 24.460938 28.425781 24.460938 28.351562 24.460938 28.273438 C 24.457031 28.121094 24.457031 27.96875 24.457031 27.816406 C 24.457031 27.714844 24.457031 27.714844 24.457031 27.613281 C 24.425781 27.339844 24.34375 27.140625 24.128906 26.964844 C 24.082031 26.9375 24.039062 26.910156 23.992188 26.882812 C 23.808594 26.773438 23.734375 26.722656 23.613281 26.542969 C 23.570312 26.117188 23.675781 25.941406 23.941406 25.605469 C 24.152344 25.320312 24.238281 25.113281 24.234375 24.757812 C 24.132812 24.332031 23.894531 24.113281 23.546875 23.875 C 23.507812 23.851562 23.46875 23.824219 23.429688 23.792969 C 23.351562 23.738281 23.273438 23.683594 23.195312 23.632812 C 23.097656 23.5625 23.003906 23.492188 22.910156 23.417969 C 22.859375 23.378906 22.808594 23.339844 22.757812 23.300781 C 22.714844 23.269531 22.671875 23.234375 22.625 23.199219 C 22.5 23.128906 22.5 23.128906 22.367188 23.171875 C 22.148438 23.292969 21.949219 23.429688 21.746094 23.574219 C 21.707031 23.601562 21.664062 23.628906 21.625 23.65625 C 21.542969 23.710938 21.464844 23.769531 21.386719 23.824219 C 21.308594 23.878906 21.230469 23.933594 21.152344 23.984375 C 20.867188 24.179688 20.726562 24.339844 20.625 24.667969 C 20.574219 24.984375 20.628906 25.21875 20.800781 25.488281 C 20.871094 25.574219 20.941406 25.660156 21.011719 25.75 C 21.191406 25.972656 21.28125 26.128906 21.269531 26.425781 C 21.152344 26.667969 21.019531 26.789062 20.792969 26.933594 C 20.585938 27.058594 20.585938 27.058594 20.449219 27.246094 C 20.441406 27.367188 20.4375 27.492188 20.4375 27.613281 C 20.433594 27.6875 20.433594 27.765625 20.433594 27.839844 C 20.429688 27.996094 20.425781 28.152344 20.425781 28.3125 C 20.410156 28.804688 20.402344 29.144531 20.066406 29.523438 C 19.761719 29.789062 19.414062 29.722656 19.027344 29.726562 C 18.957031 29.726562 18.882812 29.730469 18.808594 29.730469 C 18.515625 29.734375 18.285156 29.734375 18.011719 29.617188 C 17.683594 29.277344 17.601562 28.929688 17.609375 28.46875 C 17.609375 28.421875 17.609375 28.371094 17.609375 28.320312 C 17.605469 28.164062 17.605469 28.011719 17.609375 27.855469 C 17.609375 27.648438 17.605469 27.441406 17.605469 27.238281 C 17.605469 27.167969 17.605469 27.167969 17.609375 27.09375 C 17.605469 26.785156 17.546875 26.613281 17.34375 26.367188 C 17.210938 26.246094 17.09375 26.183594 16.929688 26.105469 C 16.691406 25.980469 16.613281 25.875 16.53125 25.621094 C 16.515625 25.25 16.652344 25 16.902344 24.730469 C 17.179688 24.429688 17.351562 24.113281 17.371094 23.699219 C 17.34375 23.265625 17.203125 22.957031 16.886719 22.660156 C 16.6875 22.5 16.476562 22.363281 16.261719 22.226562 C 16.101562 22.125 15.949219 22.011719 15.796875 21.898438 C 15.753906 21.867188 15.710938 21.835938 15.664062 21.800781 C 15.578125 21.734375 15.488281 21.667969 15.402344 21.601562 C 15.289062 21.519531 15.183594 21.445312 15.058594 21.386719 C 14.894531 21.402344 14.894531 21.402344 14.765625 21.503906 C 14.71875 21.535156 14.675781 21.5625 14.628906 21.59375 C 14.582031 21.632812 14.53125 21.667969 14.484375 21.707031 C 14.285156 21.851562 14.089844 21.996094 13.886719 22.128906 C 13.179688 22.585938 13.179688 22.585938 12.6875 23.257812 C 12.613281 23.671875 12.617188 24.058594 12.832031 24.433594 C 12.960938 24.601562 13.097656 24.765625 13.238281 24.925781 C 13.386719 25.113281 13.480469 25.261719 13.472656 25.507812 C 13.421875 25.730469 13.390625 25.867188 13.226562 26.039062 C 13.066406 26.132812 13.066406 26.132812 12.886719 26.21875 C 12.660156 26.335938 12.535156 26.492188 12.421875 26.71875 C 12.414062 26.882812 12.414062 27.046875 12.410156 27.214844 C 12.410156 27.316406 12.410156 27.417969 12.40625 27.519531 C 12.40625 27.679688 12.402344 27.839844 12.402344 28 C 12.402344 28.152344 12.398438 28.308594 12.398438 28.460938 C 12.398438 28.507812 12.398438 28.558594 12.398438 28.605469 C 12.386719 29.011719 12.273438 29.324219 11.988281 29.617188 C 11.660156 29.757812 11.34375 29.746094 10.992188 29.746094 C 10.921875 29.75 10.855469 29.753906 10.78125 29.753906 C 10.367188 29.757812 10.117188 29.710938 9.8125 29.417969 C 9.621094 29.144531 9.59375 28.875 9.59375 28.550781 C 9.59375 28.4375 9.59375 28.4375 9.59375 28.324219 C 9.589844 28.167969 9.589844 28.015625 9.589844 27.859375 C 9.589844 27.785156 9.589844 27.710938 9.589844 27.632812 C 9.589844 27.566406 9.585938 27.5 9.585938 27.429688 C 9.539062 27.191406 9.441406 27.105469 9.257812 26.953125 C 9.199219 26.914062 9.136719 26.875 9.074219 26.835938 C 8.890625 26.707031 8.8125 26.632812 8.730469 26.425781 C 8.707031 26.042969 8.914062 25.820312 9.144531 25.527344 C 9.347656 25.246094 9.410156 25.015625 9.375 24.667969 C 9.242188 24.265625 9.007812 24.066406 8.660156 23.839844 C 8.59375 23.796875 8.59375 23.796875 8.527344 23.75 C 8.4375 23.691406 8.351562 23.632812 8.261719 23.574219 C 8.164062 23.507812 8.066406 23.4375 7.972656 23.367188 C 7.925781 23.335938 7.882812 23.304688 7.835938 23.269531 C 7.800781 23.242188 7.765625 23.214844 7.726562 23.183594 C 7.613281 23.132812 7.613281 23.132812 7.484375 23.175781 C 7.273438 23.289062 7.085938 23.425781 6.894531 23.570312 C 6.816406 23.628906 6.738281 23.6875 6.660156 23.746094 C 6.605469 23.785156 6.605469 23.785156 6.546875 23.828125 C 6.464844 23.894531 6.375 23.953125 6.289062 24.015625 C 6.046875 24.183594 5.890625 24.316406 5.800781 24.609375 C 5.746094 24.949219 5.769531 25.1875 5.960938 25.472656 C 6.023438 25.558594 6.085938 25.640625 6.152344 25.722656 C 6.308594 25.921875 6.402344 26.0625 6.414062 26.3125 C 6.382812 26.570312 6.34375 26.660156 6.152344 26.835938 C 6.035156 26.894531 5.917969 26.953125 5.800781 27.011719 C 5.578125 27.257812 5.558594 27.472656 5.554688 27.796875 C 5.554688 27.871094 5.554688 27.949219 5.550781 28.023438 C 5.550781 28.179688 5.546875 28.335938 5.546875 28.496094 C 5.542969 28.570312 5.542969 28.644531 5.542969 28.722656 C 5.539062 28.789062 5.539062 28.859375 5.539062 28.929688 C 5.488281 29.238281 5.347656 29.410156 5.109375 29.609375 C 4.882812 29.726562 4.730469 29.738281 4.476562 29.734375 C 4.433594 29.734375 4.390625 29.734375 4.347656 29.738281 C 4.261719 29.734375 4.171875 29.734375 4.085938 29.734375 C 3.953125 29.734375 3.816406 29.734375 3.683594 29.734375 C 2.960938 29.730469 2.960938 29.730469 2.695312 29.53125 C 2.414062 29.226562 2.394531 29.015625 2.394531 28.609375 C 2.394531 28.570312 2.394531 28.53125 2.394531 28.488281 C 2.394531 28.355469 2.394531 28.222656 2.394531 28.089844 C 2.394531 27.996094 2.394531 27.898438 2.394531 27.804688 C 2.394531 27.546875 2.394531 27.285156 2.394531 27.027344 C 2.398438 26.757812 2.398438 26.488281 2.398438 26.21875 C 2.398438 25.703125 2.398438 25.191406 2.398438 24.679688 C 2.398438 24.097656 2.398438 23.515625 2.398438 22.933594 C 2.398438 21.734375 2.402344 20.535156 2.402344 19.335938 C 2.347656 19.328125 2.292969 19.320312 2.238281 19.3125 C 2.003906 19.269531 1.847656 19.167969 1.699219 18.984375 C 1.511719 18.640625 1.496094 18.347656 1.496094 17.960938 C 1.496094 17.910156 1.496094 17.855469 1.496094 17.800781 C 1.496094 17.449219 1.546875 17.167969 1.757812 16.875 C 2.054688 16.636719 2.273438 16.574219 2.648438 16.578125 C 2.710938 16.578125 2.773438 16.578125 2.839844 16.578125 C 2.890625 16.582031 2.9375 16.582031 2.988281 16.582031 C 2.984375 15.457031 2.984375 14.332031 2.976562 13.207031 C 2.976562 12.683594 2.972656 12.160156 2.972656 11.636719 C 2.972656 11.183594 2.96875 10.726562 2.96875 10.269531 C 2.964844 10.03125 2.964844 9.789062 2.964844 9.546875 C 2.964844 9.320312 2.964844 9.09375 2.960938 8.867188 C 2.960938 8.78125 2.960938 8.699219 2.960938 8.617188 C 2.960938 8.503906 2.960938 8.386719 2.960938 8.273438 C 2.960938 8.210938 2.960938 8.148438 2.960938 8.082031 C 2.921875 7.867188 2.839844 7.777344 2.695312 7.617188 C 2.609375 7.484375 2.527344 7.351562 2.445312 7.214844 C 2.425781 7.179688 2.402344 7.144531 2.382812 7.109375 C 2.234375 6.859375 2.199219 6.675781 2.226562 6.386719 C 2.308594 6.246094 2.308594 6.246094 2.460938 6.152344 C 2.5625 6.136719 2.664062 6.125 2.761719 6.117188 C 2.816406 6.113281 2.871094 6.109375 2.925781 6.101562 C 2.964844 6.101562 3.003906 6.097656 3.046875 6.09375 C 3.058594 6.054688 3.070312 6.015625 3.082031 5.976562 C 3.195312 5.605469 3.308594 5.234375 3.425781 4.863281 C 3.484375 4.675781 3.542969 4.484375 3.601562 4.292969 C 3.667969 4.074219 3.734375 3.859375 3.800781 3.640625 C 3.824219 3.570312 3.84375 3.503906 3.863281 3.433594 C 3.882812 3.367188 3.90625 3.304688 3.925781 3.238281 C 3.941406 3.183594 3.960938 3.128906 3.976562 3.070312 C 4.054688 2.90625 4.121094 2.84375 4.277344 2.753906 C 4.480469 2.722656 4.589844 2.734375 4.773438 2.828125 C 5.003906 3.074219 5.0625 3.355469 5.15625 3.671875 C 5.175781 3.742188 5.195312 3.808594 5.21875 3.875 C 5.28125 4.089844 5.34375 4.304688 5.410156 4.519531 C 5.453125 4.664062 5.496094 4.808594 5.539062 4.953125 C 5.621094 5.21875 5.699219 5.480469 5.777344 5.746094 C 5.792969 5.800781 5.808594 5.851562 5.824219 5.90625 C 5.859375 6.035156 5.859375 6.035156 5.859375 6.152344 C 5.898438 6.148438 5.9375 6.144531 5.976562 6.140625 C 6.25 6.128906 6.398438 6.121094 6.632812 6.277344 C 6.738281 6.445312 6.738281 6.445312 6.734375 6.597656 C 6.660156 6.871094 6.53125 7.09375 6.390625 7.339844 C 6.363281 7.386719 6.335938 7.433594 6.308594 7.484375 C 6.109375 7.835938 6.109375 7.835938 5.976562 7.96875 C 5.957031 8.125 5.957031 8.125 5.960938 8.308594 C 5.960938 8.382812 5.957031 8.457031 5.957031 8.53125 C 5.957031 8.609375 5.957031 8.691406 5.957031 8.773438 C 5.957031 8.859375 5.957031 8.941406 5.957031 9.027344 C 5.953125 9.257812 5.953125 9.488281 5.953125 9.71875 C 5.953125 9.960938 5.949219 10.203125 5.949219 10.441406 C 5.945312 10.898438 5.945312 11.355469 5.941406 11.8125 C 5.941406 12.332031 5.9375 12.851562 5.933594 13.375 C 5.929688 14.441406 5.921875 15.511719 5.917969 16.582031 C 6.632812 16.5625 7.347656 16.542969 8.085938 16.523438 C 7.929688 16.3125 7.777344 16.097656 7.617188 15.878906 C 7.050781 14.878906 6.914062 13.707031 7.179688 12.589844 C 7.617188 11.207031 8.589844 10.445312 9.75 9.6875 C 9.953125 9.550781 10.15625 9.417969 10.359375 9.285156 C 10.410156 9.25 10.464844 9.214844 10.519531 9.175781 C 10.921875 8.910156 11.320312 8.640625 11.722656 8.371094 C 11.78125 8.332031 11.835938 8.292969 11.898438 8.25 C 12.125 8.097656 12.351562 7.941406 12.578125 7.789062 C 12.738281 7.679688 12.894531 7.574219 13.054688 7.464844 C 13.101562 7.433594 13.148438 7.402344 13.195312 7.367188 C 13.238281 7.339844 13.28125 7.308594 13.328125 7.28125 C 13.363281 7.253906 13.402344 7.230469 13.441406 7.203125 C 13.535156 7.148438 13.535156 7.148438 13.652344 7.148438 C 13.644531 7.117188 13.632812 7.085938 13.625 7.054688 C 13.53125 6.625 13.515625 6.109375 13.75 5.722656 C 13.957031 5.460938 14.203125 5.246094 14.53125 5.15625 C 14.589844 5.15625 14.648438 5.15625 14.707031 5.15625 C 14.707031 4.980469 14.707031 4.808594 14.707031 4.628906 C 14.664062 4.621094 14.617188 4.613281 14.574219 4.605469 C 13.882812 4.460938 13.441406 4.152344 13.042969 3.566406 C 12.738281 3.027344 12.683594 2.40625 12.839844 1.808594 C 13.042969 1.207031 13.457031 0.738281 14.019531 0.445312 C 14.308594 0.308594 14.5625 0.28125 14.886719 0.277344 Z M 13.761719 1.292969 C 13.421875 1.644531 13.277344 2.066406 13.285156 2.542969 C 13.332031 2.980469 13.507812 3.390625 13.828125 3.691406 C 14.316406 4.027344 14.699219 4.164062 15.292969 4.101562 C 15.480469 4.039062 15.648438 3.960938 15.820312 3.867188 C 15.820312 3.847656 15.820312 3.828125 15.820312 3.808594 C 15.765625 3.804688 15.714844 3.796875 15.660156 3.792969 C 15.09375 3.726562 14.667969 3.625 14.273438 3.199219 C 13.964844 2.808594 13.855469 2.371094 13.886719 1.875 C 13.925781 1.722656 13.96875 1.574219 14.019531 1.425781 C 14.058594 1.304688 14.089844 1.179688 14.121094 1.054688 C 13.984375 1.054688 13.859375 1.210938 13.761719 1.292969 Z M 4.453125 3.515625 C 4.320312 3.8125 4.214844 4.109375 4.121094 4.421875 C 4.105469 4.46875 4.089844 4.515625 4.078125 4.5625 C 4.046875 4.660156 4.019531 4.753906 3.988281 4.851562 C 3.945312 5 3.898438 5.148438 3.851562 5.296875 C 3.824219 5.390625 3.796875 5.484375 3.769531 5.578125 C 3.753906 5.621094 3.742188 5.664062 3.726562 5.710938 C 3.65625 5.925781 3.65625 5.925781 3.632812 6.152344 C 4.175781 6.152344 4.714844 6.152344 5.273438 6.152344 C 5.226562 5.8125 5.226562 5.8125 5.144531 5.492188 C 5.128906 5.445312 5.117188 5.402344 5.101562 5.355469 C 5.085938 5.308594 5.070312 5.261719 5.054688 5.214844 C 5.039062 5.167969 5.023438 5.117188 5.007812 5.066406 C 4.960938 4.914062 4.910156 4.757812 4.859375 4.601562 C 4.824219 4.496094 4.792969 4.390625 4.757812 4.285156 C 4.675781 4.03125 4.59375 3.773438 4.511719 3.515625 C 4.492188 3.515625 4.472656 3.515625 4.453125 3.515625 Z M 25.488281 3.515625 C 25.378906 3.851562 25.269531 4.191406 25.164062 4.527344 C 25.125 4.644531 25.089844 4.757812 25.050781 4.875 C 25 5.039062 24.945312 5.203125 24.894531 5.371094 C 24.875 5.421875 24.859375 5.472656 24.84375 5.523438 C 24.820312 5.597656 24.820312 5.597656 24.796875 5.671875 C 24.78125 5.714844 24.769531 5.753906 24.753906 5.796875 C 24.71875 5.933594 24.71875 5.933594 24.726562 6.152344 C 25.269531 6.152344 25.808594 6.152344 26.367188 6.152344 C 26.21875 5.558594 26.21875 5.558594 26.050781 4.972656 C 26.039062 4.933594 26.023438 4.890625 26.011719 4.851562 C 25.988281 4.765625 25.960938 4.683594 25.933594 4.597656 C 25.894531 4.46875 25.855469 4.339844 25.816406 4.210938 C 25.789062 4.128906 25.765625 4.046875 25.738281 3.964844 C 25.714844 3.890625 25.691406 3.816406 25.667969 3.742188 C 25.625 3.566406 25.625 3.566406 25.488281 3.515625 Z M 14.210938 6.015625 C 14.097656 6.265625 14.097656 6.46875 14.121094 6.738281 C 14.359375 6.660156 14.359375 6.660156 14.589844 6.5625 C 15.03125 6.53125 15.429688 6.515625 15.820312 6.738281 C 15.84375 6.382812 15.824219 6.203125 15.585938 5.917969 C 15.394531 5.722656 15.226562 5.636719 14.949219 5.617188 C 14.636719 5.640625 14.417969 5.792969 14.210938 6.015625 Z M 2.8125 6.679688 C 3.039062 7.148438 3.039062 7.148438 3.339844 7.558594 C 3.507812 7.5625 3.675781 7.566406 3.84375 7.5625 C 3.894531 7.5625 3.945312 7.5625 4 7.5625 C 4.160156 7.5625 4.324219 7.5625 4.484375 7.5625 C 4.597656 7.5625 4.707031 7.5625 4.816406 7.5625 C 5.085938 7.5625 5.355469 7.558594 5.625 7.558594 C 5.703125 7.421875 5.78125 7.289062 5.859375 7.152344 C 5.894531 7.09375 5.894531 7.09375 5.925781 7.035156 C 6.042969 6.867188 6.042969 6.867188 6.09375 6.679688 C 5.011719 6.679688 3.929688 6.679688 2.8125 6.679688 Z M 23.90625 6.679688 C 24.097656 7.148438 24.097656 7.148438 24.375 7.558594 C 24.695312 7.582031 25.015625 7.585938 25.335938 7.59375 C 25.445312 7.59375 25.550781 7.597656 25.660156 7.601562 C 26.261719 7.652344 26.261719 7.652344 26.804688 7.449219 C 26.898438 7.3125 26.957031 7.1875 27.011719 7.03125 C 27.070312 6.914062 27.128906 6.800781 27.1875 6.679688 C 26.105469 6.679688 25.023438 6.679688 23.90625 6.679688 Z M 13.722656 7.664062 C 13.675781 7.699219 13.628906 7.730469 13.578125 7.765625 C 13.417969 7.871094 13.261719 7.976562 13.101562 8.085938 C 12.992188 8.160156 12.882812 8.238281 12.769531 8.3125 C 12.597656 8.429688 12.425781 8.546875 12.25 8.664062 C 11.839844 8.941406 11.425781 9.21875 11.011719 9.496094 C 10.84375 9.609375 10.671875 9.726562 10.503906 9.839844 C 10.394531 9.914062 10.285156 9.984375 10.175781 10.058594 C 9.183594 10.683594 9.183594 10.683594 8.351562 11.492188 C 8.292969 11.5625 8.292969 11.5625 8.238281 11.632812 C 8.136719 11.792969 8.082031 11.945312 8.027344 12.128906 C 8.183594 12.34375 8.328125 12.515625 8.597656 12.574219 C 8.78125 12.582031 8.960938 12.582031 9.144531 12.574219 C 9.839844 12.558594 9.839844 12.558594 10.0625 12.746094 C 10.105469 12.792969 10.152344 12.839844 10.195312 12.890625 C 10.324219 12.832031 10.429688 12.773438 10.535156 12.683594 C 10.695312 12.578125 10.789062 12.578125 10.980469 12.582031 C 11.039062 12.582031 11.101562 12.582031 11.164062 12.582031 C 11.292969 12.582031 11.417969 12.585938 11.546875 12.585938 C 11.894531 12.589844 11.894531 12.589844 12.203125 12.445312 C 12.3125 12.335938 12.3125 12.335938 12.402344 12.222656 C 12.480469 12.128906 12.480469 12.128906 12.625 12.078125 C 12.796875 12.136719 12.832031 12.195312 12.945312 12.335938 C 13.128906 12.527344 13.253906 12.570312 13.519531 12.582031 C 13.644531 12.582031 13.765625 12.578125 13.890625 12.574219 C 14.585938 12.558594 14.585938 12.558594 14.808594 12.746094 C 14.851562 12.792969 14.898438 12.839844 14.941406 12.890625 C 15.070312 12.832031 15.175781 12.773438 15.28125 12.683594 C 15.441406 12.578125 15.535156 12.578125 15.726562 12.582031 C 15.785156 12.582031 15.847656 12.582031 15.910156 12.582031 C 16.039062 12.582031 16.164062 12.585938 16.292969 12.585938 C 16.640625 12.589844 16.640625 12.589844 16.949219 12.445312 C 17.058594 12.335938 17.058594 12.335938 17.148438 12.222656 C 17.226562 12.128906 17.226562 12.128906 17.375 12.078125 C 17.542969 12.136719 17.578125 12.195312 17.691406 12.335938 C 17.875 12.527344 18 12.570312 18.265625 12.582031 C 18.390625 12.582031 18.511719 12.578125 18.636719 12.574219 C 19.332031 12.558594 19.332031 12.558594 19.554688 12.746094 C 19.597656 12.792969 19.644531 12.839844 19.6875 12.890625 C 19.816406 12.832031 19.921875 12.773438 20.027344 12.683594 C 20.1875 12.578125 20.28125 12.578125 20.472656 12.582031 C 20.53125 12.582031 20.59375 12.582031 20.65625 12.582031 C 20.785156 12.582031 20.910156 12.585938 21.039062 12.585938 C 21.371094 12.585938 21.570312 12.574219 21.8125 12.332031 C 21.867188 12.265625 21.921875 12.199219 21.972656 12.128906 C 21.898438 11.859375 21.796875 11.675781 21.621094 11.460938 C 21.578125 11.410156 21.539062 11.359375 21.496094 11.308594 C 21.058594 10.824219 20.480469 10.480469 19.941406 10.125 C 19.707031 9.972656 19.476562 9.820312 19.246094 9.664062 C 19.171875 9.617188 19.171875 9.617188 19.097656 9.566406 C 18.492188 9.164062 17.886719 8.757812 17.285156 8.351562 C 17.179688 8.277344 17.070312 8.203125 16.964844 8.132812 C 16.914062 8.097656 16.863281 8.0625 16.808594 8.027344 C 16.621094 7.898438 16.429688 7.773438 16.238281 7.644531 C 16.121094 7.566406 16.007812 7.484375 15.890625 7.40625 C 15.828125 7.363281 15.765625 7.320312 15.699219 7.277344 C 15.648438 7.242188 15.59375 7.207031 15.539062 7.171875 C 14.871094 6.753906 14.269531 7.292969 13.722656 7.664062 Z M 3.515625 8.085938 C 3.515625 10.890625 3.515625 13.695312 3.515625 16.582031 C 4.132812 16.582031 4.753906 16.582031 5.390625 16.582031 C 5.390625 13.777344 5.390625 10.976562 5.390625 8.085938 C 4.773438 8.085938 4.152344 8.085938 3.515625 8.085938 Z M 24.609375 8.085938 C 24.609375 10.890625 24.609375 13.695312 24.609375 16.582031 C 25.226562 16.582031 25.847656 16.582031 26.484375 16.582031 C 26.484375 13.777344 26.484375 10.976562 26.484375 8.085938 C 25.867188 8.085938 25.246094 8.085938 24.609375 8.085938 Z M 7.734375 12.65625 C 7.636719 13.027344 7.59375 13.375 7.59375 13.753906 C 7.59375 13.804688 7.59375 13.855469 7.59375 13.910156 C 7.601562 14.351562 7.640625 14.90625 7.96875 15.234375 C 8.003906 15.195312 8.035156 15.15625 8.070312 15.117188 C 8.398438 14.914062 8.773438 14.976562 9.144531 14.988281 C 9.492188 14.992188 9.492188 14.992188 9.796875 14.847656 C 9.90625 14.738281 9.90625 14.738281 9.996094 14.625 C 10.078125 14.53125 10.078125 14.53125 10.253906 14.480469 C 10.453125 14.539062 10.476562 14.578125 10.601562 14.738281 C 10.789062 14.933594 10.917969 14.972656 11.1875 14.984375 C 11.316406 14.984375 11.445312 14.980469 11.574219 14.976562 C 12.300781 14.960938 12.300781 14.960938 12.527344 15.148438 C 12.570312 15.195312 12.613281 15.242188 12.65625 15.292969 C 12.699219 15.246094 12.742188 15.195312 12.789062 15.148438 C 13.097656 14.890625 13.515625 14.972656 13.894531 14.984375 C 14.238281 14.988281 14.238281 14.988281 14.542969 14.847656 C 14.652344 14.742188 14.652344 14.742188 14.742188 14.625 C 14.824219 14.53125 14.824219 14.53125 15 14.480469 C 15.199219 14.539062 15.222656 14.578125 15.347656 14.738281 C 15.535156 14.933594 15.664062 14.972656 15.933594 14.984375 C 16.0625 14.984375 16.191406 14.980469 16.320312 14.976562 C 17.046875 14.960938 17.046875 14.960938 17.273438 15.148438 C 17.316406 15.195312 17.359375 15.242188 17.402344 15.292969 C 17.445312 15.246094 17.488281 15.195312 17.535156 15.148438 C 17.84375 14.890625 18.261719 14.972656 18.640625 14.984375 C 18.984375 14.988281 18.984375 14.988281 19.289062 14.847656 C 19.398438 14.742188 19.398438 14.742188 19.488281 14.625 C 19.570312 14.53125 19.570312 14.53125 19.746094 14.480469 C 19.945312 14.539062 19.96875 14.578125 20.089844 14.738281 C 20.28125 14.933594 20.410156 14.972656 20.683594 14.984375 C 20.8125 14.988281 20.941406 14.984375 21.070312 14.980469 C 21.75 14.972656 21.75 14.972656 21.988281 15.117188 C 22.023438 15.15625 22.054688 15.195312 22.089844 15.234375 C 22.128906 15.132812 22.164062 15.03125 22.203125 14.929688 C 22.222656 14.875 22.246094 14.816406 22.265625 14.757812 C 22.382812 14.421875 22.394531 14.109375 22.394531 13.753906 C 22.394531 13.707031 22.394531 13.660156 22.394531 13.613281 C 22.398438 13.277344 22.351562 12.976562 22.265625 12.65625 C 22.117188 12.71875 22.03125 12.773438 21.917969 12.898438 C 21.761719 13.039062 21.6875 13.035156 21.480469 13.027344 C 21.390625 13.027344 21.390625 13.027344 21.296875 13.027344 C 21.167969 13.027344 21.042969 13.023438 20.914062 13.019531 C 20.570312 13.015625 20.570312 13.015625 20.265625 13.160156 C 20.195312 13.230469 20.128906 13.304688 20.066406 13.382812 C 19.980469 13.476562 19.980469 13.476562 19.824219 13.542969 C 19.636719 13.53125 19.570312 13.464844 19.4375 13.335938 C 19.398438 13.300781 19.359375 13.261719 19.316406 13.222656 C 19.265625 13.171875 19.210938 13.117188 19.160156 13.066406 C 19.054688 13.0625 18.949219 13.058594 18.847656 13.058594 C 18.78125 13.058594 18.71875 13.054688 18.652344 13.054688 C 18.515625 13.054688 18.378906 13.050781 18.242188 13.050781 C 17.6875 13.039062 17.6875 13.039062 17.472656 12.859375 C 17.429688 12.8125 17.386719 12.765625 17.34375 12.714844 C 17.308594 12.761719 17.277344 12.8125 17.242188 12.859375 C 17.082031 13.019531 16.953125 13.03125 16.730469 13.035156 C 16.542969 13.035156 16.355469 13.03125 16.167969 13.023438 C 15.820312 13.015625 15.820312 13.015625 15.519531 13.15625 C 15.449219 13.230469 15.382812 13.304688 15.320312 13.382812 C 15.234375 13.476562 15.234375 13.476562 15.078125 13.542969 C 14.890625 13.53125 14.824219 13.464844 14.691406 13.335938 C 14.652344 13.300781 14.613281 13.261719 14.570312 13.222656 C 14.519531 13.171875 14.464844 13.117188 14.414062 13.066406 C 14.308594 13.0625 14.203125 13.058594 14.101562 13.058594 C 14.035156 13.058594 13.972656 13.054688 13.90625 13.054688 C 13.769531 13.054688 13.632812 13.050781 13.496094 13.050781 C 12.941406 13.039062 12.941406 13.039062 12.726562 12.859375 C 12.683594 12.8125 12.640625 12.765625 12.597656 12.714844 C 12.5625 12.761719 12.53125 12.8125 12.496094 12.859375 C 12.335938 13.019531 12.207031 13.03125 11.984375 13.035156 C 11.796875 13.035156 11.609375 13.03125 11.421875 13.023438 C 11.074219 13.015625 11.074219 13.015625 10.773438 13.15625 C 10.703125 13.230469 10.636719 13.304688 10.574219 13.382812 C 10.488281 13.476562 10.488281 13.476562 10.332031 13.542969 C 10.144531 13.53125 10.078125 13.464844 9.945312 13.335938 C 9.90625 13.300781 9.867188 13.261719 9.824219 13.222656 C 9.773438 13.171875 9.71875 13.117188 9.667969 13.066406 C 9.5625 13.0625 9.457031 13.058594 9.355469 13.058594 C 9.289062 13.058594 9.226562 13.058594 9.160156 13.058594 C 9.023438 13.054688 8.886719 13.054688 8.75 13.058594 C 8.199219 13.046875 8.199219 13.046875 7.988281 12.828125 C 7.921875 12.742188 7.921875 12.742188 7.851562 12.65625 C 7.8125 12.65625 7.773438 12.65625 7.734375 12.65625 Z M 10.195312 15.117188 C 10.160156 15.164062 10.121094 15.210938 10.085938 15.261719 C 9.929688 15.425781 9.796875 15.433594 9.574219 15.441406 C 9.449219 15.445312 9.320312 15.445312 9.195312 15.441406 C 9.070312 15.441406 8.941406 15.441406 8.816406 15.441406 C 8.761719 15.441406 8.703125 15.441406 8.648438 15.441406 C 8.453125 15.476562 8.382812 15.550781 8.261719 15.703125 C 8.269531 15.894531 8.359375 16.003906 8.480469 16.140625 C 8.511719 16.175781 8.539062 16.210938 8.570312 16.242188 C 8.808594 16.488281 8.957031 16.609375 9.316406 16.613281 C 9.386719 16.613281 9.386719 16.613281 9.457031 16.613281 C 9.527344 16.613281 9.527344 16.613281 9.605469 16.613281 C 9.769531 16.617188 9.933594 16.617188 10.097656 16.613281 C 10.21875 16.617188 10.335938 16.617188 10.453125 16.617188 C 10.773438 16.617188 11.09375 16.621094 11.417969 16.621094 C 11.683594 16.621094 11.953125 16.621094 12.21875 16.621094 C 12.851562 16.621094 13.484375 16.621094 14.117188 16.621094 C 14.769531 16.621094 15.421875 16.625 16.074219 16.625 C 16.636719 16.628906 17.195312 16.628906 17.753906 16.628906 C 18.089844 16.628906 18.425781 16.628906 18.757812 16.632812 C 19.074219 16.632812 19.386719 16.632812 19.703125 16.632812 C 19.820312 16.632812 19.933594 16.632812 20.050781 16.632812 C 20.734375 16.667969 20.734375 16.667969 21.332031 16.386719 C 21.425781 16.285156 21.425781 16.285156 21.503906 16.171875 C 21.550781 16.113281 21.550781 16.113281 21.59375 16.054688 C 21.667969 15.960938 21.730469 15.859375 21.796875 15.761719 C 21.726562 15.601562 21.726562 15.601562 21.5625 15.46875 C 21.269531 15.417969 20.972656 15.4375 20.675781 15.441406 C 20.148438 15.4375 20.148438 15.4375 19.9375 15.261719 C 19.871094 15.191406 19.871094 15.191406 19.804688 15.117188 C 19.675781 15.175781 19.585938 15.21875 19.492188 15.324219 C 19.355469 15.445312 19.265625 15.429688 19.085938 15.425781 C 19.023438 15.425781 18.960938 15.425781 18.898438 15.425781 C 18.769531 15.425781 18.644531 15.421875 18.515625 15.421875 C 18.167969 15.417969 18.167969 15.417969 17.859375 15.5625 C 17.75 15.671875 17.75 15.671875 17.660156 15.785156 C 17.578125 15.878906 17.578125 15.878906 17.402344 15.929688 C 17.203125 15.871094 17.179688 15.828125 17.054688 15.671875 C 16.871094 15.480469 16.746094 15.4375 16.480469 15.425781 C 16.355469 15.425781 16.234375 15.429688 16.109375 15.433594 C 15.414062 15.449219 15.414062 15.449219 15.191406 15.261719 C 15.125 15.191406 15.125 15.191406 15.058594 15.117188 C 14.929688 15.175781 14.839844 15.21875 14.746094 15.324219 C 14.609375 15.445312 14.519531 15.429688 14.339844 15.425781 C 14.277344 15.425781 14.214844 15.425781 14.152344 15.425781 C 14.023438 15.425781 13.898438 15.421875 13.769531 15.421875 C 13.421875 15.417969 13.421875 15.417969 13.113281 15.5625 C 13.003906 15.671875 13.003906 15.671875 12.914062 15.785156 C 12.832031 15.878906 12.832031 15.878906 12.65625 15.929688 C 12.457031 15.871094 12.433594 15.828125 12.308594 15.671875 C 12.125 15.480469 12 15.4375 11.734375 15.425781 C 11.609375 15.425781 11.488281 15.429688 11.363281 15.433594 C 10.667969 15.449219 10.667969 15.449219 10.453125 15.261719 C 10.40625 15.214844 10.359375 15.167969 10.3125 15.117188 C 10.273438 15.117188 10.234375 15.117188 10.195312 15.117188 Z M 2.167969 17.226562 C 2.011719 17.464844 2.027344 17.707031 2.023438 17.984375 C 2.023438 18.03125 2.019531 18.078125 2.019531 18.125 C 2.019531 18.171875 2.019531 18.21875 2.019531 18.265625 C 2.015625 18.304688 2.015625 18.347656 2.015625 18.390625 C 2.070312 18.589844 2.183594 18.675781 2.34375 18.808594 C 2.546875 18.851562 2.546875 18.851562 2.773438 18.84375 C 2.816406 18.847656 2.859375 18.847656 2.90625 18.847656 C 3.050781 18.847656 3.195312 18.847656 3.339844 18.847656 C 3.441406 18.847656 3.546875 18.847656 3.652344 18.847656 C 3.9375 18.847656 4.226562 18.847656 4.511719 18.847656 C 4.824219 18.847656 5.132812 18.847656 5.441406 18.847656 C 6.050781 18.847656 6.65625 18.847656 7.265625 18.847656 C 7.757812 18.847656 8.25 18.847656 8.742188 18.847656 C 8.8125 18.847656 8.882812 18.847656 8.957031 18.847656 C 9.097656 18.847656 9.242188 18.847656 9.382812 18.847656 C 10.71875 18.847656 12.054688 18.847656 13.394531 18.847656 C 14.539062 18.84375 15.6875 18.84375 16.835938 18.847656 C 18.167969 18.847656 19.5 18.847656 20.832031 18.847656 C 20.972656 18.847656 21.113281 18.847656 21.257812 18.847656 C 21.359375 18.847656 21.359375 18.847656 21.46875 18.847656 C 21.960938 18.847656 22.453125 18.847656 22.945312 18.847656 C 23.546875 18.847656 24.148438 18.847656 24.746094 18.847656 C 25.054688 18.847656 25.359375 18.847656 25.667969 18.847656 C 25.945312 18.847656 26.226562 18.847656 26.507812 18.847656 C 26.609375 18.847656 26.710938 18.847656 26.8125 18.847656 C 26.949219 18.847656 27.089844 18.847656 27.226562 18.84375 C 27.339844 18.84375 27.339844 18.84375 27.457031 18.84375 C 27.707031 18.800781 27.792969 18.710938 27.949219 18.515625 C 27.992188 18.390625 27.992188 18.390625 27.980469 18.265625 C 27.980469 18.21875 27.980469 18.171875 27.980469 18.125 C 27.980469 18.078125 27.976562 18.03125 27.976562 17.984375 C 27.972656 17.9375 27.972656 17.890625 27.972656 17.84375 C 27.96875 17.605469 27.964844 17.429688 27.832031 17.226562 C 27.621094 17.082031 27.425781 17.09375 27.175781 17.09375 C 27.132812 17.09375 27.089844 17.09375 27.046875 17.09375 C 26.902344 17.09375 26.757812 17.09375 26.613281 17.09375 C 26.511719 17.09375 26.40625 17.09375 26.300781 17.09375 C 26.015625 17.09375 25.730469 17.09375 25.445312 17.09375 C 25.136719 17.09375 24.828125 17.09375 24.519531 17.09375 C 23.914062 17.09375 23.308594 17.09375 22.703125 17.09375 C 22.214844 17.09375 21.722656 17.09375 21.230469 17.09375 C 21.160156 17.09375 21.089844 17.09375 21.019531 17.09375 C 20.878906 17.09375 20.734375 17.09375 20.59375 17.09375 C 19.261719 17.09375 17.929688 17.09375 16.601562 17.09375 C 15.457031 17.09375 14.316406 17.09375 13.171875 17.09375 C 11.84375 17.09375 10.519531 17.09375 9.191406 17.09375 C 9.050781 17.09375 8.910156 17.09375 8.769531 17.09375 C 8.699219 17.09375 8.628906 17.09375 8.558594 17.09375 C 8.066406 17.09375 7.578125 17.09375 7.085938 17.09375 C 6.488281 17.09375 5.890625 17.09375 5.292969 17.09375 C 4.988281 17.09375 4.683594 17.09375 4.375 17.09375 C 4.097656 17.09375 3.816406 17.09375 3.539062 17.09375 C 3.4375 17.09375 3.335938 17.09375 3.234375 17.09375 C 3.097656 17.09375 2.960938 17.09375 2.824219 17.09375 C 2.746094 17.09375 2.671875 17.09375 2.59375 17.09375 C 2.414062 17.109375 2.316406 17.128906 2.167969 17.226562 Z M 2.929688 19.335938 C 2.03125 24.585938 2.03125 24.585938 3.105469 29.179688 C 3.371094 29.269531 3.636719 29.25 3.917969 29.25 C 3.976562 29.25 4.035156 29.25 4.09375 29.25 C 4.152344 29.25 4.207031 29.25 4.265625 29.25 C 4.316406 29.253906 4.367188 29.253906 4.421875 29.253906 C 4.589844 29.238281 4.710938 29.199219 4.863281 29.121094 C 4.996094 28.917969 4.996094 28.839844 5 28.601562 C 5 28.53125 5 28.464844 5.003906 28.394531 C 5.003906 28.25 5.007812 28.105469 5.007812 27.964844 C 5.027344 27.070312 5.027344 27.070312 5.3125 26.710938 C 5.363281 26.671875 5.363281 26.671875 5.417969 26.632812 C 5.449219 26.609375 5.484375 26.582031 5.519531 26.554688 C 5.628906 26.480469 5.742188 26.421875 5.859375 26.367188 C 5.78125 26.113281 5.640625 25.929688 5.476562 25.726562 C 5.210938 25.347656 5.226562 24.9375 5.273438 24.492188 C 5.480469 23.785156 6.125 23.421875 6.707031 23.035156 C 6.820312 22.957031 6.9375 22.878906 7.054688 22.800781 C 7.128906 22.75 7.128906 22.75 7.207031 22.699219 C 7.320312 22.625 7.320312 22.625 7.382812 22.558594 C 7.730469 22.507812 7.90625 22.648438 8.171875 22.84375 C 8.214844 22.875 8.253906 22.902344 8.296875 22.933594 C 8.378906 22.992188 8.464844 23.054688 8.546875 23.113281 C 8.664062 23.199219 8.785156 23.28125 8.90625 23.363281 C 8.976562 23.410156 9.050781 23.460938 9.121094 23.511719 C 9.171875 23.542969 9.171875 23.542969 9.222656 23.578125 C 9.59375 23.835938 9.820312 24.164062 9.902344 24.609375 C 9.953125 25.085938 9.871094 25.515625 9.574219 25.902344 C 9.511719 25.972656 9.449219 26.039062 9.386719 26.105469 C 9.296875 26.195312 9.296875 26.195312 9.316406 26.367188 C 9.441406 26.460938 9.570312 26.53125 9.707031 26.609375 C 9.894531 26.757812 10.003906 26.898438 10.078125 27.128906 C 10.109375 27.425781 10.109375 27.71875 10.109375 28.015625 C 10.105469 28.171875 10.109375 28.332031 10.109375 28.488281 C 10.109375 28.558594 10.109375 28.628906 10.109375 28.699219 C 10.140625 28.925781 10.210938 29.019531 10.371094 29.179688 C 10.582031 29.25 10.757812 29.25 10.980469 29.253906 C 11.054688 29.253906 11.132812 29.257812 11.210938 29.257812 C 11.4375 29.238281 11.542969 29.199219 11.71875 29.0625 C 11.871094 28.835938 11.851562 28.648438 11.851562 28.386719 C 11.851562 28.285156 11.855469 28.183594 11.855469 28.082031 C 11.855469 27.921875 11.859375 27.761719 11.859375 27.605469 C 11.859375 27.449219 11.859375 27.296875 11.863281 27.140625 C 11.863281 27.09375 11.863281 27.046875 11.863281 27 C 11.867188 26.699219 11.925781 26.492188 12.074219 26.234375 C 12.136719 26.125 12.136719 26.125 12.1875 25.957031 C 12.292969 25.894531 12.292969 25.894531 12.421875 25.839844 C 12.464844 25.820312 12.503906 25.796875 12.546875 25.777344 C 12.660156 25.71875 12.777344 25.664062 12.890625 25.605469 C 12.882812 25.277344 12.738281 25.136719 12.527344 24.90625 C 12.171875 24.492188 12.109375 24.050781 12.113281 23.519531 C 12.148438 23.066406 12.355469 22.664062 12.65625 22.324219 C 12.828125 22.179688 13.015625 22.054688 13.203125 21.929688 C 13.253906 21.894531 13.304688 21.859375 13.359375 21.824219 C 13.460938 21.75 13.566406 21.679688 13.671875 21.609375 C 13.863281 21.480469 14.054688 21.351562 14.242188 21.21875 C 14.324219 21.164062 14.40625 21.109375 14.488281 21.050781 C 14.664062 20.9375 14.664062 20.9375 14.824219 20.800781 C 15.257812 20.796875 15.542969 21.046875 15.882812 21.296875 C 15.941406 21.335938 16 21.378906 16.0625 21.425781 C 16.183594 21.507812 16.300781 21.59375 16.417969 21.679688 C 16.558594 21.78125 16.699219 21.878906 16.84375 21.976562 C 16.878906 22 16.917969 22.027344 16.953125 22.050781 C 17.050781 22.117188 17.144531 22.183594 17.242188 22.246094 C 17.628906 22.574219 17.832031 22.984375 17.890625 23.488281 C 17.914062 24.125 17.726562 24.597656 17.320312 25.082031 C 17.214844 25.207031 17.128906 25.34375 17.050781 25.488281 C 17.175781 25.621094 17.296875 25.710938 17.453125 25.800781 C 17.777344 25.996094 17.992188 26.234375 18.105469 26.601562 C 18.121094 26.773438 18.121094 26.945312 18.121094 27.121094 C 18.121094 27.222656 18.125 27.324219 18.125 27.425781 C 18.125 27.585938 18.128906 27.746094 18.128906 27.90625 C 18.128906 28.058594 18.128906 28.214844 18.132812 28.367188 C 18.132812 28.441406 18.132812 28.441406 18.132812 28.511719 C 18.136719 28.742188 18.148438 28.859375 18.273438 29.0625 C 18.496094 29.269531 18.710938 29.25 19.007812 29.253906 C 19.082031 29.253906 19.160156 29.257812 19.238281 29.257812 C 19.464844 29.238281 19.570312 29.199219 19.746094 29.0625 C 19.886719 28.851562 19.878906 28.753906 19.878906 28.5 C 19.878906 28.425781 19.878906 28.347656 19.878906 28.269531 C 19.882812 28.148438 19.882812 28.027344 19.882812 27.90625 C 19.878906 27.011719 19.878906 27.011719 20.214844 26.660156 C 20.347656 26.550781 20.347656 26.550781 20.46875 26.484375 C 20.507812 26.460938 20.550781 26.4375 20.589844 26.414062 C 20.621094 26.398438 20.652344 26.382812 20.683594 26.367188 C 20.648438 26.171875 20.582031 26.0625 20.457031 25.914062 C 20.132812 25.488281 20.027344 25.085938 20.097656 24.550781 C 20.234375 24.097656 20.480469 23.773438 20.871094 23.503906 C 20.929688 23.464844 20.988281 23.425781 21.050781 23.382812 C 21.109375 23.339844 21.171875 23.300781 21.234375 23.257812 C 21.292969 23.214844 21.351562 23.175781 21.414062 23.132812 C 21.53125 23.054688 21.648438 22.972656 21.765625 22.894531 C 21.851562 22.835938 21.9375 22.773438 22.023438 22.710938 C 22.160156 22.609375 22.265625 22.558594 22.4375 22.527344 C 22.683594 22.570312 22.839844 22.695312 23.03125 22.847656 C 23.109375 22.90625 23.1875 22.964844 23.261719 23.027344 C 23.300781 23.054688 23.339844 23.085938 23.378906 23.117188 C 23.609375 23.289062 23.851562 23.445312 24.09375 23.601562 C 24.386719 23.832031 24.640625 24.121094 24.726562 24.492188 C 24.785156 25.109375 24.714844 25.523438 24.335938 26.007812 C 24.296875 26.050781 24.261719 26.09375 24.222656 26.140625 C 24.128906 26.242188 24.128906 26.242188 24.140625 26.367188 C 24.238281 26.4375 24.238281 26.4375 24.359375 26.503906 C 24.664062 26.6875 24.839844 26.875 24.9375 27.226562 C 25.003906 27.617188 24.984375 28.027344 24.988281 28.425781 C 24.992188 28.53125 24.992188 28.53125 24.992188 28.640625 C 24.996094 28.707031 24.996094 28.773438 24.996094 28.839844 C 25.007812 29.003906 25.007812 29.003906 25.09375 29.109375 C 25.375 29.304688 25.742188 29.25 26.070312 29.253906 C 26.128906 29.253906 26.1875 29.253906 26.246094 29.257812 C 26.660156 29.261719 26.660156 29.261719 27.011719 29.0625 C 28.460938 26.164062 27.070312 22.578125 27.070312 19.335938 C 19.105469 19.335938 11.136719 19.335938 2.929688 19.335938 Z M 2.929688 19.335938 "/>
</g>
</svg>
