<?xml version="1.0" encoding="UTF-8"?>
<svg xmlns="http://www.w3.org/2000/svg" xmlns:xlink="http://www.w3.org/1999/xlink" width="30px" height="px" viewBox="0 0 30 30" version="1.1">
<g id="surface1">
<path style=" stroke:none;fill-rule:nonzero;fill:rgb(0%,0%,0%);fill-opacity:1;" d="M 4.101562 0.292969 C 4.25 0.269531 4.25 0.269531 4.441406 0.269531 C 4.550781 0.269531 4.550781 0.269531 4.660156 0.269531 C 4.742188 0.269531 4.824219 0.269531 4.90625 0.269531 C 4.992188 0.269531 5.078125 0.269531 5.160156 0.269531 C 5.398438 0.269531 5.636719 0.269531 5.871094 0.269531 C 6.125 0.269531 6.382812 0.269531 6.636719 0.269531 C 7.136719 0.269531 7.636719 0.269531 8.136719 0.269531 C 8.542969 0.269531 8.949219 0.269531 9.355469 0.269531 C 9.410156 0.269531 9.46875 0.269531 9.527344 0.269531 C 9.644531 0.269531 9.761719 0.269531 9.878906 0.269531 C 10.980469 0.269531 12.078125 0.269531 13.179688 0.269531 C 14.125 0.269531 15.066406 0.269531 16.011719 0.269531 C 17.109375 0.269531 18.203125 0.269531 19.300781 0.269531 C 19.417969 0.269531 19.535156 0.269531 19.648438 0.269531 C 19.707031 0.269531 19.765625 0.269531 19.824219 0.269531 C 20.230469 0.269531 20.636719 0.269531 21.042969 0.269531 C 21.535156 0.269531 22.03125 0.269531 22.523438 0.269531 C 22.777344 0.269531 23.027344 0.269531 23.28125 0.269531 C 23.511719 0.269531 23.742188 0.269531 23.972656 0.269531 C 24.054688 0.269531 24.140625 0.269531 24.222656 0.269531 C 24.335938 0.269531 24.449219 0.269531 24.5625 0.269531 C 24.65625 0.269531 24.65625 0.269531 24.753906 0.269531 C 24.804688 0.277344 24.851562 0.285156 24.902344 0.292969 C 25.035156 0.496094 25.035156 0.578125 25.039062 0.816406 C 25.039062 0.878906 25.039062 0.9375 25.039062 1 C 25.015625 1.191406 24.980469 1.273438 24.84375 1.40625 C 24.664062 1.429688 24.664062 1.429688 24.492188 1.40625 C 24.453125 1.367188 24.414062 1.328125 24.375 1.289062 C 24.375 1.152344 24.375 1.019531 24.375 0.878906 C 17.859375 0.878906 11.34375 0.878906 4.628906 0.878906 C 4.628906 1.59375 4.628906 2.308594 4.628906 3.046875 C 4.726562 3.085938 4.820312 3.125 4.921875 3.164062 C 4.996094 3.285156 4.996094 3.285156 5.046875 3.429688 C 5.066406 3.484375 5.082031 3.535156 5.101562 3.589844 C 5.121094 3.640625 5.136719 3.695312 5.15625 3.75 C 5.175781 3.800781 5.191406 3.851562 5.210938 3.90625 C 5.25 4.03125 5.292969 4.152344 5.332031 4.277344 C 5.371094 4.265625 5.410156 4.253906 5.449219 4.242188 C 5.5 4.226562 5.554688 4.214844 5.605469 4.199219 C 5.65625 4.1875 5.707031 4.171875 5.761719 4.15625 C 5.917969 4.160156 5.917969 4.160156 6.0625 4.277344 C 6.234375 4.484375 6.300781 4.660156 6.375 4.910156 C 6.386719 4.953125 6.402344 4.992188 6.414062 5.035156 C 6.445312 5.132812 6.472656 5.234375 6.503906 5.332031 C 6.503906 5.28125 6.503906 5.28125 6.503906 5.226562 C 6.507812 4.863281 6.511719 4.503906 6.519531 4.140625 C 6.519531 4.003906 6.523438 3.871094 6.523438 3.734375 C 6.527344 3.539062 6.527344 3.347656 6.53125 3.152344 C 6.53125 3.089844 6.535156 3.03125 6.535156 2.96875 C 6.535156 2.910156 6.535156 2.855469 6.539062 2.796875 C 6.539062 2.75 6.539062 2.699219 6.539062 2.648438 C 6.570312 2.484375 6.605469 2.441406 6.738281 2.34375 C 6.890625 2.320312 6.890625 2.320312 7.082031 2.320312 C 7.152344 2.320312 7.226562 2.320312 7.300781 2.320312 C 7.378906 2.320312 7.460938 2.320312 7.542969 2.320312 C 7.625 2.320312 7.710938 2.320312 7.796875 2.320312 C 8.03125 2.320312 8.265625 2.320312 8.5 2.320312 C 8.753906 2.320312 9.003906 2.320312 9.257812 2.320312 C 9.753906 2.320312 10.246094 2.320312 10.742188 2.320312 C 11.320312 2.324219 11.894531 2.324219 12.472656 2.324219 C 13.5 2.320312 14.527344 2.324219 15.554688 2.324219 C 16.550781 2.324219 17.550781 2.324219 18.546875 2.324219 C 19.632812 2.324219 20.71875 2.324219 21.804688 2.324219 C 21.921875 2.324219 22.035156 2.324219 22.152344 2.324219 C 22.210938 2.324219 22.265625 2.324219 22.324219 2.324219 C 22.726562 2.324219 23.128906 2.324219 23.53125 2.324219 C 24.019531 2.324219 24.507812 2.324219 25 2.328125 C 25.25 2.328125 25.5 2.328125 25.75 2.328125 C 25.976562 2.328125 26.207031 2.328125 26.433594 2.328125 C 26.515625 2.328125 26.601562 2.328125 26.683594 2.328125 C 26.796875 2.328125 26.90625 2.328125 27.019531 2.328125 C 27.082031 2.328125 27.144531 2.328125 27.210938 2.328125 C 27.363281 2.34375 27.363281 2.34375 27.539062 2.460938 C 27.609375 2.671875 27.605469 2.859375 27.605469 3.078125 C 27.605469 3.121094 27.605469 3.167969 27.605469 3.214844 C 27.605469 3.367188 27.605469 3.523438 27.605469 3.675781 C 27.605469 3.785156 27.605469 3.894531 27.605469 4.007812 C 27.605469 4.3125 27.605469 4.617188 27.605469 4.921875 C 27.605469 5.25 27.609375 5.578125 27.609375 5.910156 C 27.609375 6.628906 27.609375 7.347656 27.609375 8.066406 C 27.609375 8.515625 27.609375 8.964844 27.609375 9.410156 C 27.609375 10.652344 27.613281 11.894531 27.613281 13.136719 C 27.613281 13.214844 27.613281 13.296875 27.613281 13.375 C 27.613281 13.457031 27.613281 13.539062 27.613281 13.617188 C 27.613281 13.78125 27.613281 13.941406 27.613281 14.101562 C 27.613281 14.164062 27.613281 14.164062 27.613281 14.222656 C 27.613281 15.523438 27.613281 16.820312 27.613281 18.121094 C 27.617188 19.492188 27.617188 20.867188 27.617188 22.238281 C 27.617188 22.988281 27.617188 23.734375 27.617188 24.484375 C 27.617188 25.121094 27.621094 25.757812 27.617188 26.394531 C 27.617188 26.71875 27.617188 27.046875 27.621094 27.371094 C 27.621094 27.667969 27.621094 27.964844 27.621094 28.261719 C 27.621094 28.371094 27.621094 28.480469 27.621094 28.585938 C 27.621094 28.734375 27.621094 28.878906 27.621094 29.023438 C 27.621094 29.089844 27.621094 29.089844 27.621094 29.152344 C 27.617188 29.328125 27.605469 29.457031 27.53125 29.617188 C 27.378906 29.746094 27.273438 29.734375 27.078125 29.734375 C 27.003906 29.738281 26.929688 29.738281 26.855469 29.738281 C 26.777344 29.738281 26.695312 29.738281 26.613281 29.734375 C 26.527344 29.734375 26.441406 29.738281 26.355469 29.738281 C 26.121094 29.738281 25.886719 29.738281 25.648438 29.734375 C 25.394531 29.734375 25.140625 29.734375 24.886719 29.734375 C 24.390625 29.738281 23.890625 29.734375 23.394531 29.734375 C 22.8125 29.734375 22.234375 29.734375 21.652344 29.734375 C 20.621094 29.734375 19.585938 29.734375 18.554688 29.730469 C 17.550781 29.730469 16.546875 29.730469 15.539062 29.730469 C 15.449219 29.730469 15.449219 29.730469 15.351562 29.730469 C 15.261719 29.730469 15.261719 29.730469 15.167969 29.730469 C 14.023438 29.730469 12.882812 29.726562 11.742188 29.726562 C 11.335938 29.726562 10.933594 29.726562 10.527344 29.726562 C 10.035156 29.726562 9.542969 29.726562 9.050781 29.726562 C 8.800781 29.722656 8.546875 29.722656 8.296875 29.722656 C 8.066406 29.722656 7.835938 29.722656 7.605469 29.722656 C 7.523438 29.722656 7.441406 29.722656 7.355469 29.722656 C 7.242188 29.722656 7.128906 29.722656 7.015625 29.722656 C 6.953125 29.722656 6.890625 29.722656 6.828125 29.722656 C 6.679688 29.707031 6.679688 29.707031 6.5625 29.589844 C 6.535156 29.40625 6.539062 29.222656 6.535156 29.035156 C 6.535156 28.984375 6.53125 28.933594 6.53125 28.882812 C 6.53125 28.742188 6.53125 28.613281 6.5625 28.476562 C 6.699219 28.351562 6.699219 28.351562 6.855469 28.300781 C 6.996094 28.339844 7.101562 28.371094 7.207031 28.476562 C 7.207031 28.6875 7.207031 28.902344 7.207031 29.121094 C 13.722656 29.121094 20.238281 29.121094 26.953125 29.121094 C 26.953125 20.496094 26.953125 11.875 26.953125 2.988281 C 20.4375 2.988281 13.921875 2.988281 7.207031 2.988281 C 7.019531 7.152344 7.019531 7.152344 7.675781 8.90625 C 7.71875 9.367188 7.742188 9.761719 7.441406 10.136719 C 7.128906 10.464844 6.777344 10.585938 6.328125 10.605469 C 5.960938 10.585938 5.636719 10.40625 5.390625 10.136719 C 5.15625 9.722656 5.015625 9.28125 4.867188 8.828125 C 4.839844 8.746094 4.8125 8.667969 4.789062 8.585938 C 4.730469 8.417969 4.675781 8.246094 4.621094 8.078125 C 4.546875 7.863281 4.476562 7.644531 4.40625 7.429688 C 4.335938 7.222656 4.265625 7.015625 4.199219 6.808594 C 4.179688 6.75 4.179688 6.75 4.160156 6.6875 C 4.121094 6.578125 4.085938 6.464844 4.046875 6.355469 C 4.027344 6.292969 4.007812 6.226562 3.984375 6.164062 C 3.921875 5.964844 3.863281 5.765625 3.808594 5.566406 C 3.777344 5.578125 3.742188 5.585938 3.710938 5.597656 C 3.558594 5.648438 3.410156 5.695312 3.261719 5.742188 C 3.210938 5.757812 3.160156 5.777344 3.105469 5.792969 C 3.058594 5.808594 3.007812 5.824219 2.957031 5.839844 C 2.910156 5.855469 2.863281 5.871094 2.816406 5.886719 C 2.695312 5.917969 2.695312 5.917969 2.519531 5.917969 C 2.535156 5.964844 2.550781 6.007812 2.566406 6.054688 C 2.585938 6.121094 2.609375 6.1875 2.632812 6.253906 C 2.644531 6.292969 2.65625 6.332031 2.667969 6.367188 C 2.742188 6.589844 2.816406 6.808594 2.890625 7.03125 C 3.070312 7.570312 3.25 8.105469 3.429688 8.644531 C 3.941406 10.179688 4.453125 11.714844 4.953125 13.253906 C 4.980469 13.347656 5.011719 13.4375 5.042969 13.53125 C 5.0625 13.597656 5.0625 13.597656 5.085938 13.664062 C 5.242188 14.148438 5.40625 14.632812 5.566406 15.117188 C 5.613281 15.101562 5.664062 15.085938 5.710938 15.066406 C 5.890625 15.007812 6.070312 14.949219 6.25 14.886719 C 6.328125 14.863281 6.40625 14.835938 6.484375 14.8125 C 6.59375 14.773438 6.707031 14.734375 6.820312 14.699219 C 6.921875 14.664062 6.921875 14.664062 7.023438 14.632812 C 7.210938 14.589844 7.316406 14.585938 7.5 14.648438 C 7.617188 14.765625 7.617188 14.765625 7.640625 14.9375 C 7.617188 15.117188 7.617188 15.117188 7.523438 15.207031 C 7.355469 15.308594 7.199219 15.367188 7.015625 15.425781 C 6.941406 15.449219 6.871094 15.472656 6.800781 15.496094 C 6.726562 15.519531 6.652344 15.542969 6.578125 15.566406 C 6.503906 15.59375 6.425781 15.617188 6.351562 15.640625 C 6.167969 15.703125 5.984375 15.761719 5.800781 15.820312 C 5.820312 15.882812 5.820312 15.882812 5.84375 15.949219 C 5.972656 16.34375 6.105469 16.742188 6.234375 17.140625 C 6.304688 17.34375 6.371094 17.550781 6.4375 17.753906 C 6.503906 17.949219 6.570312 18.148438 6.632812 18.34375 C 6.65625 18.421875 6.683594 18.496094 6.707031 18.570312 C 6.742188 18.675781 6.777344 18.78125 6.8125 18.886719 C 6.832031 18.945312 6.851562 19.007812 6.871094 19.070312 C 6.914062 19.21875 6.914062 19.21875 6.914062 19.394531 C 7.6875 19.144531 8.460938 18.890625 9.257812 18.632812 C 9.167969 18.222656 9.167969 18.222656 9.054688 17.824219 C 9.039062 17.777344 9.023438 17.726562 9.007812 17.679688 C 8.988281 17.625 8.972656 17.574219 8.953125 17.523438 C 8.9375 17.464844 8.917969 17.410156 8.898438 17.351562 C 8.839844 17.167969 8.777344 16.984375 8.714844 16.804688 C 8.675781 16.675781 8.632812 16.546875 8.589844 16.417969 C 8.476562 16.078125 8.367188 15.742188 8.253906 15.40625 C 8.140625 15.0625 8.027344 14.722656 7.914062 14.378906 C 7.765625 13.9375 7.621094 13.492188 7.472656 13.046875 C 7.4375 12.933594 7.398438 12.820312 7.359375 12.707031 C 7.28125 12.464844 7.199219 12.222656 7.113281 11.980469 C 7.097656 11.9375 7.082031 11.898438 7.070312 11.859375 C 7.03125 11.753906 6.996094 11.648438 6.957031 11.546875 C 6.910156 11.34375 6.914062 11.214844 6.972656 11.015625 C 7.148438 10.898438 7.148438 10.898438 7.324219 10.898438 C 7.5 10.957031 7.5 10.957031 7.589844 11.109375 C 7.613281 11.179688 7.636719 11.25 7.664062 11.324219 C 7.675781 11.363281 7.691406 11.402344 7.703125 11.445312 C 7.753906 11.59375 7.804688 11.746094 7.851562 11.894531 C 7.894531 12.019531 7.9375 12.148438 7.976562 12.273438 C 8.113281 12.679688 8.246094 13.085938 8.378906 13.492188 C 8.476562 13.792969 8.574219 14.09375 8.671875 14.394531 C 8.707031 14.503906 8.746094 14.617188 8.78125 14.726562 C 8.984375 15.347656 9.1875 15.964844 9.394531 16.582031 C 9.425781 16.679688 9.460938 16.777344 9.492188 16.875 C 9.570312 17.109375 9.648438 17.34375 9.726562 17.578125 C 9.757812 17.578125 9.789062 17.578125 9.824219 17.578125 C 11.707031 17.582031 13.585938 17.582031 15.46875 17.589844 C 15.695312 17.589844 15.921875 17.589844 16.148438 17.589844 C 16.191406 17.589844 16.238281 17.589844 16.285156 17.589844 C 17.011719 17.59375 17.742188 17.59375 18.46875 17.59375 C 19.21875 17.59375 19.964844 17.597656 20.710938 17.597656 C 21.171875 17.601562 21.632812 17.601562 22.097656 17.601562 C 22.449219 17.601562 22.804688 17.601562 23.15625 17.605469 C 23.300781 17.605469 23.445312 17.605469 23.59375 17.605469 C 23.789062 17.605469 23.988281 17.605469 24.183594 17.605469 C 24.273438 17.605469 24.273438 17.605469 24.359375 17.605469 C 24.746094 17.609375 24.746094 17.609375 24.941406 17.746094 C 25.019531 17.871094 25.019531 17.871094 25.011719 18.023438 C 24.960938 18.164062 24.960938 18.164062 24.84375 18.28125 C 24.734375 18.296875 24.734375 18.296875 24.597656 18.296875 C 24.542969 18.296875 24.492188 18.296875 24.4375 18.296875 C 24.382812 18.296875 24.324219 18.296875 24.265625 18.296875 C 24.203125 18.296875 24.144531 18.296875 24.082031 18.296875 C 23.875 18.300781 23.667969 18.300781 23.464844 18.300781 C 23.316406 18.300781 23.171875 18.300781 23.023438 18.300781 C 22.707031 18.304688 22.390625 18.304688 22.074219 18.304688 C 21.617188 18.304688 21.160156 18.308594 20.703125 18.308594 C 19.960938 18.3125 19.21875 18.3125 18.476562 18.316406 C 17.753906 18.316406 17.035156 18.320312 16.3125 18.320312 C 16.246094 18.320312 16.246094 18.320312 16.179688 18.320312 C 15.957031 18.324219 15.734375 18.324219 15.511719 18.324219 C 13.660156 18.328125 11.8125 18.335938 9.960938 18.339844 C 9.980469 18.394531 10 18.449219 10.019531 18.503906 C 10.082031 18.707031 10.082031 18.84375 10.054688 19.054688 C 10.039062 19.226562 10.019531 19.394531 10.019531 19.570312 C 10.09375 19.570312 10.171875 19.570312 10.25 19.570312 C 12.050781 19.566406 13.851562 19.5625 15.652344 19.558594 C 15.871094 19.558594 16.09375 19.558594 16.316406 19.558594 C 16.359375 19.558594 16.402344 19.558594 16.449219 19.558594 C 17.164062 19.554688 17.878906 19.554688 18.59375 19.550781 C 19.324219 19.550781 20.058594 19.546875 20.789062 19.546875 C 21.242188 19.546875 21.695312 19.546875 22.148438 19.546875 C 22.496094 19.542969 22.839844 19.542969 23.1875 19.542969 C 23.328125 19.542969 23.472656 19.542969 23.613281 19.542969 C 23.808594 19.542969 24.003906 19.542969 24.195312 19.542969 C 24.253906 19.542969 24.308594 19.539062 24.367188 19.539062 C 24.746094 19.542969 24.746094 19.542969 24.941406 19.679688 C 25.019531 19.804688 25.019531 19.804688 25.011719 19.957031 C 24.960938 20.097656 24.960938 20.097656 24.84375 20.214844 C 24.734375 20.230469 24.734375 20.230469 24.601562 20.230469 C 24.546875 20.230469 24.496094 20.230469 24.445312 20.230469 C 24.386719 20.230469 24.328125 20.230469 24.269531 20.230469 C 24.210938 20.230469 24.152344 20.230469 24.089844 20.230469 C 23.886719 20.230469 23.683594 20.230469 23.480469 20.226562 C 23.335938 20.226562 23.191406 20.226562 23.046875 20.226562 C 22.734375 20.226562 22.421875 20.226562 22.109375 20.226562 C 21.65625 20.226562 21.203125 20.226562 20.75 20.226562 C 20.019531 20.226562 19.285156 20.226562 18.550781 20.222656 C 17.839844 20.222656 17.125 20.222656 16.414062 20.222656 C 16.347656 20.222656 16.347656 20.222656 16.28125 20.222656 C 16.0625 20.222656 15.839844 20.222656 15.621094 20.222656 C 13.792969 20.21875 11.964844 20.21875 10.136719 20.214844 C 10.195312 20.621094 10.253906 21.027344 10.3125 21.445312 C 10.496094 21.445312 10.675781 21.445312 10.863281 21.445312 C 12.527344 21.449219 14.191406 21.453125 15.855469 21.457031 C 16.074219 21.457031 16.292969 21.457031 16.511719 21.457031 C 16.554688 21.457031 16.597656 21.457031 16.644531 21.457031 C 17.347656 21.460938 18.050781 21.460938 18.753906 21.460938 C 19.476562 21.460938 20.195312 21.464844 20.917969 21.464844 C 21.363281 21.46875 21.808594 21.46875 22.253906 21.46875 C 22.59375 21.46875 22.9375 21.46875 23.277344 21.472656 C 23.417969 21.472656 23.558594 21.472656 23.699219 21.472656 C 23.890625 21.472656 24.082031 21.472656 24.269531 21.472656 C 24.328125 21.472656 24.382812 21.472656 24.441406 21.472656 C 24.8125 21.476562 24.8125 21.476562 24.96875 21.613281 C 25.035156 21.777344 25.019531 21.863281 24.960938 22.03125 C 24.84375 22.148438 24.84375 22.148438 24.738281 22.164062 C 24.671875 22.164062 24.671875 22.164062 24.601562 22.164062 C 24.550781 22.164062 24.503906 22.164062 24.449219 22.164062 C 24.394531 22.164062 24.335938 22.164062 24.28125 22.164062 C 24.222656 22.164062 24.160156 22.164062 24.101562 22.164062 C 23.902344 22.164062 23.703125 22.164062 23.5 22.160156 C 23.359375 22.160156 23.214844 22.160156 23.074219 22.160156 C 22.765625 22.160156 22.457031 22.160156 22.152344 22.160156 C 21.707031 22.160156 21.261719 22.160156 20.816406 22.160156 C 20.09375 22.160156 19.375 22.160156 18.652344 22.15625 C 17.949219 22.15625 17.25 22.15625 16.546875 22.15625 C 16.484375 22.15625 16.484375 22.15625 16.417969 22.15625 C 16.199219 22.15625 15.984375 22.15625 15.765625 22.15625 C 13.96875 22.152344 12.167969 22.152344 10.371094 22.148438 C 10.390625 22.1875 10.410156 22.226562 10.429688 22.265625 C 10.457031 22.691406 10.457031 22.691406 10.363281 22.84375 C 10.214844 22.933594 10.066406 22.980469 9.902344 23.027344 C 9.910156 23.074219 9.914062 23.125 9.921875 23.175781 C 9.929688 23.238281 9.933594 23.300781 9.941406 23.367188 C 9.949219 23.429688 9.957031 23.496094 9.964844 23.558594 C 9.960938 23.730469 9.960938 23.730469 9.886719 23.839844 C 9.785156 23.90625 9.785156 23.90625 9.609375 23.90625 C 9.433594 23.847656 9.433594 23.847656 9.328125 23.714844 C 9.261719 23.5625 9.222656 23.425781 9.199219 23.261719 C 9.148438 23.28125 9.101562 23.304688 9.050781 23.324219 C 8.800781 23.390625 8.683594 23.402344 8.4375 23.320312 C 8.289062 23.140625 8.191406 22.9375 8.089844 22.726562 C 8.0625 22.671875 8.035156 22.621094 8.003906 22.5625 C 7.949219 22.453125 7.890625 22.34375 7.835938 22.234375 C 7.722656 22.011719 7.605469 21.789062 7.488281 21.570312 C 7.46875 21.527344 7.445312 21.488281 7.421875 21.445312 C 7.371094 21.347656 7.316406 21.25 7.265625 21.152344 C 7.265625 21.183594 7.265625 21.21875 7.265625 21.25 C 7.261719 22.039062 7.257812 22.828125 7.25 23.617188 C 7.25 24 7.246094 24.382812 7.246094 24.761719 C 7.242188 25.132812 7.242188 25.5 7.238281 25.867188 C 7.238281 26.007812 7.238281 26.148438 7.238281 26.289062 C 7.234375 26.488281 7.234375 26.683594 7.230469 26.878906 C 7.234375 26.96875 7.234375 26.96875 7.234375 27.058594 C 7.230469 27.136719 7.230469 27.136719 7.230469 27.21875 C 7.230469 27.265625 7.230469 27.3125 7.230469 27.359375 C 7.203125 27.511719 7.152344 27.5625 7.03125 27.65625 C 6.902344 27.679688 6.902344 27.679688 6.75 27.679688 C 6.695312 27.679688 6.636719 27.679688 6.578125 27.679688 C 6.484375 27.679688 6.484375 27.679688 6.390625 27.679688 C 6.328125 27.679688 6.265625 27.679688 6.199219 27.679688 C 6.066406 27.679688 5.933594 27.679688 5.800781 27.679688 C 5.597656 27.679688 5.390625 27.679688 5.1875 27.679688 C 5.058594 27.679688 4.929688 27.679688 4.800781 27.679688 C 4.738281 27.679688 4.675781 27.679688 4.613281 27.679688 C 4.554688 27.679688 4.5 27.679688 4.441406 27.679688 C 4.390625 27.679688 4.339844 27.679688 4.289062 27.679688 C 4.160156 27.65625 4.160156 27.65625 4.066406 27.597656 C 3.9375 27.414062 3.960938 27.21875 3.960938 27.003906 C 3.960938 26.957031 3.960938 26.90625 3.960938 26.855469 C 3.960938 26.691406 3.960938 26.527344 3.960938 26.359375 C 3.960938 26.242188 3.960938 26.125 3.960938 26.007812 C 3.960938 25.683594 3.960938 25.363281 3.960938 25.042969 C 3.964844 24.707031 3.964844 24.371094 3.964844 24.035156 C 3.964844 23.472656 3.964844 22.910156 3.964844 22.34375 C 3.964844 21.691406 3.964844 21.039062 3.964844 20.386719 C 3.964844 19.761719 3.964844 19.132812 3.964844 18.507812 C 3.964844 18.242188 3.964844 17.972656 3.964844 17.707031 C 3.964844 17.390625 3.96875 17.078125 3.96875 16.761719 C 3.96875 16.648438 3.96875 16.53125 3.96875 16.417969 C 3.96875 16.257812 3.96875 16.101562 3.96875 15.945312 C 3.96875 15.875 3.96875 15.875 3.96875 15.804688 C 3.96875 15.582031 3.976562 15.480469 4.101562 15.292969 C 4.304688 15.273438 4.304688 15.273438 4.511719 15.292969 C 4.660156 15.441406 4.644531 15.527344 4.644531 15.730469 C 4.644531 15.796875 4.644531 15.796875 4.644531 15.863281 C 4.644531 15.914062 4.644531 15.960938 4.644531 16.007812 C 4.644531 16.167969 4.644531 16.328125 4.640625 16.488281 C 4.640625 16.601562 4.640625 16.71875 4.640625 16.832031 C 4.640625 17.140625 4.640625 17.453125 4.640625 17.765625 C 4.640625 18.089844 4.640625 18.414062 4.640625 18.738281 C 4.640625 19.355469 4.636719 19.96875 4.636719 20.585938 C 4.636719 21.285156 4.636719 21.988281 4.636719 22.6875 C 4.632812 24.128906 4.632812 25.570312 4.628906 27.011719 C 5.265625 27.011719 5.90625 27.011719 6.5625 27.011719 C 6.558594 26.121094 6.558594 25.230469 6.550781 24.335938 C 6.550781 23.921875 6.546875 23.511719 6.546875 23.097656 C 6.546875 22.695312 6.542969 22.296875 6.539062 21.898438 C 6.539062 21.746094 6.539062 21.59375 6.539062 21.441406 C 6.539062 21.226562 6.539062 21.011719 6.535156 20.800781 C 6.535156 20.734375 6.535156 20.671875 6.535156 20.609375 C 6.53125 20.195312 6.441406 19.886719 6.269531 19.511719 C 6.214844 19.363281 6.164062 19.214844 6.117188 19.066406 C 6.101562 19.023438 6.089844 18.984375 6.074219 18.941406 C 6.03125 18.808594 5.988281 18.675781 5.941406 18.542969 C 5.910156 18.449219 5.878906 18.355469 5.847656 18.257812 C 5.761719 18.007812 5.679688 17.753906 5.597656 17.503906 C 5.542969 17.347656 5.492188 17.191406 5.441406 17.035156 C 5.023438 15.777344 4.605469 14.519531 4.199219 13.257812 C 3.957031 12.515625 3.710938 11.777344 3.464844 11.039062 C 3.1875 10.207031 2.914062 9.378906 2.644531 8.546875 C 2.34375 7.617188 2.035156 6.6875 1.726562 5.761719 C 1.707031 5.714844 1.691406 5.664062 1.675781 5.613281 C 1.644531 5.519531 1.613281 5.429688 1.582031 5.335938 C 1.3125 4.53125 1.3125 4.53125 1.347656 4.21875 C 1.472656 4.023438 1.664062 3.992188 1.875 3.925781 C 1.859375 3.875 1.839844 3.820312 1.824219 3.765625 C 1.53125 2.8125 1.53125 2.8125 1.691406 2.386719 C 1.859375 2.074219 2.074219 1.9375 2.402344 1.816406 C 2.46875 1.792969 2.535156 1.765625 2.605469 1.738281 C 2.917969 1.679688 3.1875 1.671875 3.472656 1.832031 C 3.6875 1.984375 3.8125 2.105469 3.925781 2.34375 C 3.925781 2.289062 3.929688 2.230469 3.929688 2.175781 C 3.933594 1.96875 3.9375 1.757812 3.945312 1.550781 C 3.945312 1.460938 3.949219 1.371094 3.949219 1.28125 C 3.953125 1.152344 3.957031 1.023438 3.960938 0.894531 C 3.960938 0.835938 3.960938 0.835938 3.960938 0.773438 C 3.96875 0.5625 3.980469 0.472656 4.101562 0.292969 Z M 2.34375 2.578125 C 2.179688 2.953125 2.378906 3.328125 2.519531 3.691406 C 2.882812 3.660156 3.183594 3.542969 3.515625 3.398438 C 3.453125 3.070312 3.390625 2.753906 3.222656 2.460938 C 2.914062 2.261719 2.621094 2.375 2.34375 2.578125 Z M 3.855469 3.957031 C 3.808594 3.972656 3.757812 3.988281 3.710938 4.003906 C 3.609375 4.039062 3.507812 4.070312 3.40625 4.101562 C 3.253906 4.152344 3.097656 4.203125 2.941406 4.25 C 2.84375 4.28125 2.746094 4.316406 2.648438 4.347656 C 2.578125 4.367188 2.578125 4.367188 2.507812 4.390625 C 2.257812 4.472656 2.257812 4.472656 2.050781 4.628906 C 2.128906 4.859375 2.207031 5.09375 2.285156 5.332031 C 2.8125 5.195312 3.332031 5.027344 3.847656 4.851562 C 3.929688 4.824219 4.011719 4.796875 4.09375 4.769531 C 4.292969 4.703125 4.488281 4.636719 4.6875 4.570312 C 4.671875 4.488281 4.652344 4.402344 4.636719 4.320312 C 4.621094 4.25 4.621094 4.25 4.605469 4.179688 C 4.570312 4.042969 4.519531 3.933594 4.453125 3.808594 C 4.246094 3.808594 4.050781 3.894531 3.855469 3.957031 Z M 5.3125 4.992188 C 5.238281 5.015625 5.238281 5.015625 5.160156 5.042969 C 5.109375 5.058594 5.054688 5.078125 5.003906 5.09375 C 4.921875 5.121094 4.921875 5.121094 4.84375 5.144531 C 4.714844 5.1875 4.582031 5.230469 4.453125 5.273438 C 4.546875 5.75 4.691406 6.203125 4.84375 6.664062 C 4.871094 6.746094 4.894531 6.828125 4.921875 6.910156 C 4.980469 7.082031 5.035156 7.253906 5.09375 7.425781 C 5.164062 7.648438 5.234375 7.867188 5.304688 8.085938 C 5.363281 8.257812 5.417969 8.425781 5.472656 8.597656 C 5.5 8.679688 5.527344 8.761719 5.550781 8.839844 C 5.589844 8.953125 5.625 9.066406 5.664062 9.183594 C 5.683594 9.246094 5.703125 9.308594 5.726562 9.375 C 5.828125 9.617188 5.949219 9.792969 6.175781 9.925781 C 6.367188 9.96875 6.488281 9.957031 6.679688 9.902344 C 6.890625 9.757812 6.890625 9.757812 7.03125 9.550781 C 7.085938 9.027344 6.90625 8.574219 6.742188 8.089844 C 6.710938 8 6.679688 7.910156 6.652344 7.820312 C 6.589844 7.632812 6.523438 7.445312 6.460938 7.257812 C 6.378906 7.019531 6.300781 6.78125 6.21875 6.539062 C 6.160156 6.355469 6.097656 6.167969 6.035156 5.984375 C 6.003906 5.898438 5.976562 5.808594 5.945312 5.71875 C 5.90625 5.597656 5.863281 5.472656 5.820312 5.351562 C 5.796875 5.28125 5.773438 5.210938 5.75 5.136719 C 5.640625 4.882812 5.546875 4.914062 5.3125 4.992188 Z M 9.257812 19.335938 C 8.660156 19.53125 8.058594 19.722656 7.441406 19.921875 C 7.496094 20.195312 7.582031 20.394531 7.714844 20.636719 C 7.734375 20.675781 7.757812 20.714844 7.777344 20.757812 C 7.847656 20.882812 7.914062 21.011719 7.984375 21.136719 C 8.027344 21.222656 8.074219 21.308594 8.117188 21.390625 C 8.339844 21.800781 8.5625 22.210938 8.789062 22.617188 C 9.121094 22.582031 9.414062 22.496094 9.726562 22.382812 C 9.695312 21.792969 9.628906 21.214844 9.542969 20.632812 C 9.523438 20.496094 9.503906 20.355469 9.488281 20.214844 C 9.472656 20.125 9.460938 20.039062 9.449219 19.949219 C 9.441406 19.90625 9.4375 19.867188 9.429688 19.824219 C 9.402344 19.621094 9.371094 19.507812 9.257812 19.335938 Z M 9.257812 19.335938 "/>
<path style=" stroke:none;fill-rule:nonzero;fill:rgb(0%,0%,0%);fill-opacity:1;" d="M 13.0625 5.660156 C 13.175781 5.703125 13.289062 5.746094 13.402344 5.792969 C 13.441406 5.808594 13.480469 5.824219 13.519531 5.839844 C 13.882812 5.984375 13.882812 5.984375 14.003906 6.152344 C 14.046875 6.265625 14.046875 6.265625 14.074219 6.382812 C 14.082031 6.421875 14.09375 6.460938 14.101562 6.5 C 14.121094 6.621094 14.121094 6.621094 14.121094 6.855469 C 14.171875 6.835938 14.21875 6.820312 14.269531 6.800781 C 15.09375 6.546875 15.980469 6.660156 16.746094 7.039062 C 17.035156 7.191406 17.035156 7.191406 17.109375 7.265625 C 17.128906 7.460938 17.140625 7.574219 17.023438 7.738281 C 16.777344 7.828125 16.582031 7.710938 16.347656 7.617188 C 16.253906 7.585938 16.164062 7.554688 16.070312 7.523438 C 16.027344 7.507812 15.988281 7.492188 15.945312 7.480469 C 15.382812 7.308594 14.722656 7.316406 14.179688 7.558594 C 14.011719 7.683594 13.863281 7.824219 13.710938 7.96875 C 13.644531 8.027344 13.644531 8.027344 13.578125 8.089844 C 12.925781 8.683594 12.476562 9.097656 12.402344 10.007812 C 12.375 10.820312 12.605469 11.449219 13.121094 12.074219 C 13.691406 12.679688 14.425781 12.984375 15.253906 13.015625 C 15.972656 12.988281 16.574219 12.722656 17.109375 12.246094 C 17.035156 12.058594 16.957031 11.878906 16.867188 11.699219 C 16.847656 11.660156 16.828125 11.617188 16.804688 11.578125 C 16.789062 11.546875 16.773438 11.515625 16.757812 11.484375 C 16.730469 11.515625 16.699219 11.546875 16.667969 11.578125 C 16.242188 12 15.765625 12.191406 15.164062 12.214844 C 14.53125 12.179688 14.070312 11.925781 13.636719 11.46875 C 13.222656 10.945312 13.179688 10.371094 13.242188 9.726562 C 13.339844 9.289062 13.570312 8.980469 13.886719 8.671875 C 13.929688 8.628906 13.972656 8.585938 14.019531 8.539062 C 14.507812 8.230469 15.011719 8.132812 15.585938 8.203125 C 16.003906 8.300781 16.390625 8.480469 16.699219 8.789062 C 16.699219 8.828125 16.699219 8.867188 16.699219 8.90625 C 16.738281 8.90625 16.777344 8.90625 16.816406 8.90625 C 16.832031 8.855469 16.847656 8.804688 16.863281 8.75 C 17.160156 7.925781 17.816406 7.363281 18.574219 6.972656 C 19.511719 6.601562 20.515625 6.558594 21.453125 6.953125 C 22.355469 7.363281 22.953125 7.980469 23.332031 8.902344 C 23.671875 9.820312 23.605469 10.820312 23.230469 11.71875 C 22.824219 12.550781 22.15625 13.171875 21.289062 13.492188 C 20.34375 13.777344 19.445312 13.78125 18.542969 13.378906 C 18.402344 13.304688 18.28125 13.230469 18.164062 13.125 C 18.140625 12.945312 18.140625 12.945312 18.164062 12.773438 C 18.28125 12.65625 18.28125 12.65625 18.460938 12.632812 C 18.667969 12.652344 18.761719 12.679688 18.941406 12.765625 C 19.609375 13.082031 20.328125 13.070312 21.015625 12.824219 C 21.863281 12.46875 22.382812 11.917969 22.734375 11.074219 C 22.972656 10.386719 22.882812 9.632812 22.605469 8.972656 C 22.222656 8.210938 21.632812 7.804688 20.859375 7.5 C 20.664062 7.4375 20.480469 7.398438 20.273438 7.382812 C 20.230469 7.378906 20.1875 7.375 20.144531 7.371094 C 19.414062 7.335938 18.707031 7.628906 18.152344 8.089844 C 17.59375 8.621094 17.289062 9.285156 17.261719 10.050781 C 17.25 10.78125 17.414062 11.324219 17.847656 11.917969 C 17.949219 12.105469 17.960938 12.210938 17.929688 12.421875 C 17.503906 13.03125 16.726562 13.492188 16.003906 13.636719 C 14.933594 13.785156 13.953125 13.644531 13.066406 13.007812 C 12.351562 12.417969 11.867188 11.644531 11.71875 10.722656 C 11.671875 10.171875 11.6875 9.617188 11.835938 9.082031 C 11.796875 9.082031 11.757812 9.082031 11.71875 9.078125 C 11.667969 9.078125 11.613281 9.074219 11.5625 9.070312 C 11.484375 9.066406 11.484375 9.066406 11.40625 9.066406 C 11.183594 9.007812 11.101562 8.90625 10.957031 8.730469 C 10.882812 8.582031 10.820312 8.445312 10.761719 8.292969 C 10.746094 8.257812 10.730469 8.21875 10.714844 8.179688 C 10.625 7.945312 10.554688 7.75 10.605469 7.5 C 10.722656 7.324219 10.867188 7.179688 11.015625 7.03125 C 11.070312 6.976562 11.125 6.917969 11.179688 6.863281 C 11.332031 6.707031 11.484375 6.550781 11.640625 6.398438 C 11.738281 6.300781 11.835938 6.203125 11.933594 6.105469 C 11.992188 6.046875 12.054688 5.984375 12.117188 5.921875 C 12.144531 5.894531 12.175781 5.863281 12.203125 5.835938 C 12.496094 5.542969 12.660156 5.535156 13.0625 5.660156 Z M 12.394531 6.566406 C 12.363281 6.597656 12.332031 6.628906 12.300781 6.660156 C 12.234375 6.722656 12.167969 6.789062 12.101562 6.855469 C 12 6.953125 11.898438 7.050781 11.796875 7.148438 C 11.734375 7.214844 11.671875 7.277344 11.605469 7.339844 C 11.558594 7.382812 11.558594 7.382812 11.511719 7.429688 C 11.417969 7.519531 11.417969 7.519531 11.308594 7.675781 C 11.3125 7.878906 11.339844 7.941406 11.484375 8.085938 C 11.519531 8.046875 11.554688 8.011719 11.589844 7.972656 C 11.660156 7.898438 11.660156 7.898438 11.730469 7.824219 C 11.773438 7.777344 11.820312 7.730469 11.867188 7.679688 C 12.023438 7.550781 12.105469 7.507812 12.304688 7.5 C 12.363281 7.539062 12.421875 7.578125 12.480469 7.617188 C 12.472656 7.914062 12.425781 8.046875 12.214844 8.257812 C 12.148438 8.320312 12.078125 8.378906 12.011719 8.4375 C 12.113281 8.492188 12.113281 8.492188 12.246094 8.496094 C 12.457031 8.347656 12.636719 8.167969 12.820312 7.984375 C 12.910156 7.894531 13.003906 7.8125 13.097656 7.726562 C 13.417969 7.425781 13.417969 7.425781 13.558594 7.027344 C 13.523438 6.769531 13.472656 6.613281 13.28125 6.433594 C 13.230469 6.414062 13.179688 6.394531 13.125 6.375 C 13.074219 6.355469 13.019531 6.332031 12.96875 6.3125 C 12.683594 6.222656 12.589844 6.375 12.394531 6.566406 Z M 14.089844 9.433594 C 13.835938 9.785156 13.847656 10.121094 13.886719 10.546875 C 13.988281 10.9375 14.261719 11.203125 14.589844 11.425781 C 14.929688 11.566406 15.265625 11.613281 15.617188 11.492188 C 16.054688 11.292969 16.34375 11.039062 16.519531 10.582031 C 16.613281 10.257812 16.605469 9.972656 16.46875 9.660156 C 16.25 9.277344 15.949219 8.984375 15.527344 8.847656 C 14.882812 8.765625 14.496094 8.945312 14.089844 9.433594 Z M 14.089844 9.433594 "/>
<path style=" stroke:none;fill-rule:nonzero;fill:rgb(0%,0%,0%);fill-opacity:1;" d="M 10.5 15.6875 C 10.550781 15.6875 10.601562 15.6875 10.65625 15.6875 C 10.710938 15.6875 10.765625 15.6875 10.824219 15.6875 C 10.914062 15.6875 10.914062 15.6875 11.003906 15.6875 C 11.203125 15.6875 11.40625 15.6875 11.605469 15.6875 C 11.746094 15.6875 11.890625 15.683594 12.03125 15.683594 C 12.378906 15.683594 12.730469 15.683594 13.078125 15.683594 C 13.359375 15.683594 13.644531 15.683594 13.925781 15.683594 C 14.726562 15.683594 15.53125 15.679688 16.332031 15.679688 C 16.375 15.679688 16.417969 15.679688 16.460938 15.679688 C 16.527344 15.679688 16.527344 15.679688 16.59375 15.679688 C 17.296875 15.679688 17.996094 15.679688 18.699219 15.679688 C 19.421875 15.675781 20.140625 15.675781 20.859375 15.675781 C 21.265625 15.675781 21.671875 15.675781 22.074219 15.675781 C 22.453125 15.671875 22.835938 15.671875 23.214844 15.675781 C 23.355469 15.675781 23.496094 15.675781 23.636719 15.671875 C 23.824219 15.671875 24.015625 15.671875 24.207031 15.675781 C 24.289062 15.671875 24.289062 15.671875 24.375 15.671875 C 24.746094 15.675781 24.746094 15.675781 24.9375 15.8125 C 25.019531 15.9375 25.019531 15.9375 25.011719 16.089844 C 24.960938 16.230469 24.960938 16.230469 24.84375 16.347656 C 24.734375 16.363281 24.734375 16.363281 24.601562 16.363281 C 24.550781 16.363281 24.5 16.363281 24.445312 16.363281 C 24.390625 16.363281 24.332031 16.363281 24.273438 16.363281 C 24.214844 16.363281 24.15625 16.363281 24.09375 16.363281 C 23.890625 16.363281 23.691406 16.363281 23.488281 16.363281 C 23.34375 16.363281 23.199219 16.363281 23.054688 16.363281 C 22.703125 16.367188 22.355469 16.367188 22.003906 16.367188 C 21.714844 16.367188 21.429688 16.367188 21.144531 16.367188 C 21.105469 16.367188 21.0625 16.367188 21.023438 16.367188 C 20.941406 16.367188 20.859375 16.367188 20.773438 16.367188 C 20 16.367188 19.226562 16.367188 18.453125 16.367188 C 17.746094 16.367188 17.035156 16.367188 16.328125 16.367188 C 15.601562 16.367188 14.875 16.371094 14.148438 16.367188 C 13.738281 16.367188 13.332031 16.367188 12.921875 16.371094 C 12.539062 16.371094 12.15625 16.371094 11.773438 16.371094 C 11.628906 16.371094 11.488281 16.371094 11.347656 16.371094 C 11.15625 16.371094 10.964844 16.371094 10.773438 16.371094 C 10.6875 16.371094 10.6875 16.371094 10.601562 16.371094 C 10.550781 16.371094 10.5 16.371094 10.445312 16.371094 C 10.402344 16.371094 10.355469 16.371094 10.3125 16.371094 C 10.160156 16.339844 10.109375 16.292969 10.019531 16.171875 C 10.027344 15.992188 10.027344 15.992188 10.078125 15.820312 C 10.257812 15.699219 10.296875 15.6875 10.5 15.6875 Z M 10.5 15.6875 "/>
<path style=" stroke:none;fill-rule:nonzero;fill:rgb(0%,0%,0%);fill-opacity:1;" d="M 21.105469 8.453125 C 21.589844 8.800781 21.898438 9.195312 22.03125 9.785156 C 22.09375 10.402344 22.035156 10.902344 21.671875 11.40625 C 21.28125 11.875 20.789062 12.136719 20.183594 12.203125 C 19.601562 12.226562 19.125 12.054688 18.691406 11.660156 C 18.65625 11.628906 18.617188 11.59375 18.578125 11.558594 C 18.21875 11.195312 18.046875 10.699219 18.019531 10.1875 C 18.09375 9.554688 18.285156 9.007812 18.789062 8.59375 C 19.480469 8.125 20.367188 8.019531 21.105469 8.453125 Z M 18.953125 9.367188 C 18.6875 9.773438 18.65625 10.140625 18.75 10.605469 C 18.882812 10.957031 19.132812 11.226562 19.453125 11.425781 C 19.808594 11.570312 20.136719 11.566406 20.507812 11.484375 C 20.890625 11.320312 21.113281 11.074219 21.3125 10.710938 C 21.449219 10.371094 21.425781 10.03125 21.320312 9.6875 C 21.105469 9.308594 20.886719 9.046875 20.472656 8.886719 C 19.890625 8.726562 19.335938 8.890625 18.953125 9.367188 Z M 18.953125 9.367188 "/>
<path style=" stroke:none;fill-rule:nonzero;fill:rgb(0%,0%,0%);fill-opacity:1;" d="M 22.675781 25.019531 C 22.910156 25.171875 23.113281 25.308594 23.1875 25.589844 C 23.191406 25.632812 23.199219 25.675781 23.203125 25.722656 C 23.277344 25.691406 23.277344 25.691406 23.355469 25.660156 C 24.046875 25.378906 24.046875 25.378906 24.375 25.429688 C 24.492188 25.546875 24.492188 25.546875 24.511719 25.71875 C 24.492188 25.898438 24.492188 25.898438 24.425781 25.988281 C 24.027344 26.296875 23.355469 26.46875 22.851562 26.425781 C 22.644531 26.304688 22.625 26.214844 22.5625 25.984375 C 22.519531 25.777344 22.519531 25.777344 22.371094 25.683594 C 22.191406 25.597656 22.035156 25.5625 21.835938 25.535156 C 21.773438 25.527344 21.710938 25.515625 21.648438 25.507812 C 21.601562 25.5 21.550781 25.496094 21.503906 25.488281 C 21.53125 25.554688 21.53125 25.554688 21.5625 25.621094 C 21.636719 25.820312 21.636719 25.980469 21.621094 26.191406 C 21.503906 26.308594 21.503906 26.308594 21.351562 26.335938 C 21.105469 26.300781 21 26.203125 20.808594 26.050781 C 20.488281 25.808594 20.152344 25.675781 19.746094 25.722656 C 19.6875 25.761719 19.628906 25.800781 19.570312 25.839844 C 19.605469 26.164062 19.773438 26.300781 19.996094 26.519531 C 20.125 26.699219 20.125 26.796875 20.097656 27.011719 C 19.980469 27.128906 19.980469 27.128906 19.828125 27.160156 C 19.523438 27.113281 19.359375 26.945312 19.160156 26.71875 C 18.929688 26.378906 18.804688 26.074219 18.867188 25.664062 C 19.035156 25.328125 19.273438 25.136719 19.628906 25.019531 C 20.085938 24.980469 20.484375 25.054688 20.917969 25.195312 C 20.953125 25.148438 20.988281 25.101562 21.023438 25.050781 C 21.382812 24.632812 22.226562 24.824219 22.675781 25.019531 Z M 22.675781 25.019531 "/>
<path style=" stroke:none;fill-rule:nonzero;fill:rgb(0%,0%,0%);fill-opacity:1;" d="M 12.511719 25.050781 C 12.582031 25.0625 12.582031 25.0625 12.648438 25.074219 C 12.832031 25.167969 12.871094 25.304688 12.949219 25.488281 C 12.984375 25.488281 13.023438 25.488281 13.058594 25.484375 C 13.222656 25.480469 13.390625 25.480469 13.554688 25.476562 C 13.640625 25.476562 13.640625 25.476562 13.726562 25.472656 C 13.78125 25.472656 13.835938 25.472656 13.894531 25.472656 C 13.945312 25.46875 13.996094 25.46875 14.046875 25.46875 C 14.207031 25.492188 14.257812 25.535156 14.355469 25.664062 C 14.355469 25.703125 14.355469 25.742188 14.355469 25.78125 C 14.429688 25.78125 14.429688 25.78125 14.503906 25.777344 C 14.722656 25.773438 14.941406 25.773438 15.160156 25.769531 C 15.238281 25.769531 15.3125 25.765625 15.390625 25.765625 C 15.503906 25.765625 15.503906 25.765625 15.613281 25.765625 C 15.683594 25.761719 15.75 25.761719 15.820312 25.761719 C 16.011719 25.78125 16.089844 25.828125 16.230469 25.957031 C 16.179688 26.359375 16.179688 26.359375 16.113281 26.425781 C 15.472656 26.546875 14.554688 26.617188 13.945312 26.367188 C 13.917969 26.335938 13.890625 26.308594 13.859375 26.277344 C 13.707031 26.132812 13.542969 26.171875 13.339844 26.175781 C 13.148438 26.195312 12.96875 26.238281 12.78125 26.285156 C 12.589844 26.320312 12.433594 26.289062 12.246094 26.25 C 12.179688 25.855469 12.179688 25.855469 12.246094 25.722656 C 11.523438 26.078125 10.882812 26.511719 10.269531 27.03125 C 10.136719 27.128906 10.136719 27.128906 9.953125 27.15625 C 9.785156 27.128906 9.785156 27.128906 9.671875 27.0625 C 9.609375 26.953125 9.609375 26.953125 9.609375 26.792969 C 9.691406 26.527344 9.835938 26.425781 10.050781 26.265625 C 10.089844 26.234375 10.128906 26.203125 10.171875 26.171875 C 11.820312 24.921875 11.820312 24.921875 12.511719 25.050781 Z M 12.511719 25.050781 "/>
</g>
</svg>
