<svg width="30" height="31" viewBox="0 0 30 31" fill="none" xmlns="http://www.w3.org/2000/svg">
<path d="M2.31922 6.14698C2.43487 6.14698 2.54877 6.10002 2.63037 6.01783C2.71257 5.93622 2.75953 5.82291 2.75953 5.70667C2.75953 5.59102 2.71257 5.47712 2.63037 5.39552C2.54877 5.31332 2.43487 5.26636 2.31922 5.26636C2.20356 5.26636 2.08967 5.31332 2.00806 5.39552C1.92587 5.47712 1.87891 5.59102 1.87891 5.70667C1.87891 5.82233 1.92587 5.93622 2.00806 6.01783C2.08967 6.10002 2.20356 6.14698 2.31922 6.14698Z" fill="#F0A14C"/>
<path d="M3.72791 6.14698C3.84357 6.14698 3.95746 6.10002 4.03907 6.01783C4.12126 5.93622 4.16822 5.82233 4.16822 5.70667C4.16822 5.59102 4.12126 5.47712 4.03907 5.39552C3.95746 5.31332 3.84357 5.26636 3.72791 5.26636C3.61226 5.26636 3.49836 5.31332 3.41676 5.39552C3.33456 5.47712 3.2876 5.59102 3.2876 5.70667C3.2876 5.82233 3.33456 5.93622 3.41676 6.01783C3.49836 6.10002 3.61226 6.14698 3.72791 6.14698Z" fill="#F0A14C"/>
<path d="M5.13709 6.14698C5.25275 6.14698 5.36664 6.10002 5.44825 6.01783C5.53044 5.93622 5.5774 5.82233 5.5774 5.70667C5.5774 5.59102 5.53044 5.47712 5.44825 5.39552C5.36664 5.31332 5.25275 5.26636 5.13709 5.26636C5.02085 5.26636 4.90754 5.31332 4.82594 5.39552C4.74374 5.47712 4.69678 5.59102 4.69678 5.70667C4.69678 5.82233 4.74374 5.93622 4.82594 6.01783C4.90754 6.10002 5.02143 6.14698 5.13709 6.14698Z" fill="#F0A14C"/>
<path d="M7.01551 6.14698H24.8629C25.106 6.14698 25.3032 5.94984 25.3032 5.70667C25.3032 5.4635 25.106 5.26636 24.8629 5.26636H7.01551C6.77234 5.26636 6.5752 5.4635 6.5752 5.70667C6.5752 5.94984 6.77234 6.14698 7.01551 6.14698Z" fill="#F0A14C"/>
<path d="M26.7416 6.14698H27.6809C27.9241 6.14698 28.1212 5.94984 28.1212 5.70667C28.1212 5.4635 27.9241 5.26636 27.6809 5.26636H26.7416C26.4984 5.26636 26.3013 5.4635 26.3013 5.70667C26.3013 5.94984 26.4984 6.14698 26.7416 6.14698Z" fill="#F0A14C"/>
<path d="M13.1212 9.96313H3.72785C3.22607 9.96313 2.81787 10.3713 2.81787 10.8731V12.7518C2.81787 13.2536 3.22607 13.6618 3.72785 13.6618H13.1212C13.623 13.6618 14.0312 13.2536 14.0312 12.7518V10.8731C14.0312 10.3713 13.623 9.96313 13.1212 9.96313ZM13.1506 12.7518C13.1506 12.7679 13.1374 12.7811 13.1212 12.7811H3.72785C3.71165 12.7811 3.6985 12.7679 3.6985 12.7518V10.8731C3.6985 10.857 3.71165 10.8438 3.72785 10.8438H13.1212C13.1374 10.8438 13.1506 10.857 13.1506 10.8731V12.7518Z" fill="#F0A14C"/>
<path d="M26.7417 11.372H23.8219C23.6377 10.8266 23.1215 10.4326 22.5147 10.4326C21.9079 10.4326 21.3917 10.8266 21.2075 11.372H20.1664C19.9232 11.372 19.7261 11.5691 19.7261 11.8123C19.7261 12.0554 19.9232 12.2526 20.1664 12.2526H21.2075C21.3917 12.798 21.9079 13.1919 22.5147 13.1919C23.1215 13.1919 23.6377 12.798 23.8219 12.2526H26.7417C26.9849 12.2526 27.182 12.0554 27.182 11.8123C27.182 11.5691 26.9849 11.372 26.7417 11.372ZM22.5147 12.3113C22.2396 12.3113 22.0157 12.0874 22.0157 11.8123C22.0157 11.5371 22.2396 11.3132 22.5147 11.3132C22.7899 11.3132 23.0137 11.5371 23.0137 11.8123C23.0137 12.0874 22.7899 12.3113 22.5147 12.3113Z" fill="#F0A14C"/>
<path d="M16.8786 9.96313C15.8589 9.96313 15.0293 10.7927 15.0293 11.8124C15.0293 12.8322 15.8589 13.6618 16.8786 13.6618C17.8983 13.6618 18.7279 12.8322 18.7279 11.8124C18.7279 10.7927 17.8983 9.96313 16.8786 9.96313ZM16.8786 12.7811C16.3445 12.7811 15.9099 12.3466 15.9099 11.8124C15.9099 11.2783 16.3445 10.8438 16.8786 10.8438C17.4127 10.8438 17.8473 11.2783 17.8473 11.8124C17.8473 12.3466 17.4127 12.7811 16.8786 12.7811Z" fill="#F0A14C"/>
<path d="M13.1212 15.1294H3.72785C3.22607 15.1294 2.81787 15.5376 2.81787 16.0394V17.918C2.81787 18.4198 3.22607 18.828 3.72785 18.828H13.1212C13.623 18.828 14.0312 18.4198 14.0312 17.918V16.0394C14.0312 15.5376 13.623 15.1294 13.1212 15.1294ZM13.1506 17.918C13.1506 17.9342 13.1374 17.9474 13.1212 17.9474H3.72785C3.71165 17.9474 3.6985 17.9342 3.6985 17.918V16.0394C3.6985 16.0232 3.71165 16.01 3.72785 16.01H13.1212C13.1374 16.01 13.1506 16.0232 13.1506 16.0394V17.918Z" fill="#F0A14C"/>
<path d="M26.7417 16.5385H26.17C25.9858 15.9931 25.4696 15.5991 24.8628 15.5991C24.256 15.5991 23.7399 15.9931 23.5556 16.5385H20.1664C19.9232 16.5385 19.7261 16.7356 19.7261 16.9788C19.7261 17.2219 19.9232 17.4191 20.1664 17.4191H23.5557C23.7399 17.9645 24.2561 18.3584 24.8629 18.3584C25.4697 18.3584 25.9859 17.9645 26.1701 17.4191H26.7418C26.985 17.4191 27.1821 17.2219 27.1821 16.9788C27.1821 16.7356 26.9849 16.5385 26.7417 16.5385ZM24.8629 17.4778C24.5877 17.4778 24.3639 17.2539 24.3639 16.9788C24.3639 16.7036 24.5877 16.4797 24.8629 16.4797C25.1381 16.4797 25.3619 16.7036 25.3619 16.9788C25.3619 17.2539 25.1381 17.4778 24.8629 17.4778Z" fill="#F0A14C"/>
<path d="M16.8786 15.1294C15.8589 15.1294 15.0293 15.959 15.0293 16.9787C15.0293 17.9984 15.8589 18.828 16.8786 18.828C17.8983 18.828 18.7279 17.9984 18.7279 16.9787C18.7279 15.959 17.8983 15.1294 16.8786 15.1294ZM16.8786 17.9474C16.3445 17.9474 15.9099 17.5128 15.9099 16.9787C15.9099 16.4446 16.3445 16.01 16.8786 16.01C17.4127 16.01 17.8473 16.4446 17.8473 16.9787C17.8473 17.5128 17.4127 17.9474 16.8786 17.9474Z" fill="#F0A14C"/>
<path d="M13.1212 20.2957H3.72785C3.22607 20.2957 2.81787 20.7039 2.81787 21.2056V23.0843C2.81787 23.5861 3.22607 23.9943 3.72785 23.9943H13.1212C13.623 23.9943 14.0312 23.5861 14.0312 23.0843V21.2056C14.0312 20.7039 13.623 20.2957 13.1212 20.2957ZM13.1506 23.0843C13.1506 23.1004 13.1374 23.1137 13.1212 23.1137H3.72785C3.71165 23.1137 3.6985 23.1004 3.6985 23.0843V21.2056C3.6985 21.1895 3.71165 21.1763 3.72785 21.1763H13.1212C13.1374 21.1763 13.1506 21.1895 13.1506 21.2056V23.0843Z" fill="#F0A14C"/>
<path d="M26.7417 21.7047H24.2914C24.1071 21.1593 23.591 20.7654 22.9842 20.7654C22.3773 20.7654 21.8612 21.1593 21.677 21.7047H20.1664C19.9232 21.7047 19.7261 21.9019 19.7261 22.145C19.7261 22.3882 19.9232 22.5853 20.1664 22.5853H21.677C21.8612 23.1307 22.3774 23.5247 22.9842 23.5247C23.591 23.5247 24.1072 23.1307 24.2914 22.5853H26.7417C26.9849 22.5853 27.182 22.3882 27.182 22.145C27.182 21.9019 26.9849 21.7047 26.7417 21.7047ZM22.9842 22.6441C22.709 22.6441 22.4852 22.4202 22.4852 22.145C22.4852 21.8699 22.709 21.646 22.9842 21.646C23.2594 21.646 23.4832 21.8699 23.4832 22.145C23.4832 22.4202 23.2594 22.6441 22.9842 22.6441Z" fill="#F0A14C"/>
<path d="M16.8786 20.2957C15.8589 20.2957 15.0293 21.1253 15.0293 22.145C15.0293 23.1647 15.8589 23.9943 16.8786 23.9943C17.8983 23.9943 18.7279 23.1647 18.7279 22.145C18.7279 21.1253 17.8983 20.2957 16.8786 20.2957ZM16.8786 23.1137C16.3445 23.1137 15.9099 22.6791 15.9099 22.145C15.9099 21.6108 16.3445 21.1763 16.8786 21.1763C17.4127 21.1763 17.8473 21.6108 17.8473 22.145C17.8473 22.6791 17.4127 23.1137 16.8786 23.1137Z" fill="#F0A14C"/>
<path d="M27.681 3.3877H2.31898C1.04031 3.3877 0 4.42801 0 5.70668V24.4934C0 25.772 1.04031 26.8124 2.31898 26.8124H27.681C28.9597 26.8124 30 25.772 30 24.4934V5.70668C30 4.42801 28.9597 3.3877 27.681 3.3877ZM2.31898 4.26832H27.681C28.4741 4.26832 29.1194 4.91359 29.1194 5.70668V7.14503H0.880626V5.70668C0.880626 4.91359 1.52589 4.26832 2.31898 4.26832ZM27.681 25.9317H2.31898C1.52589 25.9317 0.880626 25.2865 0.880626 24.4934V8.02566H29.1194V24.4934C29.1194 25.2865 28.4741 25.9317 27.681 25.9317Z" fill="#F0A14C"/>
</svg>
